<?xml version="1.0" encoding="UTF-8"?>
<svg id="Layer_2" xmlns="http://www.w3.org/2000/svg" version="1.1" viewBox="0 0 949.4 155.4">
  <!-- Generator: Adobe Illustrator 29.3.1, SVG Export Plug-In . SVG Version: 2.1.0 Build 151)  -->
  <defs>
    <style>
      .st0 {
        fill: #fff;
      }

      .st1 {
        fill: #282828;
      }
    </style>
  </defs>
  <g id="Layer_1-2">
    <g>
      <path class="st0" d="M865.3,125.1l-28.3,13.9c-1.7-2.2-3.7-4.3-5.9-6.2-2.2-1.9-4.6-3.6-7.1-4.9l9.5-30.1,9,3.1h.2c0,0,.1.3.1.3l5.7,10.4c.2.3.5.6.9.7l11.1,4h.2c0,0,.1.3.1.3l4.4,8.4h0Z"/>
      <path class="st1" d="M945,18.9l-18.5-15.9c-5.2-4.5-13.2-3.9-17.7,1.3l-77.6,90.3c-.1.2-.2.4-.3.6h0c0,0-15.6,49.4-15.6,49.4-.6,1.8,0,3.6,1.4,4.9s3.3,1.5,5,.6l46.5-22.9h0c0,0,.2-.1.3-.2,0,0,.2-.1.2-.2l77.6-90.3c4.5-5.2,3.9-13.2-1.3-17.7h0ZM837,139c-1.7-2.2-3.7-4.3-5.9-6.2-2.2-1.9-4.6-3.6-7.1-4.9l9.5-30.1,9,3.1h.2c0,0,.1.3.1.3l5.7,10.4c.2.3.5.6.9.7l11.1,4h.2c0,0,.1.3.1.3l4.4,8.4-28.3,13.9h0ZM835.3,95l58.7-68.3,5.9,5.1-56.6,65.9-7.9-2.7h0ZM846,100.1l56.7-66,15.2,13-56.7,65.9-10-3.7-5.1-9.3h0ZM867.8,122.9l-3.9-7.4,56.7-65.9,5.9,5-58.7,68.3ZM928.7,52.2l-32.5-28,6.5-7.6h0l-.3.4,32.5,28-6.2,7.2h0ZM937.3,42.2l-32.5-28,6.6-7.7c3.3-3.9,9.2-4.3,13.1-1l18.5,15.9c3.9,3.3,4.3,9.2,1,13.1,0,0-6.6,7.7-6.6,7.7Z"/>
      <polygon class="st0" points="899.9 31.8 843.2 97.7 835.3 95 894 26.7 899.9 31.8"/>
      <polygon class="st0" points="917.8 47.2 861.2 113.1 851.2 109.5 846 100.1 902.7 34.2 917.8 47.2"/>
      <polygon class="st0" points="934.8 45 928.7 52.2 896.1 24.2 902.6 16.7 902.6 16.7 902.3 17 934.8 45"/>
      <polygon class="st0" points="926.5 54.7 867.8 122.9 864 115.6 920.7 49.6 926.5 54.7"/>
      <path class="st0" d="M943.9,34.4l-6.6,7.7-32.5-28,6.6-7.7c3.3-3.9,9.2-4.3,13.1-1l18.5,15.9c3.9,3.3,4.3,9.2,1,13.1h0Z"/>
      <g>
        <polygon class="st1" points="896.1 24.2 902.6 16.6 902.6 16.6 896.1 24.2"/>
        <path class="st1" d="M902.6,16.7l-.3.4h0l.3-.4h0Z"/>
        <path class="st1" d="M842.9,101.2s0,0-.1,0c0,0-.2-.1-.2-.2h.2c0,0,.1.3.1.3h0Z"/>
        <path class="st1" d="M860.9,116.7c0,0-.1,0-.2-.1,0,0-.1-.1-.2-.2h.2c0,0,.1.3.1.3Z"/>
      </g>
    </g>
    <path class="st1" d="M807.4,155.4c-4.4,0-9.8-2.7-13.9-6.6-4.9.7-8.8-.3-12-3-5.9-5-7.2-12.4-6.5-17.2.2-1.1,1.2-1.8,2.3-1.7,1.1.2,1.9,1.2,1.7,2.3-.5,3.8.5,9.7,5.1,13.6,1.7,1.4,3.7,2.1,6.2,2.2-.5-.8-1-1.6-1.4-2.5-2.4-4.9-1.9-9.9,1.3-14,2.9-3.7,8.8-4.6,13.1-2.1,4.2,2.4,5.6,7.2,5.1,11-.9,6.6-7.5,9.4-9.9,10.3,3.1,2.3,6.5,3.7,9,3.7,4.7,0,7.5-2.8,8.5-3.9h.1c.8-.9,2-.9,2.8-.1s.8,2.1,0,2.8h-.1c-1.2,1.4-5,5.1-11.4,5.1h0ZM797.9,129.1c-1.9,0-3.7.8-4.6,2-2.3,2.9-2.6,6.2-.9,9.8.6,1.3,1.5,2.6,2.5,3.7.6-.1,1.1-.3,1.7-.4.7-.2,7-2.2,7.7-7.1.3-2.3-.5-5.5-3.1-7-1-.6-2.2-.9-3.3-.9h0Z"/>
    <g>
      <path class="st1" d="M69.4,50.5l-.6,33.4h2c1.8,0,3.3.5,4.5,1.4s1.8,2.1,1.8,3.5-.6,2.5-1.7,3.4c-1.1.9-2.7,1.3-4.5,1.3h-2l.6,38.8c0,1.8-.5,3.3-1.5,4.5-1,1.2-2.2,1.8-3.5,1.8s-2.6-.6-3.5-1.8c-1-1.2-1.5-2.7-1.5-4.5l.6-39.1c-12-.2-20.6-.4-26-.4s-11.1.1-17.2.4c0,13.2.1,22.9.3,29,.2,6.1.3,9.8.3,11s-.5,2.4-1.5,3.6c-1,1.2-2.2,1.8-3.6,1.8s-2.6-.6-3.5-1.8c-1-1.2-1.5-2.4-1.5-3.6s0-3.7.1-7.3c.3-8.4.5-19.2.5-32.4h-2.2C1.9,93.3,0,91.8,0,88.8s.5-2.6,1.6-3.5c1.1-.9,2.5-1.3,4.3-1.3h2.2l-.6-33.5c0-1.8.5-3.3,1.5-4.5s2.2-1.8,3.5-1.8,2.6.6,3.6,1.8c1,1.2,1.5,2.7,1.5,4.5l-.6,33.9c8.1.2,15.9.2,23.2.2s14-.1,19.9-.4l-.6-33.7c0-1.8.5-3.3,1.5-4.5s2.2-1.8,3.6-1.8,2.6.6,3.5,1.8c1,1.2,1.5,2.7,1.5,4.5h0Z"/>
      <path class="st1" d="M116.1,74.2c6.6,0,11.9,1.8,16,5.5,4.1,3.7,6.2,8.4,6.2,14.3s-2.6,10.3-7.6,13.4-11.3,4.6-18.8,4.6-9.4-.6-15.5-1.8c.5,5.7,2.6,10.6,6.4,14.7,3.8,4.1,8,6.2,12.7,6.2s5.3-.4,7.7-1.2c2.4-.8,4.2-1.6,5.4-2.5,3.3-2.5,5.4-3.8,6.4-3.8s1.8.3,2.4.9.9,1.4.9,2.3c0,2.3-2.3,4.9-7,7.8s-9.8,4.4-15.2,4.4c-8.5,0-15.2-3-20.2-8.9s-7.7-13.1-8.1-21.5c-4.3-1.3-6.5-3.4-6.5-6.4s.3-2.2,1-2.9,1.5-1,2.5-1,2.2.4,3.7,1.1c1.8-7.3,5.2-13.4,10.2-18.1,5-4.7,10.8-7.1,17.4-7.1h0ZM111.5,104.3c5.5,0,9.9-.9,13.2-2.8,3.3-1.9,5-4.4,5-7.6s-1.1-5.9-3.2-8.2c-2.2-2.3-5.2-3.5-9.2-3.5s-9.9,2-13.6,6.1c-3.7,4-6,8.7-7.1,14.1,4.5,1.3,9.5,2,15,2h0Z"/>
      <path class="st1" d="M159.4,91.4l.6,41c0,4.1-1.6,6.1-4.6,6.1s-4.6-2-4.6-6.1l.6-41-.6-41c0-4.1,1.6-6.1,4.6-6.1s4.6,2,4.6,6.1l-.6,41Z"/>
      <path class="st1" d="M183.9,91.4l.6,41c0,4.1-1.6,6.1-4.6,6.1s-4.6-2-4.6-6.1l.6-41-.6-41c0-4.1,1.6-6.1,4.6-6.1s4.6,2,4.6,6.1l-.6,41Z"/>
      <path class="st1" d="M225.3,74.2c8.4,0,15.2,3.1,20.6,9.3,5.4,6.2,8.1,13.9,8.1,22.9s-2.7,16.7-8.2,23c-5.5,6.3-12.4,9.5-20.7,9.5s-15.2-3.1-20.5-9.4c-5.4-6.2-8.1-13.9-8.1-22.9s2.7-16.7,8.1-23.1c5.4-6.3,12.3-9.5,20.7-9.5h0ZM239.4,123.9c3.9-4.8,5.9-10.6,5.9-17.4s-1.9-12.5-5.7-17.2c-3.8-4.7-8.5-7.1-14.1-7.1s-10.4,2.4-14.4,7.2c-4,4.8-5.9,10.6-5.9,17.4s1.9,12.5,5.7,17.2,8.5,7.1,14.1,7.1,10.4-2.4,14.4-7.2Z"/>
      <path class="st1" d="M271.7,125c1.7,0,3,.6,3.9,1.8.9,1.2,1.3,2.8,1.3,4.7s-.6,3.6-1.8,5.2-2.6,2.3-4.3,2.3-3-.6-3.9-2c-.9-1.3-1.3-2.9-1.3-4.7s.6-3.5,1.8-5.1c1.2-1.6,2.6-2.3,4.3-2.3ZM275.3,80l.4,25.9c0,4.1-1.5,6.1-4.4,6.1s-4.4-2-4.4-6.1l.4-25.9c0-4.8-.1-10.8-.4-18-.3-7.2-.4-11.1-.4-11.5,0-4.1,1.6-6.1,4.9-6.1s4.9,2,4.9,6.1-.1,4.3-.4,11.5c-.3,7.2-.4,13.2-.4,18h0Z"/>
      <path class="st1" d="M346.9,129.1l10.8-.6c1.9,0,3.4.4,4.5,1.3,1.1.9,1.6,2,1.6,3.4s-.6,2.5-1.7,3.4c-1.1.9-2.6,1.3-4.4,1.3l-15.8-.7-16.1.6c-4.1,0-6.1-1.6-6.1-4.6s2-4.6,6.1-4.6,4.6.2,11.1.6c.4-18.3.6-30.9.6-37.7s-.2-19.4-.6-37.7c-7.2.3-10.9.5-11.1.5-3.9,0-5.9-1.5-5.9-4.5s.5-2.6,1.6-3.5c1.1-.9,2.5-1.3,4.3-1.3l16.1.6c2.8,0,6-.1,9.7-.4s6-.4,7.1-.4,2.2.5,3.4,1.4c1.2.9,1.8,2.1,1.8,3.5s-.6,2.5-1.7,3.4c-1.1.9-2.3,1.3-3.6,1.3s-5.2-.2-11.7-.6c-.4,18.7-.6,31.4-.6,38s.2,19.1.6,37.4h0Z"/>
      <path class="st1" d="M375.9,64.5l-.7-8.9c0-1.8.5-3.5,1.6-5,1.1-1.5,2.6-2.3,4.4-2.3s3.2.6,4.1,1.9c.9,1.3,1.4,2.7,1.4,4.2,0,5.6-1.5,11.2-4.3,16.6-2.9,5.4-5.7,8.1-8.5,8.1s-1.2-.2-1.7-.7-.7-1-.7-1.5.8-2.1,2.3-4.7,2.3-5.1,2.3-7.6h0Z"/>
      <path class="st1" d="M481.8,98.7l-.6,19.2c0,2.3,0,4,0,5.2s.3,2.4.7,3.7,1,2,1.6,2.3c.6.3,1.3.5,2,.6.7,0,1.2.2,1.5.4.3.2.4.5.4,1,0,2.1-.7,3.9-2,5.3-1.3,1.4-2.9,2.1-4.7,2.1-3.1,0-5.2-1.2-6.4-3.7-1.2-2.4-1.8-6-1.8-10.8l.5-22.5c0-5.5-1.1-10-3.2-13.4s-5.2-5.1-9-5.1-7.6,2.3-11.3,7-6.2,9.9-7.7,15.8l.4,26.5c0,4.2-1.5,6.2-4.6,6.2s-5.6-2.9-5.6-8.6.8-13.8,2.5-24.2c0-15.2-4.2-22.7-12.5-22.7s-7.6,2.3-11.2,7-6.2,9.9-7.7,15.8l.4,26.5c0,4.2-1.5,6.2-4.6,6.2s-5.6-2.9-5.6-8.6.8-13.8,2.5-24.2c0-3.4-.4-8.2-1-14.2s-1-9.8-1-11.2.4-2.7,1.3-3.8c.9-1.1,2-1.7,3.5-1.7s2.6.6,3.5,1.7c.9,1.1,1.3,2.3,1.3,3.7s0,3.1,0,5.1c0,2,0,3.7,0,5.1,5.5-10.3,12.5-15.5,20.8-15.5s8.7,1.4,11.8,4.2,5.1,6.6,6.3,11.3c5.5-10.3,12.5-15.5,20.8-15.5s10.9,2.3,14.2,7,5.1,10.3,5.1,16.9h0Z"/>
      <path class="st1" d="M571.3,91.5v14.7c.1,11.1-2.5,19.2-7.6,24.5-5.1,5.2-10.9,7.8-17.4,7.8s-11.6-1.4-15.6-4.3-5.9-5.6-5.9-8,.4-2.3,1.2-3.1c.8-.8,1.7-1.2,2.8-1.2s2.1.4,3.2,1.3c1.1.9,2,1.9,2.9,2.9.9,1.1,2.3,2,4.2,2.9,1.9.9,4,1.3,6.5,1.3,4.7,0,8.6-2.1,11.9-6.4s5-11.1,5-20.5v-12c.1-18.3,0-30.9-.1-37.9-.9,0-2.2-.1-3.9-.1l-16.5.6c-3.9,0-5.9-1.5-5.9-4.5s.5-2.5,1.6-3.4c1.1-.9,2.5-1.3,4.3-1.3l16.1.6c2.8,0,6-.1,9.7-.4,3.7-.2,6-.4,7.2-.4s2.2.5,3.4,1.4,1.8,2.1,1.8,3.5-.6,2.5-1.9,3.4c-1.3.9-2.8,1.3-4.7,1.3h-1.8c-.2,7.5-.2,19.9-.2,37.3h0Z"/>
      <path class="st1" d="M614.3,74.2c8.3,0,15.2,3.1,20.6,9.3,5.4,6.2,8.1,13.9,8.1,22.9s-2.7,16.7-8.2,23c-5.5,6.3-12.3,9.5-20.7,9.5s-15.2-3.1-20.5-9.4c-5.4-6.2-8.1-13.9-8.1-22.9s2.7-16.7,8.1-23.1c5.4-6.3,12.3-9.5,20.7-9.5h0ZM628.4,123.9c4-4.8,5.9-10.6,5.9-17.4s-1.9-12.5-5.7-17.2c-3.8-4.7-8.5-7.1-14.1-7.1s-10.4,2.4-14.4,7.2-5.9,10.6-5.9,17.4,1.9,12.5,5.7,17.2,8.5,7.1,14.1,7.1,10.4-2.4,14.4-7.2Z"/>
      <path class="st1" d="M696.1,119.6c0,5.5-2.3,10.1-6.8,13.6-4.5,3.5-9.9,5.3-16.3,5.3s-11.8-1.4-16.4-4.3c-4.7-2.9-7-5.8-7-8.6s.4-2.2,1.1-3c.7-.8,1.6-1.2,2.5-1.2s1.7.2,2.3.6,1.3,1.1,2.3,2.1,1.8,2,2.6,2.7c.8.7,2.4,1.5,4.8,2.4,2.4.9,4.6,1.4,6.7,1.4,4.5,0,8.2-.9,11.1-2.8s4.3-4.5,4.3-8-4.1-7.8-12.2-10.6c-3.3-1.1-6.7-2.4-10.1-3.7-3.4-1.3-6.3-3.2-8.6-5.6-2.4-2.4-3.5-5.2-3.5-8.4s2-8.2,6-11.6,8.9-4.9,14.7-4.9,10.4,1,13.8,3,5.1,4.1,5.1,6.3-1.4,4-4.3,4-2.5-.4-3.7-1.3c-3.8-2.7-7.5-4-11-4s-6.4.8-8.6,2.4-3.3,3.4-3.3,5.5,1.2,3.8,3.5,5.3,5.2,2.8,8.6,4,6.8,2.6,10.2,4.1c3.4,1.5,6.3,3.6,8.7,6.2s3.5,5.7,3.5,9.2h0Z"/>
      <path class="st1" d="M711.8,48.6c1.7,0,3,.5,3.8,1.7.8,1.1,1.2,2.5,1.2,4.2s-.6,3.3-1.7,5-2.6,2.5-4.3,2.5-3-.6-3.8-1.7c-.9-1.1-1.3-2.7-1.3-4.5s.6-3.5,1.8-5,2.6-2.1,4.3-2.1h0ZM715.2,106.7l.6,25.7c0,4.1-1.5,6.1-4.7,6.1s-4.7-2-4.7-6.1l.6-25.7-.6-25.7c0-4.1,1.5-6.1,4.7-6.1s4.7,2,4.7,6.1c0,0-.6,25.7-.6,25.7Z"/>
      <path class="st1" d="M759.6,74.2c6.6,0,11.9,1.8,16,5.5,4.1,3.7,6.2,8.4,6.2,14.3s-2.5,10.3-7.6,13.4-11.3,4.6-18.8,4.6-9.4-.6-15.5-1.8c.5,5.7,2.6,10.6,6.4,14.7,3.8,4.1,8,6.2,12.7,6.2s5.3-.4,7.7-1.2,4.2-1.6,5.4-2.5c3.3-2.5,5.4-3.8,6.4-3.8s1.8.3,2.5.9.9,1.4.9,2.3c0,2.3-2.3,4.9-7,7.8s-9.8,4.4-15.2,4.4c-8.5,0-15.2-3-20.2-8.9s-7.7-13.1-8.1-21.5c-4.3-1.3-6.5-3.4-6.5-6.4s.3-2.2,1-2.9,1.5-1,2.5-1,2.2.4,3.7,1.1c1.8-7.3,5.2-13.4,10.2-18.1,5-4.7,10.8-7.1,17.4-7.1h0ZM755,104.3c5.5,0,9.9-.9,13.2-2.8,3.3-1.9,5-4.4,5-7.6s-1.1-5.9-3.2-8.2-5.2-3.5-9.2-3.5-9.9,2-13.6,6.1c-3.7,4-6,8.7-7.1,14.1,4.5,1.3,9.5,2,15,2h0Z"/>
    </g>
  </g>
</svg>