<?xml version="1.0" encoding="UTF-8"?>
<svg id="Layer_2" data-name="Layer 2" xmlns="http://www.w3.org/2000/svg" viewBox="0 0 949.4 155.39">
  <defs>
    <style>
      .cls-1 {
        fill: #fff;
      }
    </style>
  </defs>
  <g id="Layer_1-2" data-name="Layer 1">
    <g>
      <path class="cls-1" d="M865.31,125.1l-28.29,13.92c-1.68-2.21-3.65-4.31-5.89-6.24-2.25-1.93-4.62-3.56-7.06-4.89l9.51-30.07,8.96,3.05.2.07.14.26,5.72,10.38c.19.34.5.6.87.74l11.06,4.03.24.09.12.23,4.42,8.44Z"/>
      <path d="M945.05,18.88l-18.46-15.86c-5.24-4.5-13.16-3.9-17.66,1.34l-77.63,90.34c-.14.16-.25.36-.31.57v.05s-15.61,49.31-15.61,49.31c-.57,1.78-.03,3.65,1.39,4.87s3.35,1.47,5.02.64l46.45-22.86h0c.09-.05.18-.11.27-.17.09-.07.17-.14.24-.23l77.63-90.34c4.5-5.23,3.9-13.16-1.34-17.66ZM837.02,139.02c-1.68-2.21-3.65-4.31-5.89-6.24-2.25-1.93-4.62-3.56-7.06-4.89l9.51-30.07,8.96,3.05.2.07.14.26,5.72,10.38c.19.34.5.6.87.74l11.06,4.03.24.09.12.23,4.42,8.44-28.29,13.92ZM835.32,94.99l58.68-68.28,5.9,5.07-56.64,65.92-7.93-2.7ZM846.01,100.14l56.69-65.97,15.16,13.03-56.66,65.93-10.04-3.66-5.14-9.33ZM867.85,122.95l-3.87-7.39,56.67-65.95,5.88,5.05-58.68,68.29ZM928.65,52.2l-32.53-27.95,6.51-7.58h0s-.33.39-.33.39l32.53,27.95-6.19,7.2ZM937.28,42.15l-32.53-27.95,6.64-7.73c3.33-3.88,9.2-4.33,13.08-.99l18.46,15.86c3.88,3.34,4.32,9.2.99,13.08l-6.64,7.73Z"/>
      <polygon class="cls-1" points="899.9 31.78 843.25 97.69 835.32 94.99 894 26.71 899.9 31.78"/>
      <polygon class="cls-1" points="917.85 47.2 861.2 113.14 851.15 109.48 846.01 100.14 902.69 34.18 917.85 47.2"/>
      <polygon class="cls-1" points="934.83 45 928.65 52.2 896.11 24.24 902.63 16.66 902.63 16.67 902.31 17.05 934.83 45"/>
      <polygon class="cls-1" points="926.53 54.66 867.85 122.95 863.97 115.56 920.65 49.61 926.53 54.66"/>
      <path class="cls-1" d="M943.92,34.42l-6.64,7.73-32.53-27.95,6.64-7.73c3.33-3.88,9.2-4.33,13.08-.99l18.46,15.86c3.88,3.34,4.32,9.2.99,13.08Z"/>
      <g>
        <rect x="894.38" y="20.45" width="10" height="0" transform="translate(297.7 689.25) rotate(-49.33)"/>
        <path d="M902.63,16.66l-.33.38h0s.33-.38.33-.38h0Z"/>
        <path d="M842.89,101.2s-.09-.07-.13-.1c-.08-.07-.15-.14-.22-.22l.2.07.14.26Z"/>
        <path d="M860.89,116.66c-.06-.04-.12-.09-.18-.14-.07-.06-.13-.12-.18-.18l.24.09.12.23Z"/>
      </g>
    </g>
    <path d="M807.43,155.39c-4.44,0-9.83-2.7-13.88-6.55-4.89.67-8.85-.3-12.02-2.96-5.92-4.96-7.22-12.38-6.54-17.23.16-1.09,1.18-1.85,2.26-1.7,1.09.15,1.86,1.17,1.7,2.26-.54,3.83.48,9.7,5.14,13.6,1.66,1.39,3.7,2.12,6.16,2.21-.55-.8-1.04-1.62-1.44-2.46-2.39-4.94-1.92-9.92,1.32-14.01,2.89-3.65,8.77-4.57,13.1-2.06,4.18,2.42,5.56,7.25,5.07,10.96-.87,6.61-7.46,9.44-9.91,10.26,3.06,2.26,6.5,3.67,9.03,3.67,4.69,0,7.48-2.8,8.53-3.85l.12-.12c.78-.78,2.05-.78,2.83,0,.78.78.78,2.05,0,2.83l-.11.11c-1.24,1.24-5.01,5.03-11.36,5.03ZM797.92,129.08c-1.92,0-3.72.79-4.64,1.96-2.3,2.9-2.59,6.2-.86,9.78.63,1.31,1.49,2.55,2.5,3.7.56-.13,1.14-.28,1.74-.45.72-.21,7.04-2.19,7.7-7.15.3-2.31-.54-5.48-3.11-6.97-1.05-.61-2.21-.87-3.32-.87Z"/>
    <g>
      <path d="M69.44,50.53l-.61,33.38h1.96c1.79,0,3.28.47,4.46,1.41,1.18.94,1.77,2.1,1.77,3.48s-.57,2.51-1.71,3.36c-1.14.86-2.65,1.28-4.52,1.28h-1.96l.61,38.76c0,1.79-.49,3.28-1.47,4.46-.98,1.18-2.16,1.77-3.54,1.77s-2.57-.59-3.55-1.77c-.98-1.18-1.47-2.67-1.47-4.46l.61-39.12c-11.98-.24-20.64-.37-25.98-.37s-11.06.12-17.18.37c0,13.2.1,22.86.31,28.98.2,6.11.31,9.78.31,11s-.49,2.43-1.47,3.61c-.98,1.18-2.16,1.77-3.55,1.77s-2.57-.59-3.54-1.77c-.98-1.18-1.47-2.38-1.47-3.61s.04-3.67.12-7.34c.32-8.39.49-19.19.49-32.4h-2.2c-3.91,0-5.87-1.51-5.87-4.52,0-1.47.53-2.63,1.59-3.48,1.06-.86,2.49-1.28,4.28-1.28h2.2l-.61-33.5c0-1.79.49-3.28,1.47-4.46.98-1.18,2.16-1.77,3.54-1.77s2.57.59,3.55,1.77c.98,1.18,1.47,2.67,1.47,4.46l-.61,33.87c8.15.16,15.89.24,23.23.24s13.98-.12,19.93-.37l-.61-33.74c0-1.79.49-3.28,1.47-4.46.98-1.18,2.16-1.77,3.55-1.77s2.57.59,3.54,1.77c.98,1.18,1.47,2.67,1.47,4.46Z"/>
      <path d="M116.13,74.25c6.56,0,11.9,1.83,16.02,5.5,4.11,3.67,6.17,8.44,6.17,14.3s-2.55,10.33-7.64,13.39c-5.09,3.06-11.35,4.58-18.77,4.58-4.24,0-9.41-.61-15.53-1.83.49,5.71,2.63,10.62,6.42,14.73,3.79,4.12,8.01,6.17,12.65,6.17,2.77,0,5.34-.39,7.7-1.16,2.36-.77,4.16-1.61,5.38-2.51,3.26-2.53,5.4-3.79,6.42-3.79s1.83.31,2.45.92.92,1.37.92,2.26c0,2.28-2.34,4.89-7.03,7.82-4.69,2.93-9.76,4.4-15.22,4.4-8.48,0-15.2-2.97-20.17-8.92-4.97-5.95-7.66-13.12-8.07-21.52-4.32-1.3-6.48-3.42-6.48-6.36,0-1.22.35-2.18,1.04-2.87s1.53-1.04,2.51-1.04,2.2.37,3.67,1.1c1.79-7.34,5.2-13.37,10.21-18.09,5.01-4.73,10.8-7.09,17.36-7.09ZM111.49,104.33c5.5,0,9.9-.94,13.2-2.81,3.3-1.87,4.95-4.4,4.95-7.58s-1.08-5.93-3.24-8.25c-2.16-2.32-5.24-3.48-9.23-3.48-5.38,0-9.9,2.02-13.57,6.05-3.67,4.03-6.03,8.74-7.09,14.12,4.48,1.31,9.47,1.96,14.98,1.96Z"/>
      <path d="M159.4,91.37l.61,40.96c0,4.08-1.55,6.11-4.65,6.11s-4.65-2.04-4.65-6.11l.61-40.96-.61-40.96c0-4.07,1.55-6.11,4.65-6.11s4.65,2.04,4.65,6.11l-.61,40.96Z"/>
      <path d="M183.94,91.37l.61,40.96c0,4.08-1.55,6.11-4.65,6.11s-4.65-2.04-4.65-6.11l.61-40.96-.61-40.96c0-4.07,1.55-6.11,4.65-6.11s4.65,2.04,4.65,6.11l-.61,40.96Z"/>
      <path d="M225.34,74.25c8.35,0,15.22,3.12,20.6,9.35,5.38,6.24,8.07,13.88,8.07,22.92s-2.73,16.73-8.19,23.05c-5.46,6.32-12.35,9.48-20.66,9.48s-15.16-3.12-20.54-9.35c-5.38-6.24-8.07-13.88-8.07-22.92s2.71-16.73,8.13-23.05c5.42-6.32,12.31-9.48,20.66-9.48ZM239.4,123.89c3.95-4.81,5.93-10.59,5.93-17.36s-1.89-12.51-5.68-17.24c-3.79-4.73-8.5-7.09-14.12-7.09s-10.41,2.4-14.37,7.21c-3.96,4.81-5.93,10.6-5.93,17.36s1.89,12.51,5.68,17.24c3.79,4.73,8.5,7.09,14.12,7.09s10.41-2.4,14.37-7.21Z"/>
      <path d="M271.69,124.99c1.67,0,2.95.61,3.85,1.83.9,1.22,1.34,2.79,1.34,4.71s-.59,3.65-1.77,5.2c-1.18,1.55-2.61,2.32-4.28,2.32s-2.96-.65-3.85-1.96c-.9-1.3-1.34-2.87-1.34-4.71s.59-3.52,1.77-5.07c1.18-1.55,2.61-2.32,4.28-2.32ZM275.3,80l.37,25.92c0,4.08-1.47,6.11-4.4,6.11s-4.4-2.04-4.4-6.11l.37-25.92c0-4.81-.14-10.82-.43-18.03-.29-7.21-.43-11.06-.43-11.55,0-4.07,1.63-6.11,4.89-6.11s4.89,2.04,4.89,6.11c0,.49-.14,4.34-.43,11.55-.29,7.21-.43,13.23-.43,18.03Z"/>
      <path d="M346.94,129.15l10.76-.61c1.87,0,3.36.43,4.46,1.28,1.1.86,1.65,1.98,1.65,3.36s-.57,2.53-1.71,3.42c-1.14.9-2.61,1.34-4.4,1.34l-15.77-.73-16.14.61c-4.08,0-6.11-1.55-6.11-4.65s2.04-4.65,6.11-4.65c.9,0,4.6.2,11.13.61.41-18.34.61-30.91.61-37.72s-.2-19.38-.61-37.72c-7.17.33-10.88.49-11.13.49-3.91,0-5.87-1.51-5.87-4.52,0-1.47.53-2.63,1.59-3.48,1.06-.86,2.49-1.28,4.28-1.28l16.14.61c2.77,0,5.99-.12,9.66-.37s6.05-.37,7.15-.37,2.24.47,3.42,1.41c1.18.94,1.77,2.1,1.77,3.48s-.57,2.51-1.71,3.36c-1.14.86-2.34,1.28-3.61,1.28s-5.16-.2-11.68-.61c-.41,18.75-.61,31.42-.61,38.02s.2,19.07.61,37.41Z"/>
      <path d="M375.89,64.47l-.73-8.92c0-1.79.55-3.46,1.65-5.01,1.1-1.55,2.57-2.32,4.4-2.32s3.2.63,4.1,1.9c.9,1.26,1.35,2.67,1.35,4.22,0,5.62-1.45,11.15-4.34,16.57-2.89,5.42-5.73,8.13-8.5,8.13-.65,0-1.22-.22-1.71-.67-.49-.45-.73-.96-.73-1.53s.75-2.14,2.26-4.71c1.51-2.57,2.26-5.11,2.26-7.64Z"/>
      <path d="M481.8,98.7l-.61,19.19c0,2.28.02,4.02.06,5.2.04,1.18.28,2.41.73,3.67.45,1.26,1,2.04,1.65,2.32.65.29,1.32.47,2.02.55.69.08,1.18.2,1.47.37.28.16.43.49.43.98,0,2.12-.67,3.89-2.02,5.32-1.34,1.43-2.92,2.14-4.71,2.14-3.1,0-5.24-1.22-6.42-3.67-1.18-2.45-1.77-6.03-1.77-10.76l.49-22.5c0-5.54-1.08-10.03-3.24-13.45-2.16-3.42-5.18-5.13-9.05-5.13s-7.64,2.32-11.31,6.97-6.24,9.9-7.7,15.77l.37,26.53c0,4.16-1.55,6.24-4.65,6.24-3.75,0-5.62-2.87-5.62-8.62s.81-13.79,2.45-24.15c0-15.16-4.16-22.74-12.47-22.74-3.83,0-7.58,2.32-11.25,6.97s-6.24,9.9-7.7,15.77l.37,26.53c0,4.16-1.55,6.24-4.65,6.24-3.75,0-5.62-2.87-5.62-8.62s.81-13.79,2.45-24.15c0-3.42-.35-8.15-1.04-14.18-.69-6.03-1.04-9.76-1.04-11.19s.43-2.69,1.28-3.79c.86-1.1,2.02-1.65,3.48-1.65s2.63.55,3.48,1.65c.86,1.1,1.28,2.34,1.28,3.73s-.02,3.08-.06,5.07c-.04,2-.06,3.69-.06,5.07,5.54-10.35,12.47-15.53,20.78-15.53,4.81,0,8.74,1.41,11.8,4.22s5.15,6.58,6.3,11.31c5.54-10.35,12.47-15.53,20.78-15.53,6.11,0,10.86,2.32,14.24,6.97,3.38,4.65,5.07,10.27,5.07,16.87Z"/>
      <path d="M571.3,91.49l.12,14.67c0,11.09-2.57,19.24-7.7,24.45-5.13,5.22-10.92,7.82-17.36,7.82s-11.64-1.45-15.59-4.34c-3.95-2.89-5.93-5.56-5.93-8.01,0-1.3.39-2.34,1.16-3.12.77-.77,1.69-1.16,2.75-1.16s2.12.45,3.18,1.34c1.06.9,2.04,1.88,2.93,2.93.9,1.06,2.28,2.04,4.16,2.93,1.87.9,4.03,1.34,6.48,1.34,4.65,0,8.62-2.14,11.92-6.42,3.3-4.28,4.95-11.1,4.95-20.48l.12-11.98c0-18.26-.08-30.89-.25-37.9-.9-.08-2.2-.12-3.91-.12l-16.5.61c-3.91,0-5.87-1.51-5.87-4.52,0-1.38.53-2.53,1.59-3.42,1.06-.9,2.49-1.34,4.28-1.34l16.14.61c2.77,0,5.99-.12,9.66-.37,3.67-.24,6.05-.37,7.15-.37s2.24.47,3.42,1.41c1.18.94,1.77,2.1,1.77,3.48s-.63,2.51-1.89,3.36c-1.26.86-2.83,1.28-4.71,1.28h-1.83c-.16,7.5-.24,19.93-.24,37.29Z"/>
      <path d="M614.31,74.25c8.35,0,15.22,3.12,20.6,9.35,5.38,6.24,8.07,13.88,8.07,22.92s-2.73,16.73-8.19,23.05c-5.46,6.32-12.35,9.48-20.66,9.48s-15.16-3.12-20.54-9.35c-5.38-6.24-8.07-13.88-8.07-22.92s2.71-16.73,8.13-23.05c5.42-6.32,12.31-9.48,20.66-9.48ZM628.37,123.89c3.95-4.81,5.93-10.59,5.93-17.36s-1.89-12.51-5.68-17.24c-3.79-4.73-8.5-7.09-14.12-7.09s-10.41,2.4-14.37,7.21c-3.96,4.81-5.93,10.6-5.93,17.36s1.89,12.51,5.68,17.24c3.79,4.73,8.5,7.09,14.12,7.09s10.41-2.4,14.37-7.21Z"/>
      <path d="M696.09,119.61c0,5.54-2.26,10.07-6.79,13.57-4.52,3.51-9.94,5.26-16.26,5.26s-11.8-1.45-16.44-4.34c-4.65-2.89-6.97-5.77-6.97-8.62,0-1.22.37-2.22,1.1-3,.73-.77,1.57-1.16,2.51-1.16s1.69.18,2.26.55c.57.37,1.34,1.08,2.32,2.14.98,1.06,1.85,1.96,2.63,2.69.77.73,2.36,1.55,4.77,2.44,2.4.9,4.62,1.35,6.66,1.35,4.48,0,8.17-.92,11.06-2.75,2.89-1.83,4.34-4.5,4.34-8.01,0-4.24-4.08-7.78-12.23-10.64-3.34-1.14-6.71-2.38-10.09-3.73-3.38-1.34-6.26-3.2-8.62-5.56-2.37-2.36-3.55-5.17-3.55-8.44,0-4.4,2-8.25,5.99-11.55,3.99-3.3,8.88-4.95,14.67-4.95s10.37,1,13.75,3c3.38,2,5.07,4.1,5.07,6.3,0,2.69-1.43,4.03-4.28,4.03-1.22,0-2.45-.45-3.67-1.35-3.83-2.69-7.5-4.03-11-4.03s-6.36.79-8.56,2.38c-2.2,1.59-3.3,3.42-3.3,5.5s1.18,3.85,3.54,5.32c2.36,1.47,5.24,2.81,8.62,4.03,3.38,1.22,6.79,2.59,10.21,4.1,3.42,1.51,6.32,3.59,8.68,6.24,2.36,2.65,3.55,5.73,3.55,9.23Z"/>
      <path d="M711.82,48.58c1.71,0,2.97.55,3.79,1.65.81,1.1,1.22,2.49,1.22,4.16s-.57,3.34-1.71,5.01c-1.14,1.67-2.57,2.51-4.28,2.51s-3-.57-3.85-1.71c-.86-1.14-1.28-2.65-1.28-4.52s.59-3.52,1.77-4.95c1.18-1.43,2.63-2.14,4.34-2.14ZM715.24,106.65l.61,25.67c0,4.08-1.55,6.11-4.65,6.11s-4.65-2.04-4.65-6.11l.61-25.67-.61-25.67c0-4.07,1.55-6.11,4.65-6.11s4.65,2.04,4.65,6.11l-.61,25.67Z"/>
      <path d="M759.62,74.25c6.56,0,11.9,1.83,16.02,5.5,4.11,3.67,6.17,8.44,6.17,14.3s-2.55,10.33-7.64,13.39c-5.09,3.06-11.35,4.58-18.77,4.58-4.24,0-9.41-.61-15.53-1.83.49,5.71,2.63,10.62,6.42,14.73,3.79,4.12,8.01,6.17,12.65,6.17,2.77,0,5.34-.39,7.7-1.16,2.36-.77,4.16-1.61,5.38-2.51,3.26-2.53,5.4-3.79,6.42-3.79s1.83.31,2.45.92.92,1.37.92,2.26c0,2.28-2.34,4.89-7.03,7.82-4.69,2.93-9.76,4.4-15.22,4.4-8.48,0-15.2-2.97-20.17-8.92-4.97-5.95-7.66-13.12-8.07-21.52-4.32-1.3-6.48-3.42-6.48-6.36,0-1.22.35-2.18,1.04-2.87s1.53-1.04,2.51-1.04,2.2.37,3.67,1.1c1.79-7.34,5.2-13.37,10.21-18.09,5.01-4.73,10.8-7.09,17.36-7.09ZM754.98,104.33c5.5,0,9.9-.94,13.2-2.81,3.3-1.87,4.95-4.4,4.95-7.58s-1.08-5.93-3.24-8.25c-2.16-2.32-5.24-3.48-9.23-3.48-5.38,0-9.9,2.02-13.57,6.05-3.67,4.03-6.03,8.74-7.09,14.12,4.48,1.31,9.47,1.96,14.98,1.96Z"/>
    </g>
  </g>
</svg>