<?xml version="1.0" encoding="UTF-8"?>
<svg id="Layer_2" data-name="Layer 2" xmlns="http://www.w3.org/2000/svg" viewBox="0 0 1024 768">
  <defs>
    <style>
      .cls-1 {
        fill: #007bff;
      }

      .cls-2, .cls-3 {
        fill: #fff;
      }

      .cls-3 {
        opacity: 0;
      }
    </style>
  </defs>
  <g id="Layer_2-2" data-name="Layer 2">
    <g>
      <rect class="cls-3" width="1024" height="768"/>
      <g>
        <path class="cls-2" d="M240.84,196.44c-3.96-8.43-1.65-18.8,5.74-25.82,4.8-4.56,11.06-6.87,18.61-6.87,9.5,0,19.3,3.66,26.97,8.02-.51-1.3-.99-2.66-1.38-4.09-2.41-8.88-4.97-25.82,4.82-39.49,4.58-6.41,11.18-10.08,18.1-10.08,8.41,0,15.86,5.16,19.9,13.79,4.57,9.74,4.21,20.98,2.7,30.39,4.74-4.23,10.07-8.36,16.38-11.25,5.44-2.5,11.61-3.87,17.38-3.87,8.75,0,15.83,2.97,19.9,8.36,2.73,3.6,5.38,10.07,2.45,20.44-1.8,6.41-8.79,21.23-35.43,28.37l2.45,1.37c11.1,5.66,19.39,19.88,19.62,33.79.18,10.42-4.27,18.67-12.51,23.22-3.83,2.12-7.92,3.2-12.14,3.2-13.49,0-25.56-10.75-32.34-20.82-1.3-1.94-2.39-3.92-3.43-5.89-5.12,14.93-18.09,32.77-33.94,34.1-.67.05-1.33.08-1.98.08h-.01c-11.22,0-20.17-7.94-21.74-19.33-2.04-14.68,7.81-30.24,17.78-39.98-14.86-.39-32.07-5.19-37.93-17.66Z"/>
        <path class="cls-2" d="M432.83,642.85c1.76,5.6,9.33,13.68-.43,16.96-2.34.78-34.59-12.89-39.32-15.17-32.83-15.85-55.86-37.68-54.74-76.73-16.91-22.62-38.52-42.25-56.61-64.19-68.86-83.46-134.14-174.68-187.81-268.58-10.36-18.13-32.48-54.34-36.3-73.53-2.27-11.5,4.19-18.52,15.56-13.59,13.8,5.99,38.28,35.33,49.1,47.55,65.1,73.57,121.92,152.02,176.09,233.65,24.5,36.93,49.24,73.89,67.06,114.63,4.66,3.16,10.17,2.84,15.41,4.82,9.3,3.51,20.32,11.5,26.89,18.96,19.47,22.14,16.93,49.28,25.09,75.21Z"/>
        <path class="cls-2" d="M804.54,233.24c-36.07-73.23-123.43-96.52-199.1-79.9-67.32,14.8-126.62,59.35-171.73,109.69-35.48,39.59-73.06,100.74-55.6,155.5,10.25,27.73,41.19,28.17,49.22,28.43,22.63,1.8,67.94-5.32,77.76,22.32,9.19,25.88-27.09,66.23,3.66,94.55,38.37,35.32,111.6,8.12,150.34-14.41,101.67-59.09,205.12-195.08,145.46-316.18ZM487.34,350.12c1.68-1.8,7.2-6.83,9.19-7.45,2.14-.66,5.48.19,8.4-.48,4.73-1.09,8.35-3.02,13.52-3.48,11.73-1.03,22.79,4.65,24.19,17.05,2.76,24.47-36.7,49.57-57.58,35.41-14.95-10.13-7.73-30.33,2.27-41.06Z"/>
        <path class="cls-2" d="M907.42,531.21c1.48,4.27,1.96,11.26-4.06,20.23-3.71,5.54-15.01,17.47-42.6,15.95l1.91,2.06c8.8,8.86,12.24,25,8.13,38.32-3.09,9.97-9.91,16.44-19.18,18.21-4.31.82-8.53.56-12.55-.75-12.86-4.22-20.98-18.22-24.29-29.93-.63-2.24-1.05-4.49-1.44-6.67-9.53,12.61-27.44,25.54-42.95,21.85-.66-.15-1.29-.34-1.92-.54-10.7-3.51-16.73-13.87-14.68-25.2,2.65-14.62,16.89-26.36,29.43-32.52-14.03-5.01-28.91-14.96-30.6-28.67-1.14-9.26,4.3-18.43,13.53-22.79,5.99-2.84,12.69-3.08,19.86-.73,9.06,2.97,17.24,9.52,23.18,16.07-.07-1.4-.12-2.85-.04-4.31.48-9.22,3.33-26.14,16.93-36.11,6.37-4.66,13.8-6.09,20.39-3.92,8.01,2.62,13.48,9.85,14.64,19.35,1.3,10.7-2.54,21.28-6.92,29.77,5.85-2.55,12.2-4.81,19.12-5.59,5.97-.67,12.27-.05,17.75,1.75,8.33,2.73,14.14,7.77,16.34,14.18Z"/>
        <path class="cls-2" d="M941.06,177.72c-2.86,4.07-11.48,12.81-32.05,11.24l1.4,1.57c6.42,6.75,8.75,18.84,5.46,28.72-2.46,7.41-7.65,12.12-14.6,13.29-3.23.55-6.38.3-9.35-.75-9.54-3.36-15.38-13.94-17.67-22.73-.43-1.68-.71-3.36-.95-5-7.32,9.26-20.9,18.64-32.42,15.64-.48-.12-.95-.27-1.42-.43-7.93-2.78-12.27-10.62-10.56-19.04,2.22-10.87,13.02-19.41,22.48-23.82-10.4-3.96-21.36-11.61-22.39-21.88-.71-6.93,3.49-13.68,10.46-16.8,4.52-2.03,9.52-2.11,14.84-.23,6.72,2.35,12.73,7.36,17.05,12.35-.03-1.05-.04-2.12.04-3.23.51-6.85,2.89-19.46,13.2-26.68,4.84-3.39,10.4-4.34,15.29-2.62,5.94,2.08,9.91,7.58,10.62,14.68.81,8.01-2.23,15.85-5.63,22.12,4.39-1.81,9.18-3.4,14.37-3.87,4.46-.42,9.15.15,13.23,1.57,6.18,2.18,10.43,6.02,11.97,10.85,1.03,3.21,1.29,8.44-3.35,15.04Z"/>
        <g>
          <g id="wvv1Ez">
            <g>
              <path class="cls-1" d="M804.54,233.24c-36.07-73.23-123.43-96.52-199.1-79.9-67.32,14.8-126.62,59.35-171.73,109.69-35.48,39.59-73.06,100.74-55.6,155.5,10.25,27.73,41.19,28.17,49.22,28.43,22.63,1.8,67.94-5.32,77.76,22.32,9.19,25.88-27.09,66.23,3.66,94.55,38.37,35.32,111.6,8.12,150.34-14.41,101.67-59.09,205.12-195.08,145.46-316.18ZM590.64,562.3c-32.26,7.55-85.01,7.45-78.74-38.94,4.03-29.9,22.71-61.15-13.74-81.11-30.72-16.83-91.74,3.25-106.46-26.61-20.44-41.49,15.78-100.96,41.43-133.52,37.6-47.72,107.99-98.2,167.46-112.72,153.23-37.39,252.96,84.09,184.76,227.06-33.3,69.83-118.35,147.97-194.71,165.83Z"/>
              <path class="cls-1" d="M556.66,355.49c-2.27-26.31-27.69-35.96-50.8-28.48-6.29,2.03-7.14,5.27-11.18,7.88-3.35,2.15-7.81,3.05-11.65,5.68-15.79,10.86-26.05,38.8-11.8,54.46,27.86,30.63,88.84-.22,85.44-39.54ZM485.07,391.18c-14.95-10.13-7.73-30.33,2.27-41.06,1.68-1.8,7.2-6.83,9.19-7.45,2.14-.66,5.48.19,8.4-.48,4.73-1.09,8.35-3.02,13.52-3.48,11.73-1.03,22.79,4.65,24.19,17.05,2.76,24.47-36.7,49.57-57.58,35.41Z"/>
              <path class="cls-1" d="M729.98,297.02c-7.47,2.58-22.43,12.26-25.15,19.8-1.12,3.13-.22,5.43-.9,8.2-.81,3.28-4.45,7-5.59,11.83-8.72,36.91,26.09,47.07,54.71,34.94,52.32-22.18,29.78-93.03-23.08-74.77ZM706.68,348.75c.38-6.13-1.84-13.92,6.63-12,.95.69-3.48,8.22-4.22,9.56-.71,1.26.43,2.63-2.41,2.45ZM715.03,362.54c-.91-.05-3.92-3.76-3.45-4.72.16-.32,5.27-4.69,5.68-4.35.97,2,.79,9.26-2.23,9.07ZM717.97,351.16c-.78-.24.31-1.91,1.92-1.4.78.24-.31,1.9-1.92,1.4ZM730.96,357.06c.42-.61,2.18-6.49,4.02-1.69.48,1.26-2.79,7.11.67,10.15-14.38,2.92-9.88-.67-4.69-8.45ZM733.46,314.79c-.03-4.35,1.14-8.37,6.12-8.66,1.76,2.43-5.11,9.39-6.12,8.66ZM743.06,364.25c-1.52-1.2,3.86-9.22,4.35-9.45,2.2-.98,4.41,4.1,4.79,5.7l-9.14,3.75ZM754.12,309.43c-.09,1.01-7.96,12.14-9.89,11.11,2.42-3.41,2.85-8.68,4.6-12.06,1.91-3.72,5.59-2.49,5.3.94ZM767.65,317.61l-7.2,2.33,2.61-6.98c1.94-.85,5.13,3.9,4.6,4.65Z"/>
              <path class="cls-1" d="M721.66,204.11c-16.02-10.62-38.75-13.86-53.45.12-2.97,2.81-3.28,2.9-6.52,5.55-30.27,24.7-10.71,69.38,30.47,64.3,36.21-4.46,65.17-46.35,29.5-69.97ZM693.37,207.57c.48-.48,5.12-.07,5.36.12,1.85,1.42-.5,2.08-.93,2.62-.86,1.06-5.24,6.96-6.25,6.2.08-1.38,1.49-8.61,1.81-8.94ZM657.14,237.65c-2.18-1.64,7.11-26.1,14.14-25.25-3.32,6.46-5.85,14.47-9.53,20.64-1.03,1.73-2.33,4.41-4.61,4.61ZM660.63,249.02l13.4-14.26-7.16,18.6c-2.23,4.66-6.92-2.16-6.24-4.34ZM673.29,262.05l3.48-8.2,1.98,8.36-5.46-.16ZM674.6,218.9c2.33-4.76,2.47-9.96,9.18-9.73-1.85,3.99-4.82,8.29-9.18,9.73ZM705.75,257.63c-1.38,3.05-18.61,5.91-22.59,4.89l7.73-8.9c1.12,15.17,13.4-1.34,14.6-.35.16,1.38.91,2.97.27,4.35ZM710.59,214.21c-.16.39-6.03,5.93-6.5,5.59-.48-1.94,2-8.74,3.32-9.26,2.08-.54,3.86,1.96,3.18,3.67ZM721.89,222.16c-.24.38-6.87,3.14-8.08,3.57-.67-.43,3.05-9.81,6.05-8.59.36.15,2.3,4.58,2.03,5.01ZM722.51,238.37c-1.05-.7,1.17-8.78,3.12-7.04-.05,3.24,1.42,7.47-3.12,7.04Z"/>
              <path class="cls-1" d="M634.57,423.53c-7.88,7.65-5.04,8.49-7.08,16.83-.12.48-3.79,5.47-4.65,8.29-3.95,12.97-3.64,32.32,8.4,40.99,20.51,14.8,55.38-7.11,67.84-24.69,30.44-42.99-33.25-71.75-64.51-41.42ZM651.2,424.62c1.75,1.33-4.78,13.37-6.63,12.01-.08-5.54,1.2-9.85,6.63-12.01ZM630.94,458.54c-1.55-1.06,2.5-23.92,7.28-20.8,1.57,1.02-4.87,16.52-4.23,19.55.31,1.22-2.92,1.34-3.05,1.25ZM634.85,474.78c3.83-6.45,5.3-11.96,8.58-18.08.78-1.45.73-3.08,2.98-2.98.63.48-1.89,8.44-2.39,9.93-.63,1.91-2.47,2.47-2.81,3.78-.77,2.9-1.32,12.42,2.28,13.48,5.94,1.73,6.13-4.99,9.53-7.66l2.7,9.31c-4.97,3.16-25.58.13-20.87-7.78ZM660.43,433.91l-.97-11.8,6.34-1.08c1.76,1.18-3.04,11.85-5.38,12.88ZM663.82,479c-.5-.34,2.22-8.79,2.63-9.56.54-1.02,1.46-1.37,2.04-1.02.3.16,3.33,4.41,4.19,5.23-.08,1.65-6.84,5.27-8.87,5.35ZM672.77,436.14c.08-2.53,2.14-13.91,4.66-13.84,5.35.15-2.88,12.59-4.66,13.84ZM690.31,455.95c-.3-3.87,5.11-14.34-1.18-14.86-2.14-.19-6.1,3.53-5.66.31.31-2.3,2.3-7.94,3.06-10.87.38-1.44-.62-2.49,1.71-2.51,4.14-.04,8,9.68,8.29,13.29.28,3.52-2.35,13.09-6.22,14.65Z"/>
              <path class="cls-1" d="M557.04,208.21c-4.53,1.57-13.4,5.58-16.06,9.53-1.4,2.1-1.26,5.13-2.41,7.12-3.48,5.99-7.84,10.91-9.99,18-7.08,23.36,13.51,43.45,36.64,38.93,57.83-11.28,60.32-97.32-8.19-73.58ZM563.29,216.81c.81,1.91-.7,2.7-1.46,4.06-2.85,5-7.35,11.06-10.95,15.44,1.81-7.8,2.63-18.2,12.42-19.5ZM536.52,250.76c-2.2-3.19,5.56-22.07,8.52-19.93.77.55-3.59,12.51-4.27,14.13-.73,1.69-1.99,5.86-4.25,5.81ZM541.29,263.05c.27-1.02,8.7-14.9,10.19-13.75,1.3,1.01-4.88,14.73-6.01,16.61-2.81,4.66-4.88-.13-4.18-2.86ZM573.64,262.47c.12,1.61,2.19,4.33,1.64,5.48-1.49,3.21-19.93,6.09-24.22,4.23-1.02-1.02,7.31-16.75,8.72-18.41.87-1.02,2.93-2.97,4.03-2.24,1.34.86-6.4,11.37-3.39,17.26,3.09,6.07,10.27-9.25,11.52-11.07.9-1.32,1.42-2.78,3.35-2.73.74,2.57-1.84,5.11-1.65,7.49ZM567.4,231.3c.3-2.14,3.8-14.9,4.38-15.46,1.37-1.32,4.45-1.09,6.29-1.57.79,1.75-.39,2.24-1.02,3.44-2.24,4.26-6.65,9.62-9.65,13.59ZM590.07,220.42c-.74,1.87-9.86,14.7-11.89,13.4-1.45-.93,7.57-15.52,6.63-18.52,3.74-.04,6.99.73,5.27,5.12ZM598.89,235.94c-.11,1.17-2.43,14.65-5.12,12.61-1.16-.89,2.19-6.38,1.77-8.49-.42-2.12-3.17-2.49-3.8-3.88-.71-1.55,2.07-7.69,3.02-9.68.36-.77.38-3.76,2.38-2.45,2.51,1.65,2,9.05,1.75,11.89Z"/>
            </g>
          </g>
          <g>
            <path class="cls-1" d="M432.83,642.85c-8.16-25.93-5.62-53.07-25.09-75.21-6.57-7.46-17.59-15.46-26.89-18.96-5.24-1.99-10.75-1.67-15.41-4.82-17.82-40.74-42.56-77.69-67.06-114.63-54.16-81.63-110.98-160.08-176.09-233.65-10.82-12.22-35.29-41.56-49.1-47.55-11.37-4.93-17.83,2.08-15.56,13.59,3.82,19.19,25.94,55.4,36.3,73.53,53.66,93.9,118.94,185.12,187.81,268.58,18.09,21.93,39.7,41.57,56.61,64.19-1.12,39.04,21.91,60.88,54.74,76.73,4.73,2.28,36.99,15.95,39.32,15.17,9.76-3.28,2.19-11.36.43-16.96ZM393.17,566.37c8.41,5.59,13.82,16.3,17.59,23.37-1.98,5.32-15.91-12.94-16.69-13.63-6.24-5.5-13.51-8.8-17.73-14.27,1.55-4.29,10.63.42,16.83,4.53ZM237.48,425.73c-56.41-73.68-116.99-157.5-156.99-241.56-3.08-6.48-7.37-14-8.14-20.99,1.85-1.98,2.28.74,3.6,1.95,71.1,65.06,132.22,153.52,187.22,232.49,16.72,24.02,34.16,47.24,49.59,72.1l-27.38,18.47c-17.04-19.88-31.96-41.62-47.9-62.45ZM342.7,555.75l-51.5-59.55c.86-1.42,3.29-1.03,3.75-1.37l22.71-16.45,39.5,65.76c2.43,3.8-12.22,13.22-14.46,11.61ZM417.86,642.76c-.69,1.53-3.08,1.06-4.57.56-5.56-1.85-10.95-4.18-16.13-6.91-18.61-9.81-38.01-23.61-45.01-43.69-2.3-6.59,6.24-8.7,7.89-5.36,2.45,4.97,6.79,11.4,10.27,15.7,12.51,15.51,27.36,30.35,46.22,36.62,1.51.5,1.94,1.76,1.33,3.08Z"/>
            <path class="cls-1" d="M229.97,366.74c-.52,2.89-6.38-2.01-7.04-2.69-28.33-29.27-54.81-74.8-81.19-107.86-7.35-9.21-18.09-19.1-24.66-28.29-1.06-1.48-3.3-4.01-2.14-5.93,1.23-2.05,1.72-1.43,3.24-.63,6.73,3.54,25.83,26.02,31.73,33.01,21.58,25.56,44.04,54.61,62.37,82.39,3.29,4.99,18.56,25.18,17.7,30Z"/>
            <path class="cls-1" d="M255.31,397.94c.9,1.79.34,4.61-1.92,4.74-2.57.14-14.65-14.08-13.3-18.2.69-2.11,4.7-1.07,4.91-.79,2.99,4.13,8.23,10.09,10.32,14.25Z"/>
          </g>
          <g>
            <path class="cls-1" d="M389.98,155.54c-4.07-5.39-11.16-8.36-19.9-8.36-5.77,0-11.93,1.37-17.38,3.87-6.32,2.89-11.64,7.02-16.38,11.25,1.51-9.41,1.87-20.64-2.7-30.39-4.05-8.63-11.49-13.79-19.9-13.79-6.92,0-13.52,3.67-18.1,10.08-9.8,13.67-7.23,30.6-4.82,39.49.39,1.42.87,2.78,1.38,4.09-7.67-4.37-17.47-8.02-26.97-8.02-7.55,0-13.82,2.31-18.61,6.87-7.39,7.02-9.7,17.39-5.74,25.82,5.86,12.47,23.06,17.27,37.93,17.66-9.97,9.74-19.82,25.31-17.78,39.98,1.57,11.38,10.52,19.33,21.74,19.33h.01c.65,0,1.3-.03,1.98-.08,15.85-1.33,28.81-19.16,33.94-34.1,1.03,1.96,2.12,3.95,3.43,5.89,6.77,10.07,18.84,20.82,32.34,20.82,4.22,0,8.31-1.08,12.14-3.2,8.24-4.56,12.69-12.81,12.51-23.22-.23-13.91-8.52-28.13-19.62-33.79l-2.45-1.37c26.64-7.14,33.63-21.96,35.43-28.37,2.93-10.38.28-16.84-2.45-20.44ZM337.15,196.92l-.22.03-.21.07c-1.53.43-2.73,1.44-3.36,2.82-.63,1.4-.59,3.05.11,4.53,1.18,2.51,4.49,3.6,9.02,4.87.95.26,1.84.51,2.38.71,6.79,2.57,22.7,10.35,24.03,27.09.44,5.64-1.07,10.66-4.26,14.11-2.62,2.82-6.07,4.33-10,4.33-2.61,0-5.32-.67-8.08-1.98-9.93-4.7-18.67-17.18-22.18-27.05-.23-.62-.47-1.69-.73-2.74-.59-2.57-1.05-4.33-1.81-5.5-1.03-1.55-2.84-2.51-4.69-2.51-1.4,0-2.7.52-3.67,1.49-1.25,1.22-1.76,3.51-2.69,9.73-.2,1.29-.38,2.51-.51,3.1-2.65,11.42-11.83,30.47-25.21,32.9-.86.16-1.72.24-2.53.24-3.28,0-6.11-1.28-8.2-3.7-2.62-3.02-3.78-7.58-3.1-12.2,1.64-11.32,10.91-23.08,19.38-29.7.46-.36,1.44-1.01,2.46-1.68,5.3-3.49,7.59-5.28,8.14-7.3.44-1.63.16-3.21-.79-4.48-1.02-1.34-2.65-2.12-4.5-2.14h-.07c-1.37,0-3.29.42-5.32.87-1.44.31-2.92.65-3.9.74-2.16.22-4.38.32-6.59.32-10.21,0-19.11-2.3-25.04-6.46-3.48-2.43-5.55-5.68-5.82-9.14-.28-3.45,1.26-7.02,4.33-10.01,3.05-2.97,7.16-4.49,12.18-4.49,9.03,0,18.83,4.76,23.86,7.58.75.43,2.67,1.73,4.52,2.98,6.6,4.5,7.98,5.32,9.25,5.42.17.01.34.01.5.01,2.16,0,3.19-1.18,3.6-1.88,1.45-2.43-.07-5.63-2.04-9.26-.27-.5-.5-.9-.6-1.16-6.83-16.02-7.86-28.38-3.28-38.88,2.34-5.38,7.12-10.79,12.63-10.79,2.59.03,5.42,1.88,7.19,3.6,9.46,9.21,6.42,28.29,3.78,38.85-.27,1.08-.82,2.55-1.34,3.98-.86,2.31-1.68,4.49-1.87,6.22-.19,1.57.28,3.1,1.26,4.21.89,1.01,2.12,1.56,3.48,1.56.4,0,.83-.05,1.25-.16,1.72-.43,3.12-2.15,6.75-7.43.7-1.01,1.36-1.96,1.69-2.39,7.53-9.3,21.22-19.31,33.51-19.31,1.91,0,3.74.24,5.43.74,3.88,1.1,6.38,3.2,7.47,6.24,1.52,4.27.16,10.25-3.55,15.6-8.35,12.01-25.13,15.46-42.03,17.39Z"/>
            <path class="cls-1" d="M353.83,153.5c-8.48,3.88-15.17,10.15-21.79,16.48,2.73-11.75,4.42-25.63-.87-36.92-6.87-14.66-23.81-16.64-33.38-3.29-7.66,10.71-7.74,24.92-4.41,37.23,1.05,3.87,3.04,7.35,3.84,11.26-12.51-9.31-35.7-18.1-48.79-5.68-6.17,5.86-8.87,14.82-5.16,22.73,6.42,13.67,28.86,17.01,42.31,15.95.51.52-4.18,4.03-4.73,4.57-9.5,9.21-19.11,24.11-17.2,37.9,1.45,10.48,10.19,17.82,20.85,16.92,16.65-1.4,30.43-23.45,33.3-38.52,2.31,3.76,4.03,7.81,6.52,11.49,8.59,12.75,25.24,25.45,40.94,16.77,19.88-10.99,10.4-43.38-7.11-52.31l-8.57-4.77c15.8-3.05,35.48-10.99,40.28-28.05,6.88-24.47-17.78-30.13-36.02-21.76ZM381.38,181.06c-9.48,13.63-28.55,16.77-43.92,18.53-1.64.47-2.28,2.1-1.56,3.63,1.02,2.16,7.49,3.28,9.92,4.21,12.94,4.89,24.59,14.73,25.75,29.39,1.25,15.66-11.34,26.14-26.17,19.11-10.55-5-19.73-17.79-23.56-28.59-.7-1.96-1.33-6.26-2.24-7.65-.94-1.42-3.02-1.8-4.23-.6-1.17,1.16-1.94,9.26-2.46,11.53-3.01,13-12.89,32.32-27.35,34.94-11.54,2.1-18.55-7.94-16.97-18.69,1.73-11.92,11.11-24.16,20.37-31.44,1.95-1.52,9.17-5.66,9.68-7.57.51-1.88-.89-3.2-2.73-3.21-1.95-.03-6.48,1.36-8.99,1.6-10.78,1.08-24.34-.2-33.44-6.61-8.58-6.02-9.38-15.91-1.83-23.28,10.46-10.19,28.29-3.48,39.23,2.67,2.27,1.28,11.42,7.96,12.65,8.05,4.33.35-.51-6.84-1.24-8.55-5.5-12.92-9.17-27.5-3.27-41.02,2.57-5.87,8.13-12.49,15.13-12.4,3.33.04,6.72,2.12,9.04,4.38,10.17,9.89,7.65,28.94,4.5,41.43-.71,2.85-2.88,7.39-3.15,9.84-.19,1.65.91,3.13,2.66,2.7,1.44-.36,5.63-7.2,7-8.9,8.9-11.01,26.93-23.73,41.78-19.49,12.85,3.68,11.81,16.69,5.38,25.97Z"/>
            <circle class="cls-1" cx="316.16" cy="199.08" r="10.39"/>
          </g>
          <g>
            <path class="cls-1" d="M944.41,162.68c-1.55-4.82-5.79-8.67-11.97-10.85-4.07-1.42-8.76-1.99-13.23-1.57-5.19.47-9.97,2.06-14.37,3.87,3.4-6.28,6.44-14.11,5.63-22.12-.71-7.1-4.68-12.59-10.62-14.68-4.89-1.72-10.46-.77-15.29,2.62-10.31,7.22-12.69,19.82-13.2,26.68-.08,1.1-.07,2.18-.04,3.23-4.33-4.99-10.34-10-17.05-12.35-5.32-1.88-10.32-1.8-14.84.23-6.96,3.12-11.17,9.86-10.46,16.8,1.03,10.27,11.99,17.92,22.39,21.88-9.46,4.41-20.27,12.94-22.48,23.82-1.71,8.43,2.63,16.26,10.56,19.04.47.16.94.31,1.42.43,11.52,3,25.09-6.38,32.42-15.64.24,1.64.52,3.32.95,5,2.3,8.79,8.13,19.37,17.67,22.73,2.97,1.05,6.13,1.3,9.35.75,6.95-1.17,12.14-5.89,14.6-13.29,3.29-9.88.97-21.97-5.46-28.72l-1.4-1.57c20.58,1.57,29.19-7.16,32.05-11.24,4.64-6.6,4.38-11.83,3.35-15.04ZM930.82,176.93c-8.87,6.41-21.57,4.68-33.98,1.85l-.16-.04h-.17c-1.18-.08-2.27.34-3.06,1.16-.79.83-1.18,2-1.06,3.23.22,2.07,2.29,3.66,5.17,5.67.61.42,1.17.82,1.49,1.09,4.15,3.49,13.47,12.94,10.24,25.09-1.07,4.1-3.4,7.26-6.5,8.91-2.55,1.34-5.36,1.55-8.13.56-1.84-.65-3.59-1.79-5.22-3.39-5.83-5.79-8.92-16.76-8.94-24.61-.01-.5.08-1.32.17-2.11.2-1.96.32-3.32.07-4.34-.34-1.34-1.37-2.47-2.69-2.93-.98-.35-2.03-.3-2.96.13-1.18.56-2.11,2.04-4.31,6.21-.46.86-.89,1.68-1.13,2.06-4.7,7.42-15.91,18.59-25.97,16.97-.65-.11-1.26-.26-1.84-.46-2.31-.82-3.99-2.42-4.87-4.64-1.1-2.78-.79-6.3.83-9.39,3.96-7.58,13.44-13.57,21.05-16.15.42-.15,1.26-.35,2.16-.58,4.6-1.16,6.67-1.84,7.57-3.13.71-1.03.9-2.23.54-3.36-.38-1.2-1.34-2.15-2.63-2.62h-.05c-.97-.36-2.43-.54-3.98-.73-1.09-.12-2.22-.27-2.93-.44-1.59-.38-3.18-.86-4.73-1.4-7.22-2.54-12.93-6.37-16.07-10.78-1.85-2.58-2.5-5.39-1.84-7.89.66-2.53,2.63-4.65,5.54-5.99s6.17-1.4,9.72-.15c6.37,2.23,12.11,8.02,14.96,11.26.43.48,1.45,1.88,2.45,3.23,3.53,4.82,4.31,5.74,5.17,6.12.12.05.24.11.35.13,1.53.54,2.55-.04,3.02-.43,1.61-1.36,1.34-3.99.85-7.04-.07-.42-.13-.77-.15-.97-.83-13.01,1.49-21.99,7.34-28.26,2.98-3.21,7.71-5.86,11.6-4.49,1.83.67,3.36,2.67,4.18,4.33,4.41,8.86-2.47,21.58-6.98,28.37-.44.69-1.21,1.6-1.94,2.47-1.18,1.41-2.3,2.76-2.86,3.92-.51,1.08-.58,2.27-.15,3.29.38.93,1.12,1.63,2.07,1.96.3.09.6.16.93.2,1.32.12,2.73-.74,6.6-3.58.74-.54,1.45-1.05,1.79-1.26,7.62-4.7,19.78-8.37,28.45-5.32,1.34.47,2.57,1.1,3.66,1.87,2.46,1.73,3.71,3.84,3.72,6.25.01,3.4-2.43,7.28-6.38,10.13Z"/>
            <path class="cls-1" d="M919.39,152.26c-6.95.63-13.23,3.4-19.46,6.22,4.84-7.62,9.47-17,8.55-26.27-1.21-12.06-12.69-17.66-22.75-10.6-8.06,5.64-11.64,15.66-12.35,25.17-.21,3,.32,5.94-.08,8.91-6.53-9.68-20.71-21.64-33.03-16.11-5.81,2.59-9.93,8.25-9.27,14.76,1.14,11.25,16.14,19.16,25.91,21.76.23.51-3.96,1.81-4.48,2.06-8.99,4.14-19.47,12.27-21.56,22.48-1.57,7.77,2.77,15.11,10.52,17.12,12.1,3.15,27.3-9,33.06-18.94.7,3.24.91,6.52,1.75,9.73,2.9,11.14,11.5,24.23,24.74,22,16.76-2.82,18.1-28.05,7.96-38.69l-4.87-5.5c11.92,1.77,27.78,1.05,35.39-9.8,10.94-15.56-5.07-25.68-20.02-24.3ZM932.01,178.55c-10.07,7.28-24.33,4.76-35.62,2.19-1.26-.08-2.12.91-2,2.16.19,1.79,4.48,4.18,5.97,5.44,7.92,6.67,13.71,16.5,10.89,27.15-3.01,11.36-14.5,15.63-23.21,6.99-6.21-6.16-9.52-17.46-9.54-26.02-.01-1.56.62-4.76.31-5.97-.31-1.24-1.68-2.02-2.84-1.46-1.12.52-3.67,6.05-4.6,7.53-5.35,8.43-17.12,19.61-27.98,17.87-8.67-1.38-11.13-10.2-7.35-17.4,4.18-7.98,13.86-14.31,22.19-17.14,1.76-.59,7.88-1.72,8.71-2.94.83-1.2.16-2.47-1.13-2.94-1.37-.51-4.91-.66-6.75-1.1-7.86-1.92-17.12-6.18-21.96-12.97-4.56-6.37-2.67-13.56,4.49-16.88,9.91-4.6,20.83,4.56,27.04,11.61,1.28,1.46,6.07,8.45,6.92,8.83,2.97,1.32,1.34-4.96,1.25-6.34-.67-10.48.35-21.68,7.88-29.76,3.27-3.52,8.83-6.8,13.75-5.01,2.35.86,4.23,3.17,5.31,5.34,4.72,9.52-1.79,22.32-7.11,30.37-1.21,1.83-3.86,4.5-4.66,6.17-.54,1.12-.12,2.43,1.21,2.55,1.1.11,5.77-3.68,7.16-4.54,9-5.55,24.89-10.07,34.31-3.37,8.17,5.78,4.21,14.7-2.63,19.65Z"/>
            <circle class="cls-1" cx="881.49" cy="175.09" r="7.77"/>
          </g>
          <g>
            <path class="cls-1" d="M907.42,531.21c-2.2-6.41-8.01-11.45-16.34-14.18-5.48-1.8-11.79-2.42-17.75-1.75-6.92.78-13.28,3.04-19.12,5.59,4.38-8.49,8.22-19.07,6.92-29.77-1.16-9.5-6.63-16.73-14.64-19.35-6.59-2.16-14.02-.74-20.39,3.92-13.6,9.97-16.45,26.89-16.93,36.11-.08,1.46-.03,2.92.04,4.31-5.94-6.56-14.13-13.1-23.18-16.07-7.18-2.35-13.87-2.11-19.86.73-9.23,4.37-14.68,13.53-13.53,22.79,1.69,13.71,16.57,23.65,30.6,28.67-12.54,6.17-26.79,17.9-29.43,32.52-2.06,11.33,3.98,21.69,14.68,25.2.63.2,1.26.39,1.92.54,15.51,3.68,33.42-9.25,42.95-21.85.39,2.18.81,4.42,1.44,6.67,3.31,11.71,11.42,25.71,24.29,29.93,4.02,1.32,8.24,1.57,12.55.75,9.27-1.77,16.09-8.24,19.18-18.21,4.11-13.32.67-29.46-8.13-38.32l-1.91-2.06c27.59,1.52,38.89-10.42,42.6-15.95,6.02-8.96,5.54-15.95,4.06-20.23ZM889.63,550.67c-11.69,8.83-28.75,6.87-45.44,3.44l-.23-.05h-.22c-1.6-.07-3.04.52-4.07,1.64-1.05,1.14-1.53,2.71-1.33,4.34.35,2.77,3.16,4.84,7.08,7.46.82.55,1.6,1.06,2.03,1.42,5.67,4.56,18.4,16.93,14.42,33.3-1.33,5.51-4.34,9.81-8.47,12.11-3.37,1.87-7.12,2.22-10.87.99-2.47-.82-4.85-2.3-7.07-4.41-7.98-7.58-12.42-22.18-12.67-32.69-.01-.66.08-1.77.17-2.84.23-2.63.35-4.46-.01-5.81-.5-1.8-1.91-3.28-3.68-3.86-1.33-.44-2.73-.34-3.96.27-1.56.78-2.77,2.8-5.59,8.43-.59,1.17-1.14,2.29-1.46,2.8-6.09,10.07-20.78,25.32-34.28,23.45-.87-.12-1.71-.31-2.49-.56-3.12-1.02-5.42-3.12-6.65-6.06-1.55-3.71-1.22-8.41.86-12.61,5.11-10.25,17.61-18.55,27.74-22.23.55-.2,1.68-.5,2.86-.82,6.14-1.68,8.9-2.66,10.05-4.41.91-1.41,1.14-3.01.63-4.52-.55-1.59-1.87-2.85-3.62-3.44l-.07-.03c-1.3-.43-3.27-.62-5.34-.82-1.46-.15-2.98-.3-3.95-.51-2.12-.48-4.27-1.06-6.37-1.76-9.73-3.19-17.48-8.14-21.83-13.96-2.55-3.41-3.51-7.15-2.69-10.52.82-3.39,3.4-6.29,7.26-8.18,3.84-1.88,8.21-2.04,13-.47,8.6,2.82,16.44,10.4,20.35,14.68.59.63,2,2.47,3.36,4.25,4.89,6.34,5.95,7.55,7.11,8.04.16.07.32.13.47.17,2.07.69,3.41-.13,4.03-.67,2.14-1.87,1.69-5.39.94-9.45-.11-.56-.19-1.02-.22-1.3-1.49-17.38,1.37-29.47,9.03-38.05,3.9-4.38,10.15-8.05,15.4-6.33,2.46.85,4.57,3.49,5.73,5.68,6.13,11.72-2.73,28.96-8.55,38.18-.59.94-1.57,2.18-2.53,3.36-1.55,1.94-3,3.75-3.72,5.35-.66,1.44-.71,3.04-.11,4.39.54,1.24,1.53,2.15,2.82,2.57.39.13.81.21,1.25.24,1.76.13,3.64-1.06,8.74-4.96.98-.75,1.91-1.45,2.37-1.75,10.07-6.5,26.23-11.77,37.94-7.93,1.81.59,3.47,1.4,4.95,2.41,3.33,2.26,5.08,5.04,5.16,8.27.11,4.54-3.05,9.81-8.27,13.75Z"/>
            <path class="cls-1" d="M873.64,517.96c-9.3,1.06-17.62,4.93-25.89,8.9,6.26-10.35,12.2-23.04,10.7-35.43-1.96-16.13-17.48-23.29-30.76-13.57-10.64,7.8-15.16,21.32-15.83,34.07-.2,4.02.59,7.94.13,11.93-9-12.78-28.33-28.4-44.67-20.67-7.71,3.66-13.08,11.34-12.02,20.04,1.85,15.03,22.16,25.21,35.31,28.41.32.66-5.24,2.54-5.93,2.86-11.93,5.81-25.74,16.99-28.22,30.72-1.9,10.44,4.11,20.16,14.56,22.63,16.29,3.87,36.3-12.83,43.75-26.27,1.02,4.3,1.41,8.68,2.62,12.97,4.19,14.84,16.07,32.13,33.73,28.77,22.38-4.26,23.47-38.07,9.58-52.05l-6.68-7.22c16.01,2.04,37.21.62,47.12-14.13,14.21-21.14-7.51-34.24-27.5-31.97ZM891.26,552.82c-13.28,10.03-32.43,7.06-47.62,3.92-1.71-.07-2.82,1.28-2.62,2.97.3,2.38,6.1,5.46,8.13,7.1,10.79,8.71,18.83,21.73,15.35,36.05-3.71,15.31-18.98,21.34-30.88,10.03-8.49-8.06-13.24-23.12-13.51-34.58-.05-2.1.69-6.38.24-8-.44-1.64-2.31-2.65-3.83-1.88-1.48.73-4.74,8.2-5.95,10.2-6.92,11.44-22.36,26.74-36.96,24.73-11.65-1.61-15.19-13.36-10.34-23.1,5.38-10.81,18.16-19.54,29.23-23.56,2.34-.85,10.5-2.54,11.59-4.19,1.07-1.63.15-3.32-1.59-3.91-1.87-.63-6.6-.74-9.07-1.28-10.59-2.35-23.1-7.81-29.78-16.75-6.28-8.41-3.95-18.09,5.54-22.74,13.14-6.44,28.04,5.52,36.53,14.8,1.76,1.92,8.39,11.15,9.53,11.63,4,1.68,1.65-6.68,1.49-8.52-1.2-14.02-.13-29.06,9.7-40.08,4.27-4.81,11.64-9.35,18.29-7.1,3.14,1.09,5.74,4.13,7.23,6.99,6.6,12.61-1.76,29.96-8.66,40.87-1.56,2.5-5.04,6.14-6.07,8.39-.69,1.51-.09,3.28,1.71,3.4,1.48.11,7.61-5.09,9.45-6.29,11.91-7.69,33.06-14.18,45.87-5.48,11.09,7.53,6.03,19.58-3,26.4Z"/>
            <circle class="cls-1" cx="823.52" cy="549.6" r="10.41"/>
          </g>
        </g>
      </g>
    </g>
  </g>
</svg>