<?xml version="1.0" encoding="utf-8"?>
<!-- Generator: Adobe Illustrator 28.2.0, SVG Export Plug-In . SVG Version: 6.00 Build 0)  -->
<svg version="1.1" id="Layer_2_00000171701895955828940350000015416226590387653558_"
	 xmlns="http://www.w3.org/2000/svg" xmlns:xlink="http://www.w3.org/1999/xlink" x="0px" y="0px" viewBox="0 0 793.3 463.1"
	 style="enable-background:new 0 0 793.3 463.1;" xml:space="preserve">
<style type="text/css">
	.st0{fill:#FFFFFF;stroke:#000000;stroke-width:6.04;stroke-miterlimit:10;}
</style>
<g>
	<g>
		<path class="st0" d="M42.5,3h83.9c21.8,0,39.5,17.7,39.5,39.5v83.9c0,21.8-17.7,39.5-39.5,39.5H42.5C20.7,166,3,148.3,3,126.4
			V42.5C3,20.7,20.7,3,42.5,3z"/>
		<g>
			<path d="M61.8,88.2H49v19.6c0,2.8-0.7,4.9-2,6.4c-1.3,1.4-3,2.2-5,2.2s-3.8-0.7-5.1-2.2c-1.3-1.4-1.9-3.5-1.9-6.3V54.6
				c0-3.1,0.7-5.3,2.1-6.6c1.4-1.3,3.7-2,6.8-2h18c5.3,0,9.4,0.4,12.3,1.2c2.8,0.8,5.3,2.1,7.3,3.9c2.1,1.8,3.6,4.1,4.7,6.7
				s1.6,5.6,1.6,8.9c0,7.1-2.2,12.4-6.5,16C76.9,86.4,70.4,88.2,61.8,88.2L61.8,88.2z M58.4,56.5H49v21.1h9.4c3.3,0,6.1-0.3,8.3-1
				s3.9-1.8,5.1-3.4c1.2-1.6,1.8-3.6,1.8-6.2c0-3-0.9-5.5-2.7-7.5C68.8,57.5,64.7,56.5,58.4,56.5L58.4,56.5z"/>
			<path d="M137.1,99.5c0,3.6-0.9,6.6-2.6,9.1c-1.7,2.5-4.3,4.4-7.7,5.8c-3.4,1.3-7.5,2-12.3,2s-8.6-0.7-11.9-2.1s-5.7-3.2-7.3-5.3
				c-1.6-2.1-2.4-4.3-2.4-6.4c0-1.4,0.5-2.6,1.5-3.6s2.3-1.5,3.8-1.5c1.3,0,2.4,0.3,3.1,1c0.7,0.7,1.4,1.6,2.1,2.8
				c1.3,2.3,2.9,4,4.8,5.2c1.8,1.1,4.3,1.7,7.5,1.7c2.6,0,4.7-0.6,6.3-1.7s2.5-2.5,2.5-3.9c0-2.3-0.9-3.9-2.6-5c-1.7-1-4.5-2-8.5-3
				c-4.4-1.1-8.1-2.3-10.8-3.5s-5-2.8-6.7-4.8s-2.5-4.4-2.5-7.3c0-2.6,0.8-5,2.3-7.3s3.8-4.1,6.8-5.5s6.6-2,10.9-2
				c3.3,0,6.3,0.3,9,1c2.7,0.7,4.9,1.6,6.7,2.8c1.8,1.2,3.1,2.4,4.1,3.9c0.9,1.4,1.4,2.8,1.4,4.2c0,1.5-0.5,2.7-1.5,3.6
				s-2.4,1.4-4.2,1.4c-1.3,0-2.4-0.4-3.4-1.1s-2-1.9-3.2-3.4c-1-1.3-2.1-2.3-3.4-3s-3.1-1.1-5.4-1.1s-4.3,0.5-5.8,1.5
				s-2.3,2.2-2.3,3.7c0,1.3,0.6,2.5,1.7,3.3s2.7,1.6,4.6,2.2s4.6,1.3,7.9,2.1c4,1,7.3,2.1,9.8,3.5c2.5,1.3,4.4,2.9,5.8,4.8
				C136.5,95.1,137.1,97.2,137.1,99.5L137.1,99.5z"/>
		</g>
	</g>
	<g>
		<path class="st0" d="M254,3h83.9c21.8,0,39.5,17.7,39.5,39.5v83.9c0,21.8-17.7,39.5-39.5,39.5H254c-21.8,0-39.5-17.7-39.5-39.5
			V42.5C214.5,20.7,232.1,3,254,3z"/>
		<g>
			<path d="M298.7,107.4l-3.3-8.7h-28.1l-3.3,8.9c-1.3,3.5-2.4,5.8-3.3,7c-0.9,1.2-2.4,1.8-4.5,1.8c-1.8,0-3.3-0.7-4.7-1.9
				c-1.4-1.3-2-2.8-2-4.4c0-0.9,0.2-1.9,0.5-2.9s0.8-2.4,1.6-4.2L269.2,58c0.5-1.3,1.1-2.8,1.8-4.7c0.7-1.8,1.5-3.3,2.3-4.5
				c0.8-1.2,1.9-2.2,3.2-2.9c1.3-0.7,2.9-1.1,4.8-1.1s3.6,0.4,4.9,1.1c1.3,0.7,2.4,1.7,3.2,2.9c0.8,1.2,1.5,2.4,2,3.8
				c0.5,1.3,1.2,3.1,2.1,5.4l18.1,44.7c1.4,3.4,2.1,5.9,2.1,7.4s-0.7,3.1-2,4.4s-3,2-4.8,2c-1.1,0-2-0.2-2.8-0.6
				c-0.8-0.4-1.5-0.9-2-1.6c-0.5-0.7-1.1-1.7-1.7-3.1C299.7,109.7,299.2,108.4,298.7,107.4L298.7,107.4z M271,88.1h20.7l-10.4-28.6
				L271,88.1z"/>
			<path d="M327,58c-1.8,0-3.3-0.5-4.6-1.7c-1.3-1.1-1.9-2.7-1.9-4.7c0-1.8,0.6-3.3,2-4.5s2.8-1.8,4.6-1.8s3.1,0.5,4.4,1.6
				s1.9,2.6,1.9,4.7s-0.6,3.5-1.9,4.7C330.3,57.4,328.8,58,327,58L327,58z M333.4,71.3v37.2c0,2.6-0.6,4.5-1.8,5.8s-2.8,2-4.7,2
				s-3.4-0.7-4.6-2s-1.8-3.3-1.8-5.8V71.7c0-2.6,0.6-4.5,1.8-5.8s2.7-1.9,4.6-1.9s3.5,0.6,4.7,1.9C332.8,67.2,333.4,69,333.4,71.3
				L333.4,71.3z"/>
		</g>
	</g>
	<g>
		<path class="st0" d="M465.4,3h83.9c21.8,0,39.5,17.7,39.5,39.5v83.9c0,21.8-17.7,39.5-39.5,39.5h-83.9
			c-21.8,0-39.5-17.7-39.5-39.5V42.5C425.9,20.7,443.6,3,465.4,3z"/>
		<g>
			<path d="M496.7,107.4l-3.3-8.7h-28.1l-3.3,8.9c-1.3,3.5-2.4,5.8-3.3,7c-0.9,1.2-2.4,1.8-4.5,1.8c-1.8,0-3.3-0.7-4.7-1.9
				s-2-2.8-2-4.4c0-0.9,0.2-1.9,0.5-2.9s0.8-2.4,1.6-4.2L467.2,58c0.5-1.3,1.1-2.8,1.8-4.7c0.7-1.8,1.5-3.3,2.3-4.5
				c0.8-1.2,1.9-2.2,3.2-2.9c1.3-0.7,2.9-1.1,4.8-1.1s3.6,0.4,4.9,1.1c1.3,0.7,2.4,1.7,3.2,2.9c0.8,1.2,1.5,2.4,2,3.8
				c0.5,1.3,1.2,3.1,2.1,5.4l18.1,44.7c1.4,3.4,2.1,5.9,2.1,7.4s-0.7,3.1-2,4.4s-3,2-4.8,2c-1.1,0-2-0.2-2.8-0.6
				c-0.8-0.4-1.5-0.9-2-1.6c-0.5-0.7-1.1-1.7-1.7-3.1C497.7,109.7,497.1,108.4,496.7,107.4L496.7,107.4z M468.9,88.1h20.7
				l-10.4-28.6L468.9,88.1z"/>
			<path d="M553.8,93.3h-25.2c0,2.9,0.6,5.5,1.8,7.7c1.2,2.2,2.7,3.9,4.6,5.1c1.9,1.1,4,1.7,6.3,1.7c1.5,0,3-0.2,4.2-0.5
				c1.3-0.4,2.5-0.9,3.7-1.7s2.3-1.6,3.3-2.5c1-0.9,2.3-2.1,3.9-3.6c0.7-0.6,1.6-0.8,2.8-0.8c1.3,0,2.4,0.4,3.2,1.1
				c0.8,0.7,1.2,1.8,1.2,3.1c0,1.2-0.5,2.5-1.4,4.1c-0.9,1.6-2.3,3.1-4.1,4.5s-4.2,2.6-6.9,3.6c-2.8,0.9-6,1.4-9.6,1.4
				c-8.3,0-14.7-2.4-19.3-7.1s-6.9-11.1-6.9-19.2c0-3.8,0.6-7.3,1.7-10.6s2.8-6.1,5-8.4c2.2-2.3,4.8-4.1,8-5.4
				c3.2-1.2,6.7-1.9,10.6-1.9c5,0,9.4,1.1,13,3.2c3.6,2.1,6.3,4.9,8.1,8.2c1.8,3.4,2.7,6.8,2.7,10.3c0,3.2-0.9,5.3-2.8,6.3
				C559.8,92.8,557.1,93.3,553.8,93.3L553.8,93.3z M528.5,86h23.4c-0.3-4.4-1.5-7.7-3.6-9.9s-4.8-3.3-8.1-3.3s-5.8,1.1-7.9,3.3
				S529,81.7,528.5,86L528.5,86z"/>
		</g>
	</g>
</g>
<g>
	<path class="st0" d="M51.2,227.1h278c26.6,0,48.2,21.6,48.2,48.2v0.4c0,26.6-21.6,48.2-48.2,48.2h-278C24.6,323.8,3,302.2,3,275.6
		v-0.4C3,248.6,24.6,227.1,51.2,227.1z"/>
	<g>
		<path d="M27.3,294.5c-1.9,0-2.8-1.3-2.8-2.4c0-0.5,0.1-0.8,0.3-1.2c4-9,14.2-33.1,15.5-36.2c0.7-1.5,1.6-2.1,3.1-2.1
			c2.2,0,3.2,1.6,3.8,3.7c3.7,10.5,8.7,23.2,15.2,34.3c0.2,0.3,0.3,0.7,0.3,1c0,1.5-1.4,2.4-2.9,2.4c-1.3,0-2.5-0.4-3.1-1.5
			c-1.7-2.9-3.5-6.6-5.3-10.6c-3.4-0.4-6-0.6-8.7-0.6c-1.8,0-3.4,0.1-5,0.1c-0.7,0-1.4-0.3-2-0.8c-1.6,4.2-3.3,8.2-5,11.9
			C29.9,294.3,28.7,294.5,27.3,294.5L27.3,294.5z M48.9,276.3c-2-4.9-4-10.1-5.7-15c-1.9,4.8-3.8,9.8-5.8,14.8
			c1-0.3,2.3-0.4,3.7-0.4C43.9,275.8,46.8,276,48.9,276.3L48.9,276.3z"/>
		<path d="M71.3,265c1.7,0,2.7,0.8,2.7,2.2c0,0.7,0,1.8-0.2,3.1c1.9-3.4,4.5-5.2,7.7-5.2c1.4,0,3.2,0.3,5.2,1.5
			c0.8,0.5,1.4,1.2,1.2,2.7c-0.2,1.8-1.2,2.7-2.6,2.7c-0.7,0-1.2-0.3-1.8-0.6c-0.7-0.4-1.5-0.8-2.6-0.8c-3.8,0-6,4.1-7.4,9.9
			c-0.1,4.6-0.2,8.1-0.2,11c-0.1,1.6-1.7,2.4-2.9,2.4c-2.9,0-3.3-2.3-3.3-4.8c0-2,0.2-6.1,0.6-8.2l0.4-13.2
			C68.1,265.8,69.3,265,71.3,265L71.3,265z"/>
		<path d="M91,268.4c0-1.5,1.1-2.3,2.2-2.3l2.1-0.1c0.3-2.3,0.6-4.8,0.7-5.5c0.2-1.9,1.5-2.5,3-2.5s3.1,0.7,2.9,2.5
			c-0.1,1.1-0.4,3.1-0.7,5.1l5.9-0.4c1.6-0.1,2.3,1.2,2.3,2.4c0,1.3-0.7,2.4-2.2,2.5l-6.7,0.4c-0.5,3.8-1,8-1,10.6
			c0.1,4.6,1.1,7,2.6,7c1.1,0,2.1-1.1,2.3-1.5c0.6-1.1,1.4-1.6,2.3-1.6c1.5,0,2.7,1.1,2.7,2.5c0,0.8-0.4,1.6-0.9,2.3
			c-1.5,2.3-4.3,3.8-7,3.8c-6.3,0-7.8-7.2-7.8-12.7c0-3.3,0.4-6.7,0.9-10l-1.3,0.1C91.8,271.1,91,269.8,91,268.4L91,268.4z"/>
		<path d="M135.2,253.9c0.9,0,1.5,0.1,2.3,0.6c1.5-0.4,3.8-0.5,5.4-0.5c10.9,0,21.2,6.6,21.2,18.7c0,18.8-15.6,20.8-29.9,20.8h-0.4
			c-1.6,0-2.8-0.9-2.7-2.5c0.9-10.1,1.5-25.1,1.3-34.1C132.5,254.8,133.8,253.9,135.2,253.9L135.2,253.9z M158,272.8
			c0-8-6.1-13.7-15.1-13.7c-1.5,0-2.9,0.1-4.6,0.4c0.1,8.2-0.4,19.7-1.1,28.5C151.9,287.7,158,283.8,158,272.8L158,272.8z"/>
		<path d="M174,264.9c1.8,0,3.1,0.9,2.9,2.8c-1.2,9.8-0.8,16.5-1.3,23.5c-0.1,1.8-1.2,2.6-2.8,2.6c-2.1,0-3.1-1-3-3.2
			c0.3-3.6,0.3-17.7,1.4-23.9C171.5,265.5,172.6,264.9,174,264.9L174,264.9z M174.2,251.8c2.3,0,3.9,1.5,3.9,3.8
			c0,2-1.6,3.5-3.5,3.5c-2.7,0-4.2-1.4-4.2-3.8C170.3,253.4,171.8,251.8,174.2,251.8L174.2,251.8z"/>
		<path d="M187.8,265.8c1.5,0,2.8,0.8,2.8,2.2c-0.1,0.9-0.1,2.2-0.1,3.8c2.3-4.8,6.3-7.2,9.6-7.2c1.5,0,3.5,0.5,4.5,1.3
			c0.7,0.6,1,1.3,1,2.3c0,1.9-1.1,2.9-2.7,2.9c-1.3,0-1.9-0.9-3.5-0.9c-2.8,0-5.3,2.4-6.6,5.2c-1.6,3.7-2.5,9-3,16.4
			c-0.1,1.5-1.4,2.3-3.4,2.3c-1.3,0-2.7-0.7-2.6-2.5c0.3-7.2,0.6-15.8,0.9-23C184.6,266.7,185.8,265.8,187.8,265.8L187.8,265.8z"/>
		<path d="M207.2,280c0-7.5,5.8-14.7,13.6-14.7c4.4,0,7.6,2.8,7.6,7.1c0.1,4.8-4.1,10.4-14.9,11.1c0.9,3.1,3,5,6,5
			c2.7,0,5.1-0.9,7.2-3.5c0.9-1,1.5-1.5,2.3-1.5c1.2,0,2.2,1.2,2.2,2.6c0,0.9-0.6,1.9-1.9,3.3c-2.6,2.7-6.2,4.2-9.9,4.2
			C211.9,293.4,207.2,287.6,207.2,280L207.2,280z M213.1,278.8c5.4-0.2,9.8-3,9.8-6.5c0-1.4-0.9-2.5-2.6-2.4
			C216.9,269.9,213.5,273.5,213.1,278.8L213.1,278.8z"/>
		<path d="M254.9,273.4c-1.9,0-3.2-3.1-6.5-3c-3.5,0.1-7,5.5-7,11.5c0,3.7,2.1,6.8,5.3,6.8c1.4,0,3.2-0.8,4.3-1.6s1.7-1.6,2.7-1.6
			c1.1,0,2.5,1.4,2.5,2.9c0,0.7-0.4,1.2-1,1.8c-2.7,2.6-5.7,3.7-8.8,3.7c-6,0-11-4.3-11-11.9c0-8.4,5.6-16.5,13.1-16.5
			c3.4,0,6.6,1.8,7.9,3.3c0.8,0.9,1,1.5,1,2.1C257.5,272.1,256.1,273.4,254.9,273.4L254.9,273.4z"/>
		<path d="M261.5,268.4c0-1.5,1.1-2.3,2.2-2.3l2-0.1c0.3-2.3,0.6-4.8,0.7-5.5c0.1-1.9,1.5-2.5,3-2.5s3.1,0.7,2.9,2.5
			c0,1.1-0.4,3.1-0.7,5.1l5.9-0.4c1.6-0.1,2.3,1.2,2.3,2.4c0,1.3-0.7,2.4-2.2,2.5l-6.7,0.4c-0.5,3.8-1,8-1,10.6c0,4.6,1.1,7,2.6,7
			c1.1,0,2-1.1,2.3-1.5c0.6-1.1,1.4-1.6,2.3-1.6c1.5,0,2.7,1.1,2.7,2.5c0,0.8-0.4,1.6-0.9,2.3c-1.5,2.3-4.3,3.8-7,3.8
			c-6.3,0-7.8-7.2-7.8-12.7c0-3.3,0.4-6.7,0.9-10l-1.3,0.1C262.3,271.1,261.5,269.8,261.5,268.4L261.5,268.4z"/>
		<path d="M288.6,251.3c1.5,0,4.2,1.3,4.2,3.5c0,1.8-1.3,3.5-3.3,3.5c-2,0-4.8-1.3-4.8-3.8C284.7,252.9,286.6,251.3,288.6,251.3
			L288.6,251.3z M288.2,265.3c1.3,0,2.8,0.7,2.7,2.3c-0.2,5-0.1,12.6,0.6,17.6c0.4,2.9,0.8,4.7,0.8,5.9c0,1.4-0.7,2.4-2.6,2.4
			c-1,0-2.2-0.2-2.7-1.4c-1.1-2.3-2-11.3-2-17.9c0-3.1,0-5.2,0.1-6.6C285.2,266,286.6,265.3,288.2,265.3L288.2,265.3z"/>
		<path d="M316.7,266.9c3.2,2.6,4.6,6.9,4.6,11.4c0,7.5-4,15-11.5,15c-8,0-13-6.5-13-14.1c0-7.2,4.4-14.2,12.9-14.2
			C312.1,264.9,315.2,265.6,316.7,266.9L316.7,266.9z M309.7,288.2c4.1,0,5.7-5.2,5.7-9.5c0-4.1-1.3-6.8-3.4-8.2
			c-0.8-0.3-1.6-0.3-2.4-0.3c-4.5,0-6.8,4.2-6.8,8.7C302.8,283.6,305.2,288.2,309.7,288.2z"/>
		<path d="M330.9,264.7c1.5,0,2.7,0.9,2.7,2.2c0,0.7-0.4,2.8-0.5,4.4c2.3-4.1,5.3-6.4,9.3-6.4c5.8,0,8.6,4.8,8.6,11.9
			c0,5.2-1.4,10-1.4,14.2c0,1.9-1.4,2.5-2.8,2.5c-1.6,0-3.1-0.7-3.1-2.4c0-5,1.4-9.1,1.4-14.3s-2-6.6-4.2-6.6c-3.1,0-5.7,3.9-7.6,9
			c0,5.1-0.1,8.9-0.3,11.7c0,1.5-1.5,2.4-3.3,2.4c-2.4,0-3-2-3-4.3c0-2.7,0.1-6.2,0.7-9c-0.1-7.5-0.1-10.3,0.5-13.4
			C328.2,265.1,329.8,264.7,330.9,264.7L330.9,264.7z"/>
	</g>
</g>
<g>
	<path class="st0" d="M51.2,363.3h278c26.6,0,48.2,21.6,48.2,48.2v0.4c0,26.6-21.6,48.2-48.2,48.2h-278C24.6,460,3,438.5,3,411.9
		v-0.4C3,384.9,24.6,363.3,51.2,363.3z"/>
	<g>
		<path d="M47.6,430.2c-2,0-2.9-1.4-2.9-2.4c0-0.5,0.2-0.8,0.3-1.2c12.9-27.5,14.6-31.8,16.6-36c0.6-1.4,1.8-1.8,3.2-1.8
			c1.8,0,3.1,0.9,3.9,3c1.7,4.9,5.1,12.3,8.6,19.7c0.2,0,0.3,0,0.5,0c1.3,0,2.6,1,2.6,2.8c0,0.9-0.4,1.5-0.8,2
			c1.8,3.9,3.5,7.5,4.9,10.6c0.2,0.4,0.3,0.7,0.3,1c0,1.3-1.1,2.3-3.1,2.3c-1.8,0-2.7-0.8-3.4-2.3c-1.3-2.9-3-6.7-4.7-10.6
			c-6.1,0-12.3,0.3-17.8,0.8c-1.6,3.6-3.1,7.1-4.7,10.4C50.3,429.8,49.2,430.2,47.6,430.2L47.6,430.2z M58,412.2
			c3.2-0.1,8.5-0.4,13-0.6c-2.3-5.4-4.6-10.8-6.3-15C62.5,401.7,60.2,407,58,412.2L58,412.2z"/>
		<path d="M109.4,387.2c1.9,0,3.1,0.8,3.1,4.2c0,7.6-1.6,15.2-1.6,22.8c0,6.3,1.5,10.1,3.8,10.8c1.1,0.3,1.7,1.2,1.7,2.5
			c0,1.6-1,2.7-2.9,2.7c-3,0-5.6-1.8-7.2-5.6c-1.5,3.1-4.6,5.1-7.7,5.1c-6.3,0-11.1-5.6-11.1-14s6.2-14.9,13.1-14.9
			c1.8,0,3.5,0.5,5,1.7c0.6-4.8,1-9.5,0.8-13C106.3,388.1,107.8,387.2,109.4,387.2z M99.1,424.6c3,0,5-2.8,5.8-8.3
			c-0.2-2.5-0.1-6.3,0.2-8.5c-1.3-1.2-2.7-1.9-4.3-1.9c-3.8,0-7.4,4.3-7.4,9.7C93.5,420.5,95.8,424.6,99.1,424.6L99.1,424.6z"/>
		<path d="M120.5,402.2c0.8,0,1.7,0.1,2.3,1.1c2.6,4.7,4.6,11.8,6.2,19.3c3-7.3,5.3-13.4,8.1-19.9c0.4-1,1.1-1.3,2.3-1.3
			c1.3,0,3,0.7,3,2.1c-0.1,1.4-1.6,5.1-2.4,6.7c-1.5,3.6-5.1,11.6-7.3,16.3c-1.6,3.4-3.3,3.7-4.8,3.7c-1.2,0-2.5-0.7-2.8-2.3
			c-1.6-7.1-4.1-14.5-7.1-22.1c-0.2-0.4-0.2-0.7-0.2-1C117.7,403.2,119.1,402.2,120.5,402.2L120.5,402.2z"/>
		<path d="M157.6,430.3c-6.8,0-13.1-5-13.1-14.4s7.3-14.5,13.7-14.5c4.7,0,8.3,2.4,8.3,7c0,4-3.5,9-15.7,11c1.1,4.1,4,6,7,6
			c2.3,0,4.1-0.8,5.8-2.5c0.8-0.8,1.5-1.6,2.6-1.6c1.5,0,2.3,1.2,2.3,2.4c0,0.7-0.1,1.3-0.7,2C165.4,428.7,161.4,430.3,157.6,430.3
			L157.6,430.3z M150.4,415.1c7.6-1.4,10.3-4.2,10.3-6.6c0-1.7-1.2-2.5-2.9-2.5C154.8,406,150.6,409.3,150.4,415.1L150.4,415.1z"/>
		<path d="M179.1,401.5c1.4,0,2.9,0.7,2.7,2.5l-0.4,3.4c1.9-4,4.4-6,7.3-6c2.6,0,6.1,1.8,6.1,4.2c0,1.8-1.2,3.3-2.9,3.3
			c-0.9,0-1.5-0.5-2-1c-0.5-0.6-1-0.9-2-0.9c-2.2,0-5,2.8-7.2,11.5l-0.6,8.4c-0.1,1.9-1.5,2.7-3.1,2.7c-2.4,0-3.3-1.8-3.3-3.9
			c0-1.8,0.7-4.9,1.2-6.4l1.2-15.3C176.1,402.1,177.6,401.5,179.1,401.5L179.1,401.5z"/>
		<path d="M198.1,404.6c0-1.5,1.1-2.3,2.2-2.3l2.1-0.1c0.3-2.3,0.6-4.8,0.7-5.5c0.1-1.9,1.5-2.5,3-2.5s3.1,0.7,2.9,2.5
			c-0.1,1.1-0.4,3.1-0.7,5.1l5.9-0.4c1.6-0.1,2.3,1.2,2.3,2.4c0,1.3-0.7,2.4-2.2,2.5l-6.7,0.4c-0.5,3.8-1,8-1,10.6
			c0.1,4.6,1.1,7,2.6,7c1.1,0,2.1-1.1,2.3-1.5c0.6-1.1,1.4-1.6,2.3-1.6c1.5,0,2.7,1.1,2.7,2.5c0,0.8-0.4,1.6-0.9,2.3
			c-1.5,2.3-4.3,3.8-7,3.8c-6.3,0-7.8-7.2-7.8-12.7c0-3.3,0.4-6.7,0.9-10l-1.3,0.1C199,407.3,198.1,406,198.1,404.6L198.1,404.6z"/>
		<path d="M225.3,401.9c1.9,0,3.3,1.1,3.1,2.9c-0.9,6-1.4,16.5-1.2,22.4c0.1,1.6-1.4,2.6-3.1,2.6c-1.9,0-2.7-1.1-2.7-3.5
			c0-9.2,0.9-19,1.3-22C222.9,402.8,224,401.9,225.3,401.9L225.3,401.9z M225.9,388.8c2.1,0,3.8,1.9,3.8,4c0,2-1.4,3.3-3.4,3.3
			s-3.5-1.8-3.5-4.3C222.8,390.3,224.3,388.8,225.9,388.8L225.9,388.8z"/>
		<path d="M254.2,405.3c-0.1,1.5-1.3,2.8-2.8,2.8c-0.5,0-1-0.1-1.5-0.5c-1.2-1-2.9-1.9-5.2-1.9s-4.8,1.3-4.8,3
			c0,1.3,1.2,2.3,5.9,3.6c6.3,2,8.3,5.2,8.3,8.7c0,5.5-4.8,8.8-11.4,8.8c-5.1,0-8.5-2.2-9.2-5.4c-0.3-1.4,1-3,2.6-3
			c0.9,0,1.6,0.5,2.2,1.6c0.5,1.1,2.5,1.8,4.7,1.8c3.4,0,5.4-1.2,5.4-3c0-1.5-1-3.2-6.4-4.8c-5-1.6-7.6-3.8-7.6-7.6
			c0-5.2,5.5-8.6,11.1-8.6c2.9,0,5.8,0.9,8.2,2.9C254,404.2,254.2,404.8,254.2,405.3L254.2,405.3z"/>
		<path d="M263.5,387.5c1.5,0,4.2,1.3,4.2,3.5c0,1.8-1.3,3.5-3.3,3.5c-2,0-4.8-1.3-4.8-3.8C259.5,389.1,261.4,387.5,263.5,387.5
			L263.5,387.5z M263,401.5c1.3,0,2.8,0.7,2.7,2.3c-0.2,5-0.1,12.6,0.6,17.6c0.4,2.9,0.8,4.7,0.8,5.9c0,1.4-0.7,2.4-2.6,2.4
			c-1,0-2.2-0.2-2.7-1.4c-1.1-2.3-2-11.3-2-17.9c0-3.1,0-5.2,0.1-6.6C260.1,402.2,261.5,401.5,263,401.5L263,401.5z"/>
		<path d="M273.4,403.2c0-1.3,1.1-2.4,3-2.4c1.4,0,2.7,1,3.1,2.9c0.1,0.8,0.3,2,0.4,4.2c2.4-4.3,6.2-6.5,9.9-6.5
			c6,0,8.8,4.3,8.8,12.1c0,4.1-0.9,10-1.9,14.3c-0.3,1.2-1.4,1.9-2.5,1.9c-2.8,0-3.5-1.4-3.2-3.1c0.9-3.9,1.6-8.7,1.6-13.2
			s-1-6.7-4-6.7c-4.5,0-7.4,4.4-8.5,11.6c-0.4,2.1-0.3,4.8-0.3,8.8c0,1.5-1,2.4-2.9,2.4c-1.5,0-2.9-0.9-2.9-2.6
			c0-3.1,0.3-10.3,0.3-15.1C274.3,406,273.4,404.3,273.4,403.2L273.4,403.2z"/>
		<path d="M317.6,401c1.8,0,3.5,0.4,5.1,1.3c0.4-1,1.2-1.2,2.3-1.2c1.9,0,2.9,0.6,2.9,1.9v1.9c0.4,0.5,0.6,1,0.6,1.8
			c0,0.8-0.3,1.5-0.6,2v1.3c0,2.3,0,4.6,0,7.3c0,3.7-0.2,7.7-0.6,11.4c-0.9,9.1-4.8,15-11.4,15c-2.9,0-6.6-1.3-10.2-4.1
			c-0.7-0.6-1.1-1.2-1.1-2c0-1.1,1.1-2.8,2.5-2.8c0.7,0,1.5,0.4,2.2,0.9c2,1.4,4.2,2.8,6.4,2.8c3.1,0,4.7-3.6,5.4-7.2
			c0.6-3.1,0.7-4.1,0.9-6.2c-1.8,3.1-4.4,4.5-7.5,4.5c-6.4,0-10.9-5.8-10.9-12.6C303.6,408.4,310,401,317.6,401L317.6,401z
			 M321.2,415.7c0.3-1.9,0.5-7.5,0.5-8.3c-1.1-1-2.8-1.4-3.8-1.4c-4.6,0-8.3,5.1-8.3,10.9c0,4.4,2.6,7.5,5.6,7.5
			C318.7,424.5,320.3,421.1,321.2,415.7L321.2,415.7z"/>
	</g>
</g>
<g>
	<path class="st0" d="M464.1,227.1h278c26.6,0,48.2,21.6,48.2,48.2v0.4c0,26.6-21.6,48.2-48.2,48.2h-278
		c-26.6,0-48.2-21.6-48.2-48.2v-0.4C415.9,248.6,437.5,227.1,464.1,227.1z"/>
	<g>
		<path d="M475,253.3c1.4,0,2.9,0.7,2.9,2.3c-0.6,11.5-1.2,23.6-1.6,35.6c-0.1,1.7-1.5,2.4-3,2.4s-2.9-0.7-2.9-2.4
			c0.6-12,1.2-24.1,1.7-35.6C472,254,473.4,253.3,475,253.3L475,253.3z"/>
		<path d="M489.3,251c1.5,0,2.8,0.7,2.8,2.3c0,6.2-0.6,12.7-1,19.3c-0.3,4-0.5,8.1-0.5,12.1c0,2,0,4.3,0.1,6.5
			c0.1,1.4-1.3,2.4-3.1,2.4c-2.2,0-2.8-1.5-2.8-3c0-8.2,0.3-13.8,0.6-18.1c0.4-5.9,0.9-11.2,1-19.2C486.4,251.6,488,251,489.3,251
			L489.3,251z"/>
		<path d="M503,250.7c1.4,0,2.9,0.7,2.8,2.7c-0.9,12.3-0.9,25.3-1.6,37.8c-0.1,1.9-1.5,2.5-2.9,2.5s-2.9-0.7-2.8-2.5
			c0.8-12.5,0.7-25.5,1.7-38.1C500.3,251.4,501.6,250.7,503,250.7z"/>
		<path d="M512.3,267.9c0-2,1.5-2.7,2.9-2.7c1.5,0,3.1,0.9,3,2.7c-0.2,2-0.7,7.1-0.7,9.7c0,6.6,0.8,10.1,3.2,10.1
			c3.5,0,6.1-4.8,7.5-8.6c0.5-4.4,0.7-9,0.9-11.2c0.3-2.2,1.5-2.7,2.8-2.7c2.6,0,3.5,1.9,3.5,4.4c0,3.4-0.7,6.8-1.4,9
			c-0.3,4.4-0.5,9.7-0.4,12.2c0.1,2-1.3,2.9-2.9,2.9c-1.8,0-2.7-1-2.8-2.6v-3.5c-2.1,3.5-5.1,5.6-8.1,5.6c-6.4,0-8.4-8.1-8.4-14.3
			C511.5,275.2,512.1,271,512.3,267.9L512.3,267.9z"/>
		<path d="M561.1,269c-0.1,1.5-1.3,2.8-2.8,2.8c-0.5,0-1-0.1-1.5-0.5c-1.2-1-2.9-1.9-5.2-1.9s-4.8,1.3-4.8,3c0,1.3,1.2,2.3,5.9,3.6
			c6.3,2,8.3,5.2,8.3,8.7c0,5.5-4.8,8.8-11.5,8.8c-5.1,0-8.5-2.2-9.2-5.4c-0.3-1.4,1-3,2.6-3c0.9,0,1.6,0.5,2.2,1.6
			c0.5,1.1,2.5,1.8,4.7,1.8c3.4,0,5.4-1.2,5.4-3c0-1.5-1-3.2-6.4-4.8c-5-1.6-7.6-3.8-7.6-7.6c0-5.2,5.5-8.6,11.1-8.6
			c2.9,0,5.8,0.9,8.2,2.9C560.9,268,561.1,268.5,561.1,269L561.1,269z"/>
		<path d="M565.1,268.2c0-1.8,1.8-2.4,4.5-2.6c0.2-1.5,0.3-3.1,0.4-4.6c0.2-1.8,1.4-2.5,2.9-2.5s3.1,0.7,3.1,2.5
			c-0.1,1.5-0.2,3.1-0.4,4.7c2.5,0.1,4.7,0.4,5.8,0.6c1.4,0.3,1.8,1.1,1.8,2c0,1.4-0.8,2.8-2.2,2.8c-0.9,0-2.6-0.4-5.8-0.4
			c-0.3,3.1-0.5,6.3-0.5,9.5c0,6.3,0.7,7.5,1.5,7.5c1.2,0,1.9-1,2.5-2c0.5-0.8,1.3-1.4,2.3-1.4c1.3,0,2.6,0.9,2.6,2.6
			c0,1.9-2.7,6-7.9,6c-6.4,0-6.9-6.4-6.9-13c0-2.9,0.2-6,0.5-9.1c-0.6,0-1.1,0-1.8,0C566.1,270.9,565.2,269.5,565.1,268.2
			L565.1,268.2z"/>
		<path d="M592.8,265.2c1.8,0,2.7,0.8,2.7,2.2c0,0.7,0,1.5-0.1,3.1c1.9-3.5,4.4-5.4,7.5-5.4c1.5,0,3.3,0.3,5.2,1.4
			c0.8,0.5,1.2,1.1,1.2,2.2c0,1.2-1,3-2.5,3c-1.7,0-2.4-1-4.3-1c-3.7,0-6.2,4.4-7.5,9.5c-0.2,4.9-0.2,8-0.4,11.1
			c-0.2,2-1.7,2.6-3.1,2.6c-2.7,0-3-2.4-3-5c0-2,0.2-6.1,0.6-8.2l0.4-13C589.8,265.9,591,265.3,592.8,265.2L592.8,265.2z"/>
		<path d="M624.7,265.8c2,0,3.8,0.6,5,1.2c0.2-1.5,1.3-2.3,2.8-2.3c2,0,2.8,1.4,2.8,2.7c0,1.1-0.5,5.6-1.2,11.8
			c-0.2,1.7-0.3,3.3-0.3,4c0.1,3.9,0.6,5.9,1.8,5.9c1.3,0,1.5-1.3,3-1.3c1.2,0,1.8,0.7,1.8,2.1c0,1.1-0.4,2-1.1,2.7
			c-1.1,1-2.6,1.5-4.3,1.5c-3.1,0-4.9-2.1-5.9-4.9c-2,3.2-4.9,4.9-7.9,4.9c-6.2,0-10.2-6.1-10.2-12.5
			C611.1,273.2,617.1,265.7,624.7,265.8L624.7,265.8z M629.1,272c-1.2-0.9-2.5-1.3-3.9-1.3c-4.9,0-8.1,5.6-8.1,10.4
			c0,4.2,1.8,7.8,5.1,7.8c2.6,0,5-3.8,5.9-7.9L629.1,272L629.1,272z"/>
		<path d="M641.9,268.4c0-1.5,1.1-2.3,2.2-2.3l2-0.1c0.3-2.3,0.6-4.8,0.7-5.5c0.2-1.9,1.5-2.5,3-2.5s3.1,0.7,2.9,2.5
			c0,1.1-0.4,3.1-0.7,5.1l5.9-0.4c1.6-0.1,2.3,1.2,2.3,2.4c0,1.3-0.7,2.4-2.2,2.5l-6.7,0.4c-0.5,3.8-1,8-1,10.6c0,4.6,1.1,7,2.6,7
			c1.1,0,2-1.1,2.3-1.5c0.6-1.1,1.4-1.6,2.3-1.6c1.5,0,2.7,1.1,2.7,2.5c0,0.8-0.4,1.6-0.9,2.3c-1.5,2.3-4.3,3.8-7,3.8
			c-6.3,0-7.8-7.2-7.8-12.7c0-3.3,0.4-6.7,0.9-10l-1.3,0.1C642.7,271.1,641.9,269.8,641.9,268.4L641.9,268.4z"/>
		<path d="M669,251.3c1.5,0,4.2,1.3,4.2,3.5c0,1.8-1.3,3.5-3.3,3.5c-2,0-4.8-1.3-4.8-3.8C665.1,252.9,667,251.3,669,251.3L669,251.3
			z M668.6,265.3c1.3,0,2.8,0.7,2.7,2.3c-0.2,5-0.2,12.6,0.6,17.6c0.4,2.9,0.8,4.7,0.8,5.9c0,1.4-0.7,2.4-2.6,2.4
			c-1,0-2.2-0.2-2.7-1.4c-1.1-2.3-2-11.3-2-17.9c0-3.1,0-5.2,0.1-6.6C665.7,266,667,265.3,668.6,265.3L668.6,265.3z"/>
		<path d="M697.1,266.9c3.2,2.6,4.6,6.9,4.6,11.4c0,7.5-4,15-11.5,15c-8,0-13-6.5-13-14.1c0-7.2,4.4-14.2,12.9-14.2
			C692.5,264.9,695.6,265.6,697.1,266.9L697.1,266.9z M690.1,288.2c4.1,0,5.7-5.2,5.7-9.5c0-4.1-1.3-6.8-3.4-8.2
			c-0.8-0.3-1.6-0.3-2.4-0.3c-4.5,0-6.8,4.2-6.8,8.7C683.3,283.6,685.6,288.2,690.1,288.2z"/>
		<path d="M711.3,264.7c1.5,0,2.7,0.9,2.7,2.2c0,0.7-0.4,2.8-0.5,4.4c2.3-4.1,5.3-6.4,9.3-6.4c5.8,0,8.6,4.8,8.6,11.9
			c0,5.2-1.4,10-1.4,14.2c0,1.9-1.4,2.5-2.8,2.5c-1.6,0-3.1-0.7-3.1-2.4c0-5,1.4-9.1,1.4-14.3s-2-6.6-4.2-6.6c-3.1,0-5.7,3.9-7.7,9
			c0,5.1-0.2,8.9-0.3,11.7c0,1.5-1.5,2.4-3.3,2.4c-2.4,0-3-2-3-4.3c0-2.7,0.2-6.2,0.7-9c-0.1-7.5-0.1-10.3,0.5-13.4
			C708.6,265.1,710.2,264.7,711.3,264.7L711.3,264.7z"/>
	</g>
</g>
<g>
	<path class="st0" d="M464.1,363.3h278c26.6,0,48.2,21.6,48.2,48.2v0.4c0,26.6-21.6,48.2-48.2,48.2h-278
		c-26.6,0-48.2-21.6-48.2-48.2v-0.4C415.9,384.9,437.5,363.3,464.1,363.3z"/>
	<g>
		<path d="M473.4,397.2c0,1.5-1.5,2.9-2.8,2.9c-0.9,0-1.5-0.4-2.2-1c-1.8-1.9-4.3-2.8-7.8-2.8c-4.1,0-7.1,1.9-7.1,4.6
			c0,2.4,2,4.2,8.7,7c8.5,3.7,11.8,7.3,11.8,12.6c0,6.4-6,11.4-14.4,11.4c-4.7,0-9.4-1.6-12.5-4.4c-0.9-0.7-1.3-1.5-1.3-2.4
			c0-1.5,1.4-2.9,2.7-2.9c0.7,0,1.3,0.4,2.2,0.9c2.9,2.2,5.6,3.3,9.1,3.3c4.8,0,8.2-2.3,8.2-5.6c0-3-2.4-5.1-9.1-7.9
			c-7.5-3.1-11.4-6.9-11.4-12c0-6,5.6-10.1,13.1-10.1c4.8,0,8.8,1.3,11.4,3.9C472.9,395.3,473.4,396.3,473.4,397.2L473.4,397.2z"/>
		<path d="M479,418.8c0-8.5,6.7-15.7,14.5-15.7c2.5,0,3.6,0.7,3.5,2.6c0,0.2,0,0.4,0,0.6c3.8,0.4,6.9,4.9,6.9,10.6
			c0,7.9-6.2,14.6-13.7,14.6C484.1,431.5,479,426.7,479,418.8L479,418.8z M490.4,426.1c3.9,0,7.6-4.1,7.6-9.2c0-2.4-0.6-4.3-1.9-5.1
			c-1.2-0.8-2.3-1.2-2.3-2.8c0-0.3,0-0.5,0-0.8h-0.3c-4.8,0-8.6,4.7-8.6,10.9C485,423.6,487.6,426.1,490.4,426.1L490.4,426.1z"/>
		<path d="M529.4,406.7c0,1.5-1.1,2.8-2.7,2.8c-0.4,0-1-0.3-1.6-0.6c-1.3-0.7-2.4-1-3.4-1c-4,0-7.3,3.9-7.3,10.3c0,5.1,2.3,8,5.5,8
			c1.4,0,3-0.5,4.3-1.6c1-0.8,1.8-1.6,2.8-1.6c1.4,0,2.5,1.1,2.5,2.6c0,1.1-0.9,2.1-2.2,3c-2.4,1.7-5,2.7-7.7,2.7
			c-6.8,0-11.4-5.3-11.4-12.7c0-8.8,5.4-15.7,13.1-15.7c2.6,0,4.8,0.7,6.3,1.6C528.8,405.1,529.4,405.7,529.4,406.7L529.4,406.7z"/>
		<path d="M538.5,402.7c1.5,0,3,0.7,3,2.3c-0.6,6.4-0.7,13.1-0.7,24.6c0,1.4-1,2.4-2.8,2.4c-2,0-2.4-0.6-2.7-2.4
			c-0.3-1.4-0.4-3.5-0.4-5.9c0-7.2,0.7-16.2,0.9-18.9C535.8,403.3,537.2,402.7,538.5,402.7L538.5,402.7z M538.9,390.2
			c2.5,0,4,1.9,4,3.8c0,1.5-1.3,3.7-4.1,3.7c-2.3,0-3.5-1.9-3.5-3.9C535.3,391.5,537.2,390.2,538.9,390.2L538.9,390.2z"/>
		<path d="M559.7,403.7c2.5,0,5.2,0.8,7.2,1.9l0.3-0.9c0.3-0.9,1.3-1.7,2.5-1.7c1.6,0,3,1.1,3,2.9c0,2-0.8,7.9-2.9,14.3
			c0,4.7,1,6.1,2.8,6.1c0.9,0,1.6-0.9,2.4-2.3c0.5-0.7,0.9-1,1.8-1c1.2,0,2.2,1.1,2.2,2.3c0,0.9-0.4,2-1.1,2.9
			c-1.5,2-3.7,3.3-6.1,3.3c-2.8,0-5.4-1.7-6.5-5c-2.3,3.1-4.9,4.7-8.4,4.7c-5.9,0-9.8-5-9.8-12.5C547.2,409.1,553,403.8,559.7,403.7
			L559.7,403.7z M558,425.9c3.1,0,4.6-2.3,6.4-5.8c0-3.6,0.5-7.5,1.2-9.8c-1.9-1-3.4-1.6-5.2-1.6c-4.1,0-7.1,3.5-7.1,9.5
			C553.2,422.4,554.9,425.9,558,425.9L558,425.9z"/>
		<path d="M588,388.7c1.5,0,2.8,0.7,2.8,2.3c0,6.2-0.6,12.7-1,19.3c-0.3,4-0.5,8.1-0.5,12.1c0,2,0,4.3,0.1,6.5
			c0.1,1.4-1.3,2.4-3.1,2.4c-2.2,0-2.8-1.5-2.8-3c0-8.2,0.3-13.8,0.6-18.1c0.4-5.9,0.9-11.2,1-19.2C585,389.4,586.6,388.7,588,388.7
			L588,388.7z"/>
		<path d="M648.2,429.3c0-1.4,0.2-4.4,0.2-8c0-7-0.7-13.3-4.7-13.3c-2.7,0-4.3,2.1-5.2,4.7c0.3,1.8,0.3,3.9,0.3,6
			c-0.1,3.6-0.2,7-0.6,10.6c-0.2,1.3-1,2.4-2.6,2.4s-2.7-0.5-3-1.5c-0.6-2.7-0.8-5.5-0.8-8.7c0-2.4,0.3-6.7,1.1-9.4
			c-0.3-2-1.3-3.6-3-3.6c-2,0-4.6,1.7-6.8,7.6c-1.4,3.8-1.8,6.7-2,9.1l-0.2,3.8c-0.1,1.8-1.3,2.5-2.9,2.5c-1.4,0-3.1-0.7-3.1-2.4
			l1.1-23.9c0-1.8,1.1-2.6,2.8-2.6c1.5,0,2.9,0.8,2.7,2.6l-0.3,5.2c2.3-4.8,5.7-7.4,9.9-7.4c2.3,0,5,1.3,5.9,3.8
			c1.8-2.8,4.5-4.4,7.9-4.4c7.8,0,9.7,8.2,9.7,17.8c0,1.1-0.2,6.9-0.2,8.9c0,1.7-1.5,2.5-3.2,2.6
			C648.7,431.8,648.3,430.3,648.2,429.3L648.2,429.3z"/>
		<path d="M673.5,402.9c4.5,0,7.5,2.7,7.5,6.7c0,5.9-5.8,10.9-14.5,11c1.3,4,3.5,6,6.4,6c2.2,0,3.8-1,5.2-2.8c0.8-1,1.3-1.4,2-1.4
			c1.4,0,2.3,1.1,2.3,2.4c0,1-0.7,2.4-2.2,3.9c-2.1,2-4.8,3.1-7.7,3.1c-7.3,0-12.5-6.5-12.5-15.1C660,409.3,666.2,402.9,673.5,402.9
			L673.5,402.9z M675.4,409.4c0-1.2-1-2-2.3-2c-3.5,0-7.3,3.6-7.4,8.5C671,415.9,675.4,413,675.4,409.4L675.4,409.4z"/>
		<path d="M708,388.3c1.5,0,3,0.7,2.9,2.5c-0.6,5.9-2,14.3-2,20.7c0.1,8.3,0.9,11.5,2.9,14.2c1.3,1.9,1.7,2.5,1.7,3.6
			c0,1.2-1.2,2.1-3.1,2.1c-1.5,0-2.6-0.6-3.4-1.7c-0.8-1-1.9-2.8-2.6-4.7c-1.8,3.5-4.7,6.4-8.7,6.4c-6.2,0-9.5-6.2-9.3-13.6
			s3-13.8,11.8-13.8c1.5,0,3.7,0.3,5,0.9c0.7-5.3,1.1-9.5,1.6-14.3C705.1,389,706.4,388.3,708,388.3L708,388.3z M696.8,426.2
			c2.3,0,4.9-2.9,5.6-8c0.1-1.4,0.5-5.5,0.5-8.4c-0.9-0.5-2.8-1-4.1-1c-2.6,0-6.2,1.5-6.2,8.8C692.5,422.7,694.1,426.2,696.8,426.2
			L696.8,426.2z"/>
		<path d="M722.2,402.7c1.5,0,3,0.7,3,2.3c-0.6,6.4-0.7,13.1-0.7,24.6c0,1.4-1,2.4-2.8,2.4c-2,0-2.4-0.6-2.7-2.4
			c-0.3-1.4-0.4-3.5-0.4-5.9c0-7.2,0.7-16.2,0.9-18.9C719.6,403.3,721,402.7,722.2,402.7L722.2,402.7z M722.7,390.2
			c2.5,0,4,1.9,4,3.8c0,1.5-1.3,3.7-4.1,3.7c-2.3,0-3.5-1.9-3.5-3.9C719.1,391.5,721,390.2,722.7,390.2L722.7,390.2z"/>
		<path d="M743.5,402.8c2.3,0,4.3,0.7,6.2,2.3c0.3-1.5,0.9-2.3,2.4-2.3c1.8,0,3.2,1,3.1,2.7c0,2-0.6,5.5-1,8.6
			c-0.3,1.5-0.8,4.9-0.8,6.4c-0.1,1.9,0.2,5.8,1.7,5.8c0.7,0,1.2-0.5,1.7-1.3c0.5-0.7,1.1-1,1.8-1c1.2,0,2.4,1.1,2.2,2.7
			c-0.2,2-3,4.7-6.3,4.7c-2.9,0-5-2-5.5-5.1c-2,2.9-4.5,4.7-8,4.7c-6.6,0-10.2-5.1-10.2-12.1C730.6,410.7,735.8,402.8,743.5,402.8
			L743.5,402.8z M741.4,425.8c2.6,0,4.1-1.9,5.1-4.6c1.3-3.3,1.8-8.1,2-11.6c-1.4-1.2-3.2-1.9-4.7-1.9c-4.5,0-7.3,5.1-7.3,10.8
			C736.7,423.1,738.2,425.8,741.4,425.8L741.4,425.8z"/>
	</g>
</g>
<g>
	<path class="st0" d="M464.1,519.6h373.1c26.6,0,48.2,21.6,48.2,48.2v0.4c0,26.6-21.6,48.2-48.2,48.2H464.1
		c-26.6,0-48.2-21.6-48.2-48.2v-0.4C415.9,541.2,437.5,519.6,464.1,519.6z"/>
</g>
<text transform="matrix(1 0 0 1 445.79 589.1678)"><tspan x="0" y="0" style="stroke:#000000;stroke-miterlimit:10; font-family:'PlaypenSans-Regular'; font-size:52.7006px;">User</tspan><tspan x="117.6" y="0" style="stroke:#000000;stroke-miterlimit:10; font-family:'PlaypenSans-Regular'; font-size:52.7006px; letter-spacing:-9;"> </tspan><tspan x="130.5" y="0" style="stroke:#000000;stroke-miterlimit:10; font-family:'PlaypenSans-Regular'; font-size:52.7006px;">Experience</tspan></text>
</svg>
