<?xml version="1.0" encoding="utf-8"?>
<!-- Generator: Adobe Illustrator 28.2.0, SVG Export Plug-In . SVG Version: 6.00 Build 0)  -->
<svg version="1.1" id="Layer_2_00000083772038917954685040000012745294422802959278_"
	 xmlns="http://www.w3.org/2000/svg" xmlns:xlink="http://www.w3.org/1999/xlink" x="0px" y="0px" viewBox="0 0 383.3 20.9"
	 style="enable-background:new 0 0 383.3 20.9;" xml:space="preserve">
<style type="text/css">
	.st0{fill:#A5A5A5;}
	.st1{enable-background:new    ;}
	.st2{fill:#A5A5A5;stroke:#A5A5A5;stroke-width:0.2;stroke-miterlimit:10;}
	.st3{font-family:'PlaypenSans-Regular';}
	.st4{font-size:11.4062px;}
</style>
<g>
	<g>
		<path class="st0" d="M16.1,14.6c-0.4,0-0.7-0.3-0.7-0.6c0-0.1,0-0.2,0.1-0.3c0.9-2,3.1-7.3,3.4-8c0.2-0.4,0.4-0.5,0.7-0.5
			c0.5,0,0.7,0.4,0.9,0.8c0.9,2.4,1.9,5.1,3.3,7.6c0,0.1,0.1,0.2,0.1,0.2c0,0.4-0.3,0.6-0.7,0.6c-0.3,0-0.6-0.1-0.7-0.4
			c-0.4-0.7-0.8-1.4-1.1-2.4c-0.8-0.1-1.3-0.1-1.9-0.1c-0.4,0-0.8,0-1.1,0c-0.2,0-0.3-0.1-0.4-0.2c-0.4,0.9-0.8,1.8-1.1,2.7
			C16.7,14.6,16.4,14.6,16.1,14.6L16.1,14.6z M20.9,10.6c-0.5-1-0.9-2.2-1.2-3.3c-0.5,1-0.9,2.2-1.3,3.2c0.2-0.1,0.5-0.1,0.9-0.1
			C19.7,10.4,20.4,10.5,20.9,10.6z"/>
		<path class="st0" d="M26,8c0.4,0,0.6,0.2,0.6,0.5c0,0.2,0,0.4,0,0.7C26.9,8.4,27.5,8,28.3,8c0.3,0,0.8,0.1,1.1,0.4
			c0.2,0.1,0.3,0.3,0.2,0.6c0,0.4-0.3,0.6-0.6,0.6c-0.2,0-0.3-0.1-0.4-0.1c-0.2-0.1-0.4-0.2-0.6-0.2c-0.9,0-1.3,0.9-1.6,2.2
			c0,1,0,1.8,0,2.5c0,0.4-0.4,0.6-0.7,0.6c-0.7,0-0.8-0.5-0.8-1s0-1.3,0.1-1.8l0.1-2.9C25.2,8.2,25.5,8,26,8L26,8z"/>
		<path class="st0" d="M30.4,8.8c0-0.4,0.2-0.5,0.5-0.5h0.5c0-0.6,0.1-1.1,0.1-1.2c0-0.4,0.4-0.6,0.7-0.6c0.3,0,0.7,0.2,0.7,0.6
			c0,0.2-0.1,0.7-0.2,1.1L34,8.1c0.4,0,0.5,0.3,0.5,0.6S34.2,9.3,34,9.3l-1.4,0.1c-0.1,0.9-0.2,1.8-0.2,2.4c0,1,0.2,1.5,0.6,1.5
			c0.3,0,0.5-0.3,0.5-0.4c0.1-0.2,0.3-0.4,0.5-0.4c0.4,0,0.6,0.2,0.6,0.6c0,0.2-0.1,0.4-0.2,0.5c-0.4,0.5-0.9,0.9-1.5,0.9
			c-1.4,0-1.7-1.6-1.7-2.8c0-0.8,0.1-1.5,0.2-2.2h-0.3C30.6,9.4,30.4,9.1,30.4,8.8L30.4,8.8z"/>
		<path class="st0" d="M39.8,5.6c0.2,0,0.4,0,0.5,0.1c0.4-0.1,0.9-0.1,1.2-0.1c2.4,0,4.7,1.4,4.7,4.2c0,4.2-3.4,4.6-6.6,4.6h-0.1
			c-0.4,0-0.7-0.2-0.6-0.6c0.2-2.3,0.4-5.5,0.3-7.5C39.2,5.8,39.5,5.6,39.8,5.6z M44.8,9.8c0-1.8-1.3-3-3.3-3c-0.3,0-0.7,0-1,0.1
			c0,1.8-0.1,4.4-0.2,6.3C43.5,13.1,44.8,12.2,44.8,9.8z"/>
		<path class="st0" d="M48.5,8c0.4,0,0.7,0.2,0.7,0.7c-0.3,2.2-0.2,3.6-0.3,5.2c0,0.4-0.3,0.6-0.7,0.6c-0.5,0-0.7-0.2-0.7-0.7
			c0.1-0.9,0.1-4,0.4-5.4C47.9,8.1,48.2,8,48.5,8z M48.6,5.2c0.5,0,0.9,0.3,0.9,0.9c0,0.5-0.4,0.8-0.8,0.8c-0.6,0-0.9-0.3-0.9-0.9
			C47.7,5.5,48,5.2,48.6,5.2L48.6,5.2z"/>
		<path class="st0" d="M51.7,8.2c0.4,0,0.7,0.2,0.7,0.5c0,0.2,0,0.5,0,0.9c0.5-1,1.4-1.6,2.1-1.6c0.4,0,0.8,0.1,0.9,0.3
			c0.2,0.1,0.2,0.3,0.2,0.5c0,0.4-0.3,0.7-0.6,0.7s-0.4-0.2-0.8-0.2c-0.7,0-1.1,0.6-1.4,1.1c-0.4,0.9-0.6,2-0.7,3.6
			c0,0.4-0.3,0.5-0.8,0.5c-0.3,0-0.6-0.2-0.6-0.6c0.1-1.6,0.1-3.5,0.2-5C51.1,8.4,51.2,8.2,51.7,8.2z"/>
		<path class="st0" d="M56.2,11.4c0-1.6,1.2-3.2,3-3.2c0.9,0,1.7,0.7,1.7,1.6c0,1-0.9,2.3-3.3,2.5c0.2,0.7,0.7,1.1,1.3,1.1
			s1.1-0.2,1.6-0.8c0.2-0.2,0.4-0.4,0.5-0.4c0.3,0,0.5,0.3,0.5,0.6c0,0.2-0.1,0.4-0.4,0.8c-0.6,0.6-1.3,0.9-2.2,0.9
			C57.2,14.3,56.2,13.1,56.2,11.4L56.2,11.4z M57.5,11.1c1.1-0.1,2.2-0.7,2.2-1.4c0-0.3-0.2-0.6-0.6-0.6
			C58.3,9.2,57.6,9.9,57.5,11.1z"/>
		<path class="st0" d="M66.8,9.9c-0.4,0-0.7-0.7-1.4-0.7c-0.8,0-1.5,1.2-1.5,2.6c0,0.9,0.5,1.5,1.1,1.5c0.3,0,0.7-0.2,0.9-0.4
			s0.4-0.4,0.6-0.4s0.6,0.3,0.6,0.7c0,0.2-0.1,0.3-0.2,0.4c-0.6,0.6-1.2,0.9-1.9,0.9c-1.3,0-2.5-0.9-2.5-2.7s1.2-3.6,2.8-3.6
			c0.8,0,1.4,0.4,1.7,0.8c0.2,0.2,0.2,0.4,0.2,0.5C67.4,9.6,67.1,9.9,66.8,9.9L66.8,9.9z"/>
		<path class="st0" d="M68.4,8.8c0-0.4,0.2-0.5,0.5-0.5h0.5c0.1-0.6,0.1-1.1,0.2-1.2c0-0.4,0.3-0.6,0.7-0.6S71,6.7,71,7.1
			c0,0.2-0.1,0.7-0.2,1.1L72,8.1c0.4,0,0.5,0.3,0.5,0.6S72.3,9.3,72,9.3l-1.5,0.1c-0.1,0.9-0.2,1.8-0.2,2.4c0,1,0.3,1.5,0.6,1.5
			c0.3,0,0.5-0.3,0.5-0.4c0.1-0.2,0.3-0.4,0.5-0.4c0.4,0,0.6,0.2,0.6,0.6c0,0.2-0.1,0.4-0.2,0.5c-0.3,0.5-0.9,0.9-1.5,0.9
			c-1.4,0-1.7-1.6-1.7-2.8c0-0.8,0.1-1.5,0.2-2.2H69C68.6,9.4,68.4,9.1,68.4,8.8L68.4,8.8z"/>
		<path class="st0" d="M74.6,5.1c0.3,0,0.9,0.3,0.9,0.8c0,0.4-0.3,0.8-0.8,0.8s-1-0.3-1-0.9C73.7,5.4,74.2,5.1,74.6,5.1L74.6,5.1z
			 M74.5,8.1c0.3,0,0.7,0.2,0.6,0.5c-0.1,1.1,0,2.8,0.1,3.9c0.1,0.7,0.2,1,0.2,1.3s-0.2,0.6-0.6,0.6c-0.2,0-0.5-0.1-0.6-0.3
			c-0.3-0.5-0.4-2.5-0.4-4c0-0.7,0-1.1,0-1.4C73.8,8.3,74.2,8.1,74.5,8.1z"/>
		<path class="st0" d="M81,8.5c0.8,0.6,1,1.5,1,2.5c0,1.6-0.9,3.3-2.6,3.3s-2.8-1.4-2.8-3.1c0-1.6,0.9-3.1,2.8-3.1
			C80,8,80.7,8.2,81,8.5L81,8.5z M79.4,13.2c0.9,0,1.2-1.1,1.2-2.1c0-0.9-0.3-1.5-0.8-1.8c-0.2-0.1-0.4-0.1-0.6-0.1
			c-1,0-1.5,0.9-1.5,1.9C77.9,12.2,78.4,13.2,79.4,13.2z"/>
		<path class="st0" d="M84.3,8c0.3,0,0.6,0.2,0.6,0.5c0,0.2-0.1,0.7-0.1,0.9C85.2,8.6,85.9,8,86.9,8c1.2,0,1.9,1,1.9,2.7
			c0,1.1-0.3,2.2-0.3,3.1c0,0.4-0.3,0.6-0.7,0.6c-0.4,0-0.7-0.2-0.7-0.6c0-1.1,0.3-2,0.3-3.1S87,9.3,86.5,9.3c-0.7,0-1.2,0.9-1.7,2
			c0,1.1,0,2-0.1,2.6c0,0.4-0.3,0.6-0.8,0.6c-0.6,0-0.7-0.5-0.7-0.9c0-0.6,0-1.3,0.2-2c0-1.6,0-2.3,0.1-2.9C83.7,8.1,84,8,84.3,8z"
			/>
	</g>
</g>
<g>
	<g>
		<path class="st0" d="M111.8,14.5c-0.4,0-0.7-0.3-0.7-0.6c0-0.1,0-0.2,0.1-0.3c2.8-6.1,3.2-7,3.7-8c0.1-0.3,0.4-0.4,0.7-0.4
			c0.4,0,0.7,0.2,0.9,0.7c0.4,1.1,1.1,2.8,1.9,4.4h0.1c0.3,0,0.6,0.2,0.6,0.6c0,0.2-0.1,0.4-0.2,0.4c0.4,0.9,0.8,1.6,1,2.4
			c0,0.1,0.1,0.2,0.1,0.2c0,0.3-0.2,0.5-0.7,0.5c-0.4,0-0.6-0.2-0.8-0.5c-0.3-0.7-0.7-1.5-1-2.4c-1.3,0-2.8,0.1-4,0.2
			c-0.4,0.9-0.7,1.6-1,2.3C112.4,14.4,112.2,14.5,111.8,14.5L111.8,14.5z M114.1,10.5c0.7,0,1.9-0.1,2.8-0.1c-0.5-1.1-1-2.4-1.4-3.3
			C115.2,8.1,114.6,9.4,114.1,10.5z"/>
		<path class="st0" d="M125.7,5c0.4,0,0.7,0.2,0.7,0.9c0,1.7-0.4,3.3-0.4,5c0,1.4,0.3,2.2,0.9,2.4c0.3,0.1,0.4,0.3,0.4,0.6
			c0,0.4-0.2,0.6-0.7,0.6c-0.7,0-1.2-0.4-1.6-1.2c-0.3,0.7-1,1.1-1.7,1.1c-1.4,0-2.5-1.2-2.5-3s1.3-3.3,2.9-3.3
			c0.4,0,0.8,0.1,1.1,0.4c0.1-1,0.2-2.1,0.2-2.8C125,5.2,125.3,5,125.7,5L125.7,5z M123.4,13.3c0.7,0,1.1-0.6,1.3-1.8
			c-0.1-0.6,0-1.4,0.1-1.9c-0.3-0.3-0.6-0.4-0.9-0.4c-0.9,0-1.6,0.9-1.6,2.2C122.2,12.3,122.7,13.3,123.4,13.3z"/>
		<path class="st0" d="M128.3,8.3c0.2,0,0.4,0,0.5,0.3c0.6,1,1,2.6,1.3,4.3c0.7-1.6,1.1-2.9,1.8-4.4c0.2-0.4,0.3-0.4,0.6-0.4
			s0.7,0.2,0.7,0.5s-0.4,1.1-0.6,1.5c-0.4,0.9-1.1,2.6-1.6,3.6c-0.4,0.8-0.8,0.9-1,0.9c-0.3,0-0.6-0.2-0.7-0.5
			c-0.4-1.5-0.9-3.2-1.6-4.9c0-0.1-0.1-0.2-0.1-0.2C127.7,8.5,128,8.3,128.3,8.3L128.3,8.3z"/>
		<path class="st0" d="M136.7,14.5c-1.5,0-2.9-1.1-2.9-3.1s1.6-3.2,3-3.2c1,0,1.8,0.6,1.8,1.5s-0.8,2-3.4,2.5
			c0.2,0.9,0.9,1.3,1.5,1.3c0.5,0,0.9-0.2,1.2-0.6c0.2-0.2,0.4-0.4,0.6-0.4c0.4,0,0.5,0.3,0.5,0.6c0,0.2,0,0.3-0.2,0.4
			C138.4,14.1,137.5,14.5,136.7,14.5L136.7,14.5z M135.1,11.2c1.7-0.3,2.3-0.9,2.3-1.4c0-0.4-0.3-0.6-0.7-0.6
			C136,9.1,135.1,9.8,135.1,11.2L135.1,11.2z"/>
		<path class="st0" d="M141.6,8.1c0.3,0,0.7,0.2,0.6,0.6L142,9.5c0.4-0.9,0.9-1.3,1.6-1.3c0.6,0,1.3,0.4,1.3,0.9
			c0,0.4-0.3,0.8-0.7,0.8c-0.2,0-0.4-0.1-0.5-0.2c-0.1-0.1-0.2-0.2-0.5-0.2c-0.5,0-1.1,0.6-1.6,2.6l-0.1,1.9c0,0.4-0.4,0.6-0.7,0.6
			c-0.6,0-0.8-0.4-0.8-0.9c0-0.4,0.2-1,0.3-1.4l0.3-3.4C140.9,8.2,141.3,8.1,141.6,8.1L141.6,8.1z"/>
		<path class="st0" d="M145.9,8.8c0-0.4,0.2-0.5,0.5-0.5h0.5c0.1-0.5,0.1-1,0.2-1.2c0-0.4,0.4-0.6,0.7-0.6s0.7,0.2,0.7,0.6
			c0,0.2-0.1,0.7-0.2,1.1l1.3-0.1c0.4,0,0.5,0.3,0.5,0.6s-0.2,0.6-0.5,0.6L148,9.4c-0.1,0.9-0.2,1.8-0.2,2.4c0,1,0.2,1.5,0.6,1.5
			c0.3,0,0.5-0.3,0.5-0.4c0.1-0.2,0.3-0.4,0.5-0.4c0.4,0,0.6,0.2,0.6,0.6c0,0.2-0.1,0.4-0.2,0.5c-0.4,0.5-0.9,0.9-1.5,0.9
			c-1.4,0-1.7-1.6-1.7-2.8c0-0.8,0.1-1.5,0.2-2.2h-0.3C146.1,9.4,145.9,9.1,145.9,8.8L145.9,8.8z"/>
		<path class="st0" d="M152.1,8.2c0.4,0,0.8,0.3,0.7,0.7c-0.2,1.3-0.3,3.7-0.3,4.9c0,0.4-0.3,0.6-0.7,0.6s-0.6-0.3-0.6-0.8
			c0-2,0.2-4.2,0.3-4.8C151.5,8.4,151.8,8.2,152.1,8.2L152.1,8.2z M152.2,5.3c0.5,0,0.9,0.4,0.9,0.9c0,0.4-0.3,0.8-0.8,0.8
			s-0.8-0.4-0.8-0.9C151.5,5.7,151.8,5.3,152.2,5.3z"/>
		<path class="st0" d="M158.6,9c0,0.4-0.3,0.7-0.6,0.7c-0.1,0-0.2,0-0.4-0.1c-0.3-0.2-0.7-0.4-1.1-0.4c-0.5,0-1,0.3-1,0.7
			c0,0.3,0.3,0.5,1.3,0.9c1.4,0.4,1.8,1.1,1.8,1.9c0,1.2-1,2-2.6,2c-1.1,0-1.9-0.5-2-1.2c-0.1-0.3,0.2-0.7,0.6-0.7
			c0.2,0,0.4,0.1,0.5,0.4s0.6,0.4,1,0.4c0.8,0,1.2-0.3,1.2-0.7s-0.2-0.7-1.4-1c-1.1-0.4-1.7-0.9-1.7-1.7c0-1.1,1.2-1.9,2.5-1.9
			C157.4,8.3,157.9,8.5,158.6,9C158.6,8.7,158.6,8.9,158.6,9L158.6,9z"/>
		<path class="st0" d="M160.8,5.1c0.4,0,0.9,0.3,0.9,0.8c0,0.4-0.3,0.8-0.8,0.8s-1-0.3-1-0.9C160,5.4,160.4,5.1,160.8,5.1L160.8,5.1
			z M160.7,8.1c0.3,0,0.7,0.2,0.6,0.5c-0.1,1.1,0,2.8,0.1,3.9c0.1,0.7,0.2,1,0.2,1.3s-0.2,0.6-0.6,0.6c-0.2,0-0.5-0.1-0.6-0.3
			c-0.3-0.5-0.4-2.5-0.4-4c0-0.7,0-1.1,0-1.4C160.1,8.3,160.4,8.1,160.7,8.1L160.7,8.1z"/>
		<path class="st0" d="M163.2,8.5c0-0.3,0.3-0.6,0.7-0.6c0.3,0,0.6,0.2,0.7,0.7c0,0.2,0.1,0.5,0.1,0.9c0.6-0.9,1.3-1.4,2.2-1.4
			c1.3,0,2,0.9,2,2.7c0,0.9-0.2,2.2-0.4,3.1c-0.1,0.3-0.3,0.4-0.6,0.4c-0.7,0-0.8-0.3-0.7-0.7c0.2-0.9,0.4-1.9,0.4-2.9
			s-0.2-1.5-0.9-1.5c-0.9,0-1.6,0.9-1.9,2.6c-0.1,0.5-0.1,1-0.1,2c0,0.4-0.2,0.6-0.7,0.6c-0.4,0-0.7-0.2-0.7-0.6
			c0-0.7,0.1-2.3,0.1-3.3C163.4,9.2,163.2,8.7,163.2,8.5L163.2,8.5z"/>
		<path class="st0" d="M173.1,8c0.4,0,0.8,0.1,1.1,0.3c0.1-0.2,0.3-0.3,0.5-0.3c0.4,0,0.7,0.1,0.7,0.4v0.4c0.1,0.1,0.1,0.2,0.1,0.4
			s-0.1,0.4-0.1,0.4v0.3c0,0.5,0,1,0,1.6c0,0.9-0.1,1.7-0.1,2.6c-0.2,2-1,3.3-2.5,3.3c-0.7,0-1.4-0.3-2.3-0.9
			c-0.2-0.1-0.3-0.3-0.3-0.5c0-0.3,0.3-0.7,0.6-0.7c0.2,0,0.4,0.1,0.5,0.2c0.4,0.3,0.9,0.7,1.4,0.7c0.7,0,1-0.8,1.1-1.6
			c0.1-0.7,0.2-0.9,0.2-1.3c-0.4,0.7-0.9,1-1.7,1c-1.4,0-2.4-1.2-2.4-2.8C170,9.6,171.4,8,173.1,8L173.1,8z M173.8,11.3
			c0.1-0.4,0.1-1.6,0.1-1.8c-0.3-0.2-0.6-0.3-0.9-0.3c-1,0-1.8,1.1-1.8,2.4c0,0.9,0.6,1.6,1.2,1.6C173.4,13.2,173.7,12.5,173.8,11.3
			L173.8,11.3z"/>
	</g>
</g>
<g>
	<g>
		<path class="st0" d="M200,5.5c0.3,0,0.7,0.2,0.7,0.5c-0.1,2.6-0.3,5.2-0.4,7.9c0,0.4-0.4,0.6-0.7,0.6s-0.7-0.2-0.7-0.6
			c0.1-2.7,0.3-5.3,0.4-7.9C199.4,5.7,199.7,5.5,200,5.5L200,5.5z"/>
		<path class="st0" d="M203.4,5c0.4,0,0.6,0.2,0.6,0.5c0,1.3-0.1,2.8-0.2,4.3c-0.1,0.9-0.1,1.8-0.1,2.7c0,0.5,0,0.9,0,1.4
			c0,0.3-0.3,0.6-0.7,0.6c-0.5,0-0.7-0.4-0.7-0.7c0-1.8,0.1-3,0.1-4c0.1-1.3,0.2-2.5,0.2-4.3C202.7,5.1,203,5,203.4,5L203.4,5z"/>
		<path class="st0" d="M206.5,4.9c0.3,0,0.7,0.2,0.6,0.6c-0.2,2.8-0.2,5.6-0.4,8.4c0,0.4-0.4,0.6-0.7,0.6s-0.7-0.2-0.6-0.6
			c0.2-2.8,0.2-5.6,0.4-8.5C205.9,5.1,206.2,4.9,206.5,4.9L206.5,4.9z"/>
		<path class="st0" d="M208.7,8.7c0-0.5,0.4-0.6,0.7-0.6c0.4,0,0.7,0.2,0.7,0.6c0,0.5-0.2,1.6-0.2,2.2c0,1.4,0.2,2.3,0.7,2.3
			c0.8,0,1.3-1,1.6-1.9c0.1-0.9,0.2-2,0.2-2.5c0.1-0.5,0.4-0.6,0.6-0.6c0.6,0,0.8,0.4,0.8,0.9c0,0.8-0.2,1.5-0.3,2
			c-0.1,0.9-0.1,2.2-0.1,2.7c0,0.4-0.3,0.7-0.7,0.7s-0.6-0.2-0.6-0.6v-0.8c-0.5,0.8-1.1,1.2-1.8,1.2c-1.4,0-1.8-1.8-1.8-3.1
			C208.6,10.3,208.7,9.4,208.7,8.7z"/>
		<path class="st0" d="M219.7,9c0,0.4-0.3,0.7-0.6,0.7c-0.1,0-0.2,0-0.4-0.1c-0.3-0.3-0.7-0.5-1.1-0.5c-0.5,0-1,0.3-1,0.7
			c0,0.3,0.3,0.5,1.3,0.9c1.4,0.4,1.8,1.1,1.8,1.9c0,1.2-1,2-2.6,2c-1.1,0-1.9-0.5-2-1.2c-0.1-0.3,0.2-0.7,0.6-0.7
			c0.2,0,0.4,0.1,0.5,0.4c0.1,0.3,0.6,0.4,1,0.4c0.8,0,1.2-0.3,1.2-0.7s-0.2-0.7-1.4-1c-1.1-0.4-1.7-0.9-1.7-1.7
			c0-1.1,1.2-1.9,2.5-1.9c0.7,0,1.2,0.2,1.8,0.7C219.6,8.7,219.7,8.9,219.7,9L219.7,9z"/>
		<path class="st0" d="M220.8,8.8c0-0.4,0.4-0.6,1-0.6c0-0.4,0.1-0.7,0.1-1s0.3-0.6,0.7-0.6s0.7,0.2,0.7,0.6s-0.1,0.7-0.1,1
			c0.6,0,1,0.1,1.2,0.1c0.3,0.1,0.4,0.2,0.4,0.5s-0.2,0.7-0.5,0.7c-0.2,0-0.6-0.1-1.3-0.1c-0.1,0.7-0.1,1.4-0.1,2.1
			c0,1.4,0.2,1.7,0.4,1.7c0.3,0,0.4-0.2,0.6-0.4c0.1-0.2,0.3-0.3,0.5-0.3c0.3,0,0.6,0.2,0.6,0.6c0,0.4-0.6,1.3-1.7,1.3
			c-1.4,0-1.5-1.4-1.5-2.8c0-0.7,0.1-1.3,0.1-2c-0.1,0-0.3,0-0.4,0C220.9,9.4,220.8,9.1,220.8,8.8L220.8,8.8z"/>
		<path class="st0" d="M227,8.1c0.4,0,0.6,0.2,0.6,0.5c0,0.2,0,0.4,0,0.7c0.4-0.8,0.9-1.2,1.7-1.2c0.4,0,0.8,0.1,1.1,0.3
			c0.2,0.1,0.3,0.3,0.3,0.5c0,0.3-0.2,0.7-0.6,0.7s-0.6-0.2-0.9-0.2c-0.9,0-1.3,0.9-1.7,2.1c0,1,0,1.8-0.1,2.5
			c-0.1,0.5-0.4,0.6-0.7,0.6c-0.6,0-0.7-0.6-0.7-1.1s0.1-1.3,0.1-1.8l0.1-2.8C226.4,8.2,226.6,8.1,227,8.1L227,8.1z"/>
		<path class="st0" d="M234.2,8.2c0.4,0,0.9,0.1,1.1,0.3c0.1-0.4,0.3-0.5,0.7-0.5c0.5,0,0.7,0.3,0.7,0.6s-0.1,1.2-0.3,2.7
			c-0.1,0.4-0.1,0.8-0.1,0.9c0,0.9,0.1,1.3,0.4,1.3s0.4-0.3,0.7-0.3s0.4,0.2,0.4,0.5s-0.1,0.5-0.3,0.6c-0.2,0.2-0.6,0.4-0.9,0.4
			c-0.7,0-1-0.5-1.3-1c-0.4,0.8-1,1-1.7,1c-1.3,0-2.3-1.3-2.3-2.8C231.2,9.9,232.5,8.2,234.2,8.2L234.2,8.2z M235.2,9.6
			c-0.3-0.2-0.6-0.3-0.9-0.3c-1,0-1.8,1.2-1.8,2.3c0,0.9,0.4,1.7,1.1,1.7c0.6,0,1.1-0.9,1.3-1.7L235.2,9.6L235.2,9.6z"/>
		<path class="st0" d="M238.1,8.8c0-0.4,0.2-0.5,0.5-0.5h0.5c0.1-0.5,0.1-1,0.2-1.2c0-0.4,0.4-0.6,0.7-0.6s0.7,0.2,0.7,0.6
			c0,0.2-0.1,0.7-0.2,1.1l1.3-0.1c0.4,0,0.5,0.3,0.5,0.6s-0.2,0.6-0.5,0.6l-1.5,0.1c-0.1,0.9-0.2,1.8-0.2,2.4c0,1,0.2,1.5,0.6,1.5
			c0.3,0,0.5-0.3,0.5-0.4c0.1-0.2,0.3-0.4,0.5-0.4c0.4,0,0.6,0.2,0.6,0.6c0,0.2-0.1,0.4-0.2,0.5c-0.4,0.5-0.9,0.9-1.5,0.9
			c-1.4,0-1.7-1.6-1.7-2.8c0-0.8,0.1-1.5,0.2-2.2h-0.3C238.3,9.4,238.1,9.1,238.1,8.8L238.1,8.8z"/>
		<path class="st0" d="M244.3,5.1c0.4,0,0.9,0.3,0.9,0.8c0,0.4-0.3,0.8-0.8,0.8s-1-0.3-1-0.9C243.5,5.4,243.9,5.1,244.3,5.1
			L244.3,5.1z M244.2,8.1c0.3,0,0.7,0.2,0.6,0.5c-0.1,1.1,0,2.8,0.1,3.9c0.1,0.7,0.2,1,0.2,1.3s-0.2,0.6-0.6,0.6
			c-0.2,0-0.5-0.1-0.6-0.3c-0.3-0.5-0.4-2.5-0.4-4c0-0.7,0-1.1,0-1.4C243.5,8.3,243.9,8.1,244.2,8.1L244.2,8.1z"/>
		<path class="st0" d="M250.7,8.5c0.7,0.6,1,1.5,1,2.6c0,1.6-0.9,3.3-2.6,3.3c-1.8,0-2.8-1.4-2.8-3.1c0-1.6,0.9-3.1,2.8-3.1
			C249.7,8,250.4,8.2,250.7,8.5L250.7,8.5z M249.2,13.2c0.9,0,1.2-1.1,1.2-2.1c0-0.9-0.3-1.5-0.8-1.8c-0.2-0.1-0.4-0.1-0.6-0.1
			c-1,0-1.5,0.9-1.5,1.9C247.6,12.2,248.2,13.2,249.2,13.2z"/>
		<path class="st0" d="M254,8c0.4,0,0.6,0.2,0.6,0.5c0,0.2-0.1,0.7-0.1,0.9c0.5-0.9,1.1-1.4,2.1-1.4c1.3,0,1.9,1,1.9,2.7
			c0,1.1-0.3,2.2-0.3,3.1c0,0.4-0.3,0.6-0.6,0.6c-0.4,0-0.7-0.2-0.7-0.6c0-1.1,0.3-2,0.3-3.1s-0.5-1.4-0.9-1.4c-0.7,0-1.2,0.9-1.7,2
			c0,1.1,0,2-0.1,2.6c0,0.4-0.4,0.6-0.8,0.6c-0.6,0-0.7-0.5-0.7-0.9c0-0.6,0-1.3,0.2-2c0-1.6,0-2.3,0.1-2.9C253.4,8.1,253.7,8,254,8
			L254,8z"/>
	</g>
</g>
<g class="st1">
	<path class="st2" d="M282,5.6c0.3,0,0.6,0.2,0.6,0.5c-0.1,0.4-0.3,2.2-0.3,3.2c0,3.1,0.5,4.1,2.3,4.1c1.2,0,2.4-0.8,2.4-4.3
		c0-1.1-0.1-2.2-0.2-3.2c0-0.3,0.2-0.5,0.5-0.5c0.5,0,0.6,0.4,0.6,0.8c0.1,0.9,0.2,1.6,0.2,3.2c0,2.7-0.8,4.9-3.5,4.9
		c-2.2,0-3.2-1.4-3.2-3.5c-0.1-1.1-0.1-3.3,0.2-4.9C281.5,5.7,281.8,5.6,282,5.6z"/>
	<path class="st2" d="M293.7,9.3c0,0.3-0.3,0.5-0.5,0.5s-0.3-0.1-0.4-0.2c-0.2-0.2-0.6-0.5-1-0.5c-0.5,0-0.9,0.3-0.9,0.7
		c0,0.5,0.3,0.7,0.9,0.9c0.8,0.4,1.6,0.9,1.6,2c0,0.9-0.7,1.7-1.8,1.7c-0.9,0-1.7-0.5-2.3-0.9c-0.1-0.1-0.2-0.2-0.2-0.3
		c0-0.3,0.2-0.6,0.5-0.6c0.1,0,0.2,0,0.3,0.1c0.5,0.4,1.1,0.8,1.6,0.8c0.6,0,0.9-0.3,0.9-0.7c0-0.6-0.5-0.9-1.1-1.2
		c-1-0.5-1.5-1-1.5-1.8c0-0.9,0.9-1.6,2-1.6c0.7,0,1.4,0.3,1.8,0.9C293.7,9.1,293.7,9.2,293.7,9.3z"/>
	<path class="st2" d="M294.7,11.4c0-1.5,1.3-3.2,3-3.2c0.9,0,1.6,0.7,1.6,1.5c0,0.7-0.4,1.2-0.9,1.6c-0.8,0.6-1.7,0.7-2.7,0.8
		c0.2,0.7,0.7,1.4,1.6,1.4c0.6,0,1.1-0.4,1.5-0.9c0.1-0.1,0.2-0.2,0.3-0.2c0.3,0,0.5,0.3,0.5,0.5c0,0.1,0,0.3-0.1,0.4
		c-0.6,0.6-1.3,1-2.2,1C295.7,14.3,294.7,12.8,294.7,11.4z M297.4,10.7c0.5-0.2,0.9-0.6,0.9-1.1c0-0.3-0.2-0.6-0.7-0.6
		c-0.9,0-1.8,1-1.9,2C296.4,11,296.8,11,297.4,10.7z"/>
	<path class="st2" d="M301.9,8.1c0.3,0,0.5,0.2,0.5,0.5c0,0.2,0,0.4,0,0.7c0.5-0.8,1-1.1,1.7-1.1c0.4,0,0.8,0.1,1.1,0.4
		c0.2,0.1,0.3,0.3,0.3,0.5c0,0.3-0.2,0.5-0.5,0.5c-0.2,0-0.3-0.1-0.4-0.2c-0.2-0.1-0.4-0.2-0.6-0.2c-0.9,0-1.4,0.9-1.7,2.4
		c0,1,0,1.8-0.1,2.6c0,0.3-0.3,0.5-0.6,0.5c-0.5,0-0.6-0.5-0.6-1s0-1.3,0.1-1.8l0.1-2.9C301.3,8.2,301.6,8.1,301.9,8.1z"/>
</g>
<g class="st1">
	<path class="st2" d="M282,5.6c0.3,0,0.6,0.2,0.6,0.5c-0.1,0.4-0.3,2.2-0.3,3.2c0,3.1,0.5,4.1,2.3,4.1c1.2,0,2.4-0.8,2.4-4.3
		c0-1.1-0.1-2.2-0.2-3.2c0-0.3,0.2-0.5,0.5-0.5c0.5,0,0.6,0.4,0.6,0.8c0.1,0.9,0.2,1.6,0.2,3.2c0,2.7-0.8,4.9-3.5,4.9
		c-2.2,0-3.2-1.4-3.2-3.5c-0.1-1.1-0.1-3.3,0.2-4.9C281.5,5.7,281.8,5.6,282,5.6z"/>
	<path class="st2" d="M293.7,9.3c0,0.3-0.3,0.5-0.5,0.5s-0.3-0.1-0.4-0.2c-0.2-0.2-0.6-0.5-1-0.5c-0.5,0-0.9,0.3-0.9,0.7
		c0,0.5,0.3,0.7,0.9,0.9c0.8,0.4,1.6,0.9,1.6,2c0,0.9-0.7,1.7-1.8,1.7c-0.9,0-1.7-0.5-2.3-0.9c-0.1-0.1-0.2-0.2-0.2-0.3
		c0-0.3,0.2-0.6,0.5-0.6c0.1,0,0.2,0,0.3,0.1c0.5,0.4,1.1,0.8,1.6,0.8c0.6,0,0.9-0.3,0.9-0.7c0-0.6-0.5-0.9-1.1-1.2
		c-1-0.5-1.5-1-1.5-1.8c0-0.9,0.9-1.6,2-1.6c0.7,0,1.4,0.3,1.8,0.9C293.7,9.1,293.7,9.2,293.7,9.3z"/>
	<path class="st2" d="M294.7,11.4c0-1.5,1.3-3.2,3-3.2c0.9,0,1.6,0.7,1.6,1.5c0,0.7-0.4,1.2-0.9,1.6c-0.8,0.6-1.7,0.7-2.7,0.8
		c0.2,0.7,0.7,1.4,1.6,1.4c0.6,0,1.1-0.4,1.5-0.9c0.1-0.1,0.2-0.2,0.3-0.2c0.3,0,0.5,0.3,0.5,0.5c0,0.1,0,0.3-0.1,0.4
		c-0.6,0.6-1.3,1-2.2,1C295.7,14.3,294.7,12.8,294.7,11.4z M297.4,10.7c0.5-0.2,0.9-0.6,0.9-1.1c0-0.3-0.2-0.6-0.7-0.6
		c-0.9,0-1.8,1-1.9,2C296.4,11,296.8,11,297.4,10.7z"/>
	<path class="st2" d="M301.9,8.1c0.3,0,0.5,0.2,0.5,0.5c0,0.2,0,0.4,0,0.7c0.5-0.8,1-1.1,1.7-1.1c0.4,0,0.8,0.1,1.1,0.4
		c0.2,0.1,0.3,0.3,0.3,0.5c0,0.3-0.2,0.5-0.5,0.5c-0.2,0-0.3-0.1-0.4-0.2c-0.2-0.1-0.4-0.2-0.6-0.2c-0.9,0-1.4,0.9-1.7,2.4
		c0,1,0,1.8-0.1,2.6c0,0.3-0.3,0.5-0.6,0.5c-0.5,0-0.6-0.5-0.6-1s0-1.3,0.1-1.8l0.1-2.9C301.3,8.2,301.6,8.1,301.9,8.1z"/>
</g>
<text transform="matrix(1 0 0 1 305.6211 14.3079)" class="st2 st3 st4"> </text>
<text transform="matrix(1 0 0 1 305.6211 14.3079)" class="st2 st3 st4"> </text>
<g class="st1">
	<path class="st2" d="M309.4,14c0.2-2.6,0.4-5.2,0.5-7.8c0-0.4,0.2-0.6,0.6-0.6c1.1-0.1,2.5-0.1,4-0.1c0.4,0,0.6,0.2,0.6,0.5
		s-0.2,0.5-0.6,0.5c-1.4,0-2.5,0-3.5,0.1c0,0.9-0.1,1.9-0.2,2.8c0.9-0.1,2.4-0.2,3-0.1c0.3,0,0.5,0.2,0.5,0.5s-0.3,0.5-0.5,0.5
		c-0.6,0-2,0-3.1,0.2c-0.1,1-0.1,2.1-0.2,3.1c1-0.1,2.8-0.2,3.8-0.2c0.3,0,0.5,0.2,0.5,0.5s-0.2,0.5-0.5,0.5s-0.6,0-0.9,0
		c-1,0-2.2,0.1-3.2,0.2C309.8,14.5,309.4,14.5,309.4,14z"/>
	<path class="st2" d="M316.1,14.5c-0.3,0-0.6-0.3-0.6-0.5c0-0.1,0.1-0.2,0.1-0.3c0.7-0.8,1.3-1.5,2-2.4c-0.7-0.8-1.2-1.6-1.8-2.5
		c0-0.1-0.1-0.2-0.1-0.3c0-0.3,0.3-0.5,0.6-0.5c0.2,0,0.3,0.1,0.4,0.3c0.5,0.7,0.9,1.4,1.6,2.1c0.7-0.8,1.2-1.5,1.9-2.2
		c0.1-0.1,0.2-0.2,0.3-0.2c0.3,0,0.6,0.3,0.6,0.5c0,0.1-0.1,0.2-0.2,0.3c-0.7,0.8-1.3,1.5-2,2.3c0.7,0.9,1.3,1.6,1.9,2.4
		c0.1,0.1,0.2,0.2,0.2,0.3c0,0.3-0.3,0.5-0.6,0.5c-0.1,0-0.3-0.1-0.4-0.2c-0.6-0.8-1.1-1.4-1.8-2.2c-0.7,0.8-1.2,1.5-1.9,2.3
		C316.4,14.4,316.2,14.5,316.1,14.5z"/>
	<path class="st2" d="M322.3,17.1c0.1-2.7,0.2-3.4,0.5-8.6c0-0.3,0.4-0.5,0.6-0.5c0.3,0,0.4,0.2,0.4,0.5s0,0.5,0,0.9
		c0.6-0.8,1.2-1.2,2-1.2c1.1,0,2.1,1.3,2.1,2.8c0,1.9-1.1,3.5-2.7,3.5c-0.6,0-1.1-0.2-1.6-0.6c0,1.1-0.1,2.1-0.2,3.2
		c0,0.3-0.2,0.5-0.5,0.5C322.6,17.5,322.3,17.4,322.3,17.1z M326.7,11.1c0-1.1-0.5-2-1.1-2c-0.7,0-1.5,1-2,2.3c0,0.5,0,0.9-0.1,1.4
		c0.5,0.5,1,0.8,1.6,0.8C326,13.5,326.7,12.4,326.7,11.1z"/>
	<path class="st2" d="M328.9,11.4c0-1.5,1.3-3.2,3-3.2c0.9,0,1.6,0.7,1.6,1.5c0,0.7-0.4,1.2-0.9,1.6c-0.8,0.6-1.7,0.7-2.7,0.8
		c0.2,0.7,0.7,1.4,1.6,1.4c0.6,0,1.1-0.4,1.5-0.9c0.1-0.1,0.2-0.2,0.3-0.2c0.3,0,0.5,0.3,0.5,0.5c0,0.1,0,0.3-0.1,0.4
		c-0.6,0.6-1.3,1-2.2,1C330,14.3,328.9,12.8,328.9,11.4z M331.7,10.7c0.5-0.2,0.9-0.6,0.9-1.1c0-0.3-0.2-0.6-0.7-0.6
		c-0.9,0-1.8,1-1.9,2C330.6,11,331.1,11,331.7,10.7z"/>
	<path class="st2" d="M336.1,8.1c0.3,0,0.5,0.2,0.5,0.5c0,0.2,0,0.4,0,0.7c0.5-0.8,1-1.1,1.7-1.1c0.4,0,0.8,0.1,1.1,0.4
		c0.2,0.1,0.3,0.3,0.3,0.5c0,0.3-0.2,0.5-0.5,0.5c-0.2,0-0.3-0.1-0.4-0.2c-0.2-0.1-0.4-0.2-0.7-0.2c-0.9,0-1.4,0.9-1.7,2.4
		c0,1,0,1.8-0.1,2.6c0,0.3-0.3,0.5-0.6,0.5c-0.5,0-0.6-0.5-0.6-1s0-1.3,0.1-1.8l0.1-2.9C335.6,8.2,335.9,8.1,336.1,8.1z"/>
	<path class="st2" d="M341.3,8.1c0.3,0,0.6,0.2,0.6,0.5c0,2.2-0.2,3.1-0.2,5.4c0,0.3-0.2,0.5-0.5,0.5c-0.5,0-0.6-0.4-0.6-0.7
		s0.2-3.5,0.2-5.2C340.8,8.3,341.1,8.1,341.3,8.1z M341.3,5.3c0.8,0,0.9,0.6,0.9,0.8c0,0.4-0.4,0.9-0.8,0.9s-0.7-0.3-0.7-0.7
		C340.6,5.8,340.9,5.3,341.3,5.3z"/>
	<path class="st2" d="M343.4,11.4c0-1.5,1.3-3.2,3-3.2c0.9,0,1.6,0.7,1.6,1.5c0,0.7-0.4,1.2-0.9,1.6c-0.8,0.6-1.7,0.7-2.7,0.8
		c0.2,0.7,0.7,1.4,1.6,1.4c0.6,0,1.1-0.4,1.5-0.9c0.1-0.1,0.2-0.2,0.3-0.2c0.3,0,0.5,0.3,0.5,0.5c0,0.1,0,0.3-0.1,0.4
		c-0.6,0.6-1.3,1-2.2,1C344.4,14.3,343.4,12.8,343.4,11.4z M346.1,10.7c0.5-0.2,0.9-0.6,0.9-1.1c0-0.3-0.2-0.6-0.7-0.6
		c-0.9,0-1.8,1-1.9,2C345.1,11,345.5,11,346.1,10.7z"/>
	<path class="st2" d="M350.6,7.9c0.3,0,0.5,0.2,0.5,0.5c0,0.1-0.1,0.7-0.1,1c0.5-0.9,1.1-1.4,2-1.4c1.3,0,2,1,2,2.7
		c0,1.1-0.3,2.2-0.3,3.2c0,0.3-0.3,0.5-0.6,0.5c-0.3,0-0.6-0.2-0.6-0.5c0-1.1,0.3-2.1,0.3-3.2c0-1.3-0.5-1.7-1-1.7
		c-1,0-1.6,1.6-1.9,2.6c0,0.9,0,1.6-0.1,2.4c0,0.3-0.2,0.5-0.6,0.5c-0.5,0-0.6-0.5-0.6-0.9c0-0.6,0-1.1,0.2-1.7c0-1.7,0-2.7,0.1-3.4
		C350.1,8.1,350.3,7.9,350.6,7.9z"/>
	<path class="st2" d="M356.3,11.3c0-1.6,1.2-3.1,2.8-3.1c0.9,0,1.7,0.4,2.1,1.2c0,0.1,0,0.1,0,0.2c0,0.3-0.3,0.5-0.6,0.5
		c-0.2,0-0.3-0.1-0.5-0.3c-0.2-0.6-0.7-0.7-1-0.7c-0.8,0-1.8,0.8-1.8,2.2c0,0.9,0.5,2.1,1.4,2.1c0.7,0,1.2-0.5,1.6-0.9
		c0.1-0.1,0.2-0.2,0.3-0.2c0.3,0,0.5,0.3,0.5,0.5c0,0.1,0,0.2-0.1,0.3c-0.6,0.7-1.4,1.2-2.4,1.2C357.1,14.4,356.3,12.7,356.3,11.3z"
		/>
	<path class="st2" d="M362.3,11.4c0-1.5,1.3-3.2,3-3.2c0.9,0,1.6,0.7,1.6,1.5c0,0.7-0.4,1.2-0.9,1.6c-0.8,0.6-1.7,0.7-2.7,0.8
		c0.2,0.7,0.7,1.4,1.6,1.4c0.6,0,1.1-0.4,1.5-0.9c0.1-0.1,0.2-0.2,0.3-0.2c0.3,0,0.5,0.3,0.5,0.5c0,0.1,0,0.3-0.1,0.4
		c-0.6,0.6-1.3,1-2.2,1C363.2,14.3,362.3,12.8,362.3,11.4z M364.9,10.7c0.5-0.2,0.9-0.6,0.9-1.1c0-0.3-0.2-0.6-0.7-0.6
		c-0.9,0-1.8,1-1.9,2C363.9,11,364.3,11,364.9,10.7z"/>
</g>
<g class="st1">
	<path class="st2" d="M309.4,14c0.2-2.6,0.4-5.2,0.5-7.8c0-0.4,0.2-0.6,0.6-0.6c1.1-0.1,2.5-0.1,4-0.1c0.4,0,0.6,0.2,0.6,0.5
		s-0.2,0.5-0.6,0.5c-1.4,0-2.5,0-3.5,0.1c0,0.9-0.1,1.9-0.2,2.8c0.9-0.1,2.4-0.2,3-0.1c0.3,0,0.5,0.2,0.5,0.5s-0.3,0.5-0.5,0.5
		c-0.6,0-2,0-3.1,0.2c-0.1,1-0.1,2.1-0.2,3.1c1-0.1,2.8-0.2,3.8-0.2c0.3,0,0.5,0.2,0.5,0.5s-0.2,0.5-0.5,0.5s-0.6,0-0.9,0
		c-1,0-2.2,0.1-3.2,0.2C309.8,14.5,309.4,14.5,309.4,14z"/>
	<path class="st2" d="M316.1,14.5c-0.3,0-0.6-0.3-0.6-0.5c0-0.1,0.1-0.2,0.1-0.3c0.7-0.8,1.3-1.5,2-2.4c-0.7-0.8-1.2-1.6-1.8-2.5
		c0-0.1-0.1-0.2-0.1-0.3c0-0.3,0.3-0.5,0.6-0.5c0.2,0,0.3,0.1,0.4,0.3c0.5,0.7,0.9,1.4,1.6,2.1c0.7-0.8,1.2-1.5,1.9-2.2
		c0.1-0.1,0.2-0.2,0.3-0.2c0.3,0,0.6,0.3,0.6,0.5c0,0.1-0.1,0.2-0.2,0.3c-0.7,0.8-1.3,1.5-2,2.3c0.7,0.9,1.3,1.6,1.9,2.4
		c0.1,0.1,0.2,0.2,0.2,0.3c0,0.3-0.3,0.5-0.6,0.5c-0.1,0-0.3-0.1-0.4-0.2c-0.6-0.8-1.1-1.4-1.8-2.2c-0.7,0.8-1.2,1.5-1.9,2.3
		C316.4,14.4,316.2,14.5,316.1,14.5z"/>
	<path class="st2" d="M322.3,17.1c0.1-2.7,0.2-3.4,0.5-8.6c0-0.3,0.4-0.5,0.6-0.5c0.3,0,0.4,0.2,0.4,0.5s0,0.5,0,0.9
		c0.6-0.8,1.2-1.2,2-1.2c1.1,0,2.1,1.3,2.1,2.8c0,1.9-1.1,3.5-2.7,3.5c-0.6,0-1.1-0.2-1.6-0.6c0,1.1-0.1,2.1-0.2,3.2
		c0,0.3-0.2,0.5-0.5,0.5C322.6,17.5,322.3,17.4,322.3,17.1z M326.7,11.1c0-1.1-0.5-2-1.1-2c-0.7,0-1.5,1-2,2.3c0,0.5,0,0.9-0.1,1.4
		c0.5,0.5,1,0.8,1.6,0.8C326,13.5,326.7,12.4,326.7,11.1z"/>
	<path class="st2" d="M328.9,11.4c0-1.5,1.3-3.2,3-3.2c0.9,0,1.6,0.7,1.6,1.5c0,0.7-0.4,1.2-0.9,1.6c-0.8,0.6-1.7,0.7-2.7,0.8
		c0.2,0.7,0.7,1.4,1.6,1.4c0.6,0,1.1-0.4,1.5-0.9c0.1-0.1,0.2-0.2,0.3-0.2c0.3,0,0.5,0.3,0.5,0.5c0,0.1,0,0.3-0.1,0.4
		c-0.6,0.6-1.3,1-2.2,1C330,14.3,328.9,12.8,328.9,11.4z M331.7,10.7c0.5-0.2,0.9-0.6,0.9-1.1c0-0.3-0.2-0.6-0.7-0.6
		c-0.9,0-1.8,1-1.9,2C330.6,11,331.1,11,331.7,10.7z"/>
	<path class="st2" d="M336.1,8.1c0.3,0,0.5,0.2,0.5,0.5c0,0.2,0,0.4,0,0.7c0.5-0.8,1-1.1,1.7-1.1c0.4,0,0.8,0.1,1.1,0.4
		c0.2,0.1,0.3,0.3,0.3,0.5c0,0.3-0.2,0.5-0.5,0.5c-0.2,0-0.3-0.1-0.4-0.2c-0.2-0.1-0.4-0.2-0.7-0.2c-0.9,0-1.4,0.9-1.7,2.4
		c0,1,0,1.8-0.1,2.6c0,0.3-0.3,0.5-0.6,0.5c-0.5,0-0.6-0.5-0.6-1s0-1.3,0.1-1.8l0.1-2.9C335.6,8.2,335.9,8.1,336.1,8.1z"/>
	<path class="st2" d="M341.3,8.1c0.3,0,0.6,0.2,0.6,0.5c0,2.2-0.2,3.1-0.2,5.4c0,0.3-0.2,0.5-0.5,0.5c-0.5,0-0.6-0.4-0.6-0.7
		s0.2-3.5,0.2-5.2C340.8,8.3,341.1,8.1,341.3,8.1z M341.3,5.3c0.8,0,0.9,0.6,0.9,0.8c0,0.4-0.4,0.9-0.8,0.9s-0.7-0.3-0.7-0.7
		C340.6,5.8,340.9,5.3,341.3,5.3z"/>
	<path class="st2" d="M343.4,11.4c0-1.5,1.3-3.2,3-3.2c0.9,0,1.6,0.7,1.6,1.5c0,0.7-0.4,1.2-0.9,1.6c-0.8,0.6-1.7,0.7-2.7,0.8
		c0.2,0.7,0.7,1.4,1.6,1.4c0.6,0,1.1-0.4,1.5-0.9c0.1-0.1,0.2-0.2,0.3-0.2c0.3,0,0.5,0.3,0.5,0.5c0,0.1,0,0.3-0.1,0.4
		c-0.6,0.6-1.3,1-2.2,1C344.4,14.3,343.4,12.8,343.4,11.4z M346.1,10.7c0.5-0.2,0.9-0.6,0.9-1.1c0-0.3-0.2-0.6-0.7-0.6
		c-0.9,0-1.8,1-1.9,2C345.1,11,345.5,11,346.1,10.7z"/>
	<path class="st2" d="M350.6,7.9c0.3,0,0.5,0.2,0.5,0.5c0,0.1-0.1,0.7-0.1,1c0.5-0.9,1.1-1.4,2-1.4c1.3,0,2,1,2,2.7
		c0,1.1-0.3,2.2-0.3,3.2c0,0.3-0.3,0.5-0.6,0.5c-0.3,0-0.6-0.2-0.6-0.5c0-1.1,0.3-2.1,0.3-3.2c0-1.3-0.5-1.7-1-1.7
		c-1,0-1.6,1.6-1.9,2.6c0,0.9,0,1.6-0.1,2.4c0,0.3-0.2,0.5-0.6,0.5c-0.5,0-0.6-0.5-0.6-0.9c0-0.6,0-1.1,0.2-1.7c0-1.7,0-2.7,0.1-3.4
		C350.1,8.1,350.3,7.9,350.6,7.9z"/>
	<path class="st2" d="M356.3,11.3c0-1.6,1.2-3.1,2.8-3.1c0.9,0,1.7,0.4,2.1,1.2c0,0.1,0,0.1,0,0.2c0,0.3-0.3,0.5-0.6,0.5
		c-0.2,0-0.3-0.1-0.5-0.3c-0.2-0.6-0.7-0.7-1-0.7c-0.8,0-1.8,0.8-1.8,2.2c0,0.9,0.5,2.1,1.4,2.1c0.7,0,1.2-0.5,1.6-0.9
		c0.1-0.1,0.2-0.2,0.3-0.2c0.3,0,0.5,0.3,0.5,0.5c0,0.1,0,0.2-0.1,0.3c-0.6,0.7-1.4,1.2-2.4,1.2C357.1,14.4,356.3,12.7,356.3,11.3z"
		/>
	<path class="st2" d="M362.3,11.4c0-1.5,1.3-3.2,3-3.2c0.9,0,1.6,0.7,1.6,1.5c0,0.7-0.4,1.2-0.9,1.6c-0.8,0.6-1.7,0.7-2.7,0.8
		c0.2,0.7,0.7,1.4,1.6,1.4c0.6,0,1.1-0.4,1.5-0.9c0.1-0.1,0.2-0.2,0.3-0.2c0.3,0,0.5,0.3,0.5,0.5c0,0.1,0,0.3-0.1,0.4
		c-0.6,0.6-1.3,1-2.2,1C363.2,14.3,362.3,12.8,362.3,11.4z M364.9,10.7c0.5-0.2,0.9-0.6,0.9-1.1c0-0.3-0.2-0.6-0.7-0.6
		c-0.9,0-1.8,1-1.9,2C363.9,11,364.3,11,364.9,10.7z"/>
</g>
<circle class="st0" cx="100.4" cy="11.1" r="1.3"/>
<circle class="st0" cx="187.4" cy="11.1" r="1.3"/>
<circle class="st0" cx="269.5" cy="11.1" r="1.3"/>
</svg>
