<?xml version="1.0" encoding="UTF-8"?>
<svg id="Layer_2" data-name="Layer 2" xmlns="http://www.w3.org/2000/svg" viewBox="0 0 268.32 20.92">
  <defs>
    <style>
      .cls-1 {
        stroke-width: 1.03px;
      }

      .cls-1, .cls-2, .cls-3 {
        fill: #fff;
        stroke: #231f20;
        stroke-miterlimit: 10;
      }

      .cls-2 {
        stroke-width: 1px;
      }

      .cls-4 {
        stroke-width: 0px;
      }

      .cls-3 {
        stroke-width: 1.09px;
      }
    </style>
  </defs>
  <g id="Layer_1-2" data-name="Layer 1">
    <g>
      <rect class="cls-3" x=".54" y=".54" width="89.19" height="19.83" rx="9.91" ry="9.91"/>
      <g>
        <path class="cls-4" d="M6.78,14.8c-.43,0-.65-.31-.65-.55,0-.11.04-.19.07-.27.93-2.09,3.31-7.71,3.6-8.41.16-.36.37-.48.72-.48.51,0,.74.37.9.85.85,2.45,2.03,5.4,3.54,7.97.04.07.06.16.06.24,0,.35-.32.56-.68.56-.31,0-.59-.1-.73-.36-.39-.68-.81-1.54-1.23-2.47-.79-.08-1.39-.13-2.03-.13-.41,0-.8.02-1.17.04-.16.01-.32-.06-.45-.18-.38.97-.76,1.91-1.16,2.77-.17.37-.44.43-.78.43ZM11.81,10.55c-.47-1.15-.92-2.34-1.33-3.48-.44,1.11-.88,2.28-1.35,3.45.24-.06.53-.08.85-.08.66,0,1.33.05,1.83.11Z"/>
        <path class="cls-4" d="M17.18,7.93c.39,0,.63.18.63.5,0,.16,0,.41-.04.73.44-.79,1.05-1.22,1.79-1.22.32,0,.75.07,1.21.35.19.12.32.29.27.62-.04.42-.29.63-.6.63-.17,0-.29-.07-.42-.14-.17-.1-.35-.19-.61-.19-.88,0-1.39.96-1.72,2.29-.02,1.08-.05,1.88-.05,2.57-.01.38-.39.55-.67.55-.67,0-.78-.53-.78-1.12,0-.48.05-1.42.13-1.91l.1-3.07c.01-.39.27-.59.74-.59Z"/>
        <path class="cls-4" d="M21.9,8.71c0-.36.25-.53.5-.54l.48-.02c.07-.54.14-1.12.16-1.28.04-.43.35-.59.71-.59s.72.16.68.59c-.01.25-.08.73-.16,1.18l1.36-.1c.38-.02.54.29.54.56,0,.31-.16.56-.5.59l-1.55.1c-.11.87-.23,1.86-.23,2.46.01,1.08.25,1.64.61,1.64.26,0,.48-.26.53-.36.14-.25.32-.37.53-.37.36,0,.62.25.62.59,0,.19-.08.37-.22.54-.35.53-.99.88-1.64.88-1.46,0-1.8-1.67-1.8-2.95,0-.76.1-1.56.2-2.33l-.31.02c-.31.02-.5-.29-.5-.61Z"/>
        <path class="cls-4" d="M31.72,5.34c.22,0,.36.02.54.13.36-.08.88-.12,1.27-.12,2.53,0,4.93,1.53,4.93,4.35,0,4.37-3.63,4.83-6.95,4.83h-.1c-.37,0-.66-.22-.62-.59.21-2.35.36-5.83.3-7.93,0-.47.3-.67.63-.67ZM37.02,9.75c0-1.86-1.42-3.19-3.5-3.19-.35,0-.68.02-1.06.1.02,1.91-.1,4.59-.25,6.63,3.39-.08,4.81-.98,4.81-3.54Z"/>
        <path class="cls-4" d="M40.91,7.9c.42,0,.73.21.68.66-.27,2.27-.18,3.85-.31,5.47-.02.41-.27.6-.66.6-.49,0-.72-.24-.69-.74.07-.85.07-4.12.33-5.57.06-.29.32-.42.65-.42ZM40.96,4.87c.53,0,.9.35.9.88,0,.47-.38.82-.82.82-.63,0-.98-.33-.98-.87,0-.47.36-.84.91-.84Z"/>
        <path class="cls-4" d="M44.29,8.12c.36,0,.65.18.65.5-.01.21-.04.51-.04.88.53-1.11,1.47-1.67,2.23-1.67.36,0,.81.11,1.04.31.16.13.24.31.24.53,0,.43-.26.68-.63.68-.31,0-.43-.21-.81-.21-.66,0-1.24.56-1.53,1.22-.38.86-.57,2.1-.7,3.82-.01.35-.33.53-.79.53-.31,0-.63-.17-.61-.59.06-1.68.14-3.67.21-5.34.01-.45.29-.66.74-.66Z"/>
        <path class="cls-4" d="M48.99,11.41c0-1.73,1.35-3.43,3.17-3.43,1.02,0,1.78.65,1.77,1.65.01,1.11-.94,2.41-3.46,2.58.21.72.71,1.16,1.39,1.16.62,0,1.18-.2,1.67-.82.2-.24.36-.35.54-.35.29,0,.51.27.51.61,0,.22-.13.44-.44.76-.61.63-1.43.97-2.31.97-1.76,0-2.83-1.35-2.83-3.13ZM50.37,11.14c1.25-.05,2.28-.69,2.28-1.51,0-.33-.2-.57-.6-.56-.8-.01-1.6.82-1.68,2.07Z"/>
        <path class="cls-4" d="M60.24,9.87c-.44,0-.74-.73-1.51-.69-.81.04-1.62,1.29-1.62,2.68,0,.86.49,1.58,1.23,1.58.33,0,.74-.18,1-.38s.39-.38.62-.38c.25,0,.57.32.59.67,0,.16-.08.29-.23.42-.62.6-1.33.86-2.04.86-1.4,0-2.57-1-2.57-2.77,0-1.95,1.31-3.83,3.05-3.83.79,0,1.54.42,1.84.78.19.2.24.36.24.49,0,.31-.31.6-.6.6Z"/>
        <path class="cls-4" d="M61.93,8.71c0-.36.25-.53.5-.54l.48-.02c.07-.54.14-1.12.16-1.28.04-.43.35-.59.71-.59s.72.16.68.59c-.01.25-.08.73-.16,1.18l1.36-.1c.38-.02.54.29.54.56,0,.31-.16.56-.5.59l-1.55.1c-.11.87-.23,1.86-.23,2.46.01,1.08.25,1.64.61,1.64.26,0,.48-.26.53-.36.14-.25.32-.37.53-.37.36,0,.62.25.62.59,0,.19-.08.37-.22.54-.35.53-.99.88-1.64.88-1.46,0-1.8-1.67-1.8-2.95,0-.76.1-1.56.2-2.33l-.31.02c-.31.02-.5-.29-.5-.61Z"/>
        <path class="cls-4" d="M68.41,4.75c.35,0,.97.3.97.81,0,.42-.31.81-.76.81-.48,0-1.11-.3-1.11-.87,0-.39.44-.75.91-.75ZM68.32,8c.31,0,.66.16.63.54-.05,1.16-.04,2.93.13,4.1.1.67.18,1.1.18,1.36,0,.32-.17.56-.6.56-.24,0-.5-.05-.62-.33-.26-.54-.45-2.63-.45-4.16,0-.72.01-1.21.02-1.53.02-.38.35-.54.71-.54Z"/>
        <path class="cls-4" d="M75.12,8.38c.74.6,1.08,1.6,1.08,2.65,0,1.74-.93,3.48-2.66,3.48-1.85,0-3.02-1.52-3.02-3.29,0-1.67,1.03-3.31,3-3.31.55,0,1.27.16,1.61.47ZM73.48,13.31c.94,0,1.33-1.21,1.33-2.21,0-.94-.3-1.58-.79-1.91-.19-.06-.37-.07-.55-.07-1.05,0-1.58.97-1.58,2.02,0,1.11.55,2.17,1.59,2.17Z"/>
        <path class="cls-4" d="M78.57,7.87c.35,0,.62.22.62.5,0,.16-.08.66-.11,1.03.53-.94,1.23-1.49,2.16-1.49,1.35,0,2.01,1.11,2.01,2.76,0,1.21-.32,2.33-.32,3.31,0,.43-.32.59-.65.59-.37,0-.72-.16-.72-.55,0-1.17.32-2.13.32-3.32s-.45-1.54-.97-1.54c-.72,0-1.33.91-1.78,2.1,0,1.19-.04,2.08-.07,2.72-.01.36-.35.56-.76.56-.56,0-.69-.47-.69-.99,0-.63.04-1.43.17-2.09-.02-1.74-.02-2.39.11-3.12.07-.37.44-.47.68-.47Z"/>
      </g>
    </g>
    <g>
      <rect class="cls-1" x="101.36" y=".54" width="80.69" height="19.83" rx="9.91" ry="9.91"/>
      <g>
        <path class="cls-4" d="M107.61,14.66c-.45,0-.67-.33-.67-.56,0-.12.04-.19.07-.27,3-6.39,3.41-7.4,3.86-8.36.14-.32.41-.41.74-.41.41,0,.73.22.91.69.39,1.15,1.2,2.87,2,4.58.04,0,.07,0,.11-.01.31,0,.6.24.6.65,0,.21-.08.36-.19.45.42.9.81,1.74,1.13,2.46.04.08.06.17.06.24,0,.3-.25.53-.72.53-.42,0-.63-.18-.8-.54-.31-.68-.69-1.55-1.1-2.47-1.41.01-2.86.07-4.15.18-.37.85-.73,1.66-1.09,2.41-.16.35-.39.44-.76.44ZM110.03,10.49c.74-.04,1.98-.1,3.04-.13-.54-1.25-1.06-2.52-1.47-3.5-.53,1.18-1.05,2.41-1.57,3.63Z"/>
        <path class="cls-4" d="M122.16,4.68c.45,0,.72.19.72.98,0,1.77-.37,3.54-.37,5.3,0,1.47.35,2.34.9,2.52.26.07.39.29.39.57,0,.38-.24.63-.67.63-.71,0-1.29-.41-1.68-1.3-.35.73-1.06,1.19-1.79,1.19-1.46,0-2.58-1.3-2.58-3.25s1.45-3.46,3.05-3.46c.43,0,.81.12,1.17.39.13-1.12.24-2.21.18-3.03-.01-.35.32-.55.69-.55ZM119.78,13.37c.71,0,1.17-.65,1.36-1.94-.05-.57-.01-1.46.05-1.98-.31-.27-.63-.43-.99-.43-.88,0-1.72,1-1.72,2.26,0,1.14.53,2.09,1.3,2.09Z"/>
        <path class="cls-4" d="M124.93,8.16c.18,0,.39.04.53.26.61,1.09,1.08,2.74,1.43,4.48.71-1.7,1.24-3.12,1.88-4.62.1-.24.25-.31.54-.31.31,0,.69.17.69.49-.01.32-.38,1.18-.55,1.55-.36.85-1.19,2.7-1.7,3.8-.38.79-.78.86-1.11.86-.29,0-.57-.16-.66-.54-.37-1.65-.96-3.37-1.65-5.15-.04-.08-.05-.17-.05-.24,0-.37.32-.59.65-.59Z"/>
        <path class="cls-4" d="M133.75,14.69c-1.58,0-3.05-1.17-3.05-3.35s1.71-3.37,3.19-3.37c1.09,0,1.94.55,1.94,1.64,0,.93-.81,2.1-3.64,2.57.25.96.92,1.39,1.64,1.39.53,0,.96-.18,1.34-.59.18-.19.36-.37.6-.37.35,0,.53.29.53.56,0,.16-.04.3-.17.45-.56.71-1.49,1.06-2.37,1.06ZM132.07,11.16c1.77-.33,2.4-.98,2.4-1.53,0-.39-.29-.59-.67-.59-.73,0-1.68.75-1.73,2.11Z"/>
        <path class="cls-4" d="M138.9,7.99c.32,0,.67.16.63.57l-.1.8c.44-.92,1.03-1.39,1.71-1.39.61,0,1.42.42,1.42.97,0,.42-.29.76-.68.76-.2,0-.35-.11-.47-.23-.11-.13-.24-.22-.47-.22-.51,0-1.16.65-1.69,2.66l-.14,1.96c-.02.44-.36.63-.73.63-.55,0-.78-.41-.78-.91,0-.41.16-1.15.28-1.49l.29-3.56c.02-.42.38-.57.72-.57Z"/>
        <path class="cls-4" d="M143.48,8.71c0-.36.25-.53.5-.54l.48-.02c.07-.54.14-1.12.16-1.28.04-.43.35-.59.71-.59s.72.16.68.59c-.01.25-.08.73-.16,1.18l1.36-.1c.38-.02.54.29.54.56,0,.31-.16.56-.5.59l-1.55.1c-.11.87-.23,1.86-.23,2.46.01,1.08.25,1.64.61,1.64.26,0,.48-.26.53-.36.14-.25.32-.37.53-.37.36,0,.62.25.62.59,0,.19-.08.37-.21.54-.35.53-.99.88-1.64.88-1.46,0-1.8-1.67-1.8-2.95,0-.76.1-1.56.2-2.33l-.31.02c-.31.02-.5-.29-.5-.61Z"/>
        <path class="cls-4" d="M149.98,8.09c.45,0,.78.26.72.68-.2,1.39-.33,3.85-.28,5.22.01.38-.32.6-.73.6-.43,0-.63-.26-.63-.82,0-2.14.2-4.43.3-5.11.05-.36.31-.56.62-.56ZM150.12,5.03c.49,0,.87.43.87.92,0,.45-.33.78-.8.78s-.81-.42-.81-.99c0-.36.36-.71.74-.71Z"/>
        <path class="cls-4" d="M156.85,8.87c-.02.36-.31.66-.65.66-.11,0-.24-.02-.35-.11-.29-.24-.67-.44-1.21-.44s-1.12.31-1.12.7c0,.31.27.53,1.36.85,1.47.45,1.92,1.21,1.92,2.03,0,1.29-1.11,2.06-2.66,2.06-1.2,0-1.98-.5-2.15-1.27-.06-.32.24-.69.6-.69.22,0,.38.12.5.37.12.25.59.42,1.09.42.8,0,1.27-.29,1.27-.69,0-.35-.24-.74-1.49-1.12-1.17-.37-1.77-.87-1.77-1.78,0-1.22,1.28-2,2.58-2,.68,0,1.34.21,1.91.67.12.11.17.23.17.35Z"/>
        <path class="cls-4" d="M159.17,4.75c.35,0,.97.3.97.81,0,.42-.31.81-.76.81-.48,0-1.11-.3-1.11-.87,0-.39.44-.75.91-.75ZM159.08,8c.31,0,.66.16.63.54-.05,1.16-.04,2.93.13,4.1.1.67.18,1.1.18,1.36,0,.32-.17.56-.6.56-.24,0-.5-.05-.62-.33-.26-.54-.45-2.63-.45-4.16,0-.72.01-1.21.02-1.53.02-.38.35-.54.7-.54Z"/>
        <path class="cls-4" d="M161.67,8.38c0-.31.26-.55.69-.55.32,0,.63.23.73.68.04.18.07.48.08.98.56-1,1.45-1.51,2.31-1.51,1.4,0,2.05,1,2.05,2.82,0,.96-.21,2.33-.43,3.33-.06.29-.32.43-.59.43-.66,0-.82-.32-.74-.72.2-.9.37-2.03.37-3.07s-.23-1.55-.92-1.55c-1.04,0-1.72,1.03-1.98,2.69-.08.49-.07,1.11-.07,2.06,0,.36-.24.56-.68.56-.36,0-.68-.2-.68-.6,0-.73.06-2.39.06-3.51,0-1.37-.2-1.78-.2-2.04Z"/>
        <path class="cls-4" d="M172.1,7.88c.42,0,.82.1,1.19.3.08-.24.29-.29.53-.29.44,0,.67.13.67.44v.43c.08.11.13.23.13.42,0,.18-.06.35-.14.45v.3c0,.54.01,1.06.01,1.71,0,.86-.05,1.79-.13,2.65-.2,2.11-1.12,3.5-2.64,3.5-.67,0-1.53-.3-2.37-.96-.17-.13-.26-.29-.26-.47,0-.26.26-.66.57-.66.16,0,.35.08.51.2.45.32.98.66,1.49.66.73,0,1.1-.84,1.25-1.67.13-.72.16-.96.21-1.45-.42.73-1.03,1.05-1.76,1.05-1.49,0-2.53-1.34-2.53-2.94,0-1.97,1.48-3.69,3.25-3.69ZM172.94,11.29c.07-.44.12-1.74.12-1.92-.26-.23-.65-.32-.88-.32-1.08,0-1.92,1.18-1.92,2.54,0,1.03.6,1.74,1.31,1.74.8,0,1.16-.78,1.37-2.04Z"/>
      </g>
    </g>
    <g>
      <rect class="cls-2" x="193.02" y=".54" width="74.8" height="19.83" rx="9.87" ry="9.87"/>
      <g>
        <path class="cls-4" d="M200.45,5.21c.33,0,.68.16.67.54-.13,2.68-.27,5.5-.38,8.28-.02.39-.36.55-.71.55s-.68-.16-.67-.55c.13-2.78.27-5.6.39-8.28.01-.38.33-.54.69-.54Z"/>
        <path class="cls-4" d="M203.98,4.66c.35,0,.64.16.64.54-.01,1.45-.14,2.96-.24,4.49-.06.93-.11,1.88-.11,2.82,0,.47-.01,1,.02,1.51.02.33-.3.56-.72.56-.5,0-.66-.36-.66-.71,0-1.91.06-3.2.13-4.22.09-1.36.2-2.6.23-4.46,0-.38.37-.54.69-.54Z"/>
        <path class="cls-4" d="M207.32,4.6c.33,0,.68.16.64.62-.21,2.86-.2,5.88-.37,8.78-.02.43-.35.59-.68.59s-.68-.16-.65-.59c.18-2.9.17-5.93.39-8.87.02-.38.33-.54.66-.54Z"/>
        <path class="cls-4" d="M209.65,8.59c.01-.48.36-.63.68-.63.35,0,.72.2.69.63-.04.48-.16,1.66-.16,2.26,0,1.53.19,2.35.74,2.35.81,0,1.41-1.11,1.74-2,.11-1.02.16-2.1.22-2.6.06-.51.36-.63.64-.63.61,0,.83.44.83,1.03,0,.79-.16,1.58-.32,2.09-.07,1.02-.11,2.26-.08,2.84.02.45-.3.67-.67.68-.41.01-.63-.23-.64-.61v-.82c-.49.82-1.18,1.31-1.89,1.31-1.49,0-1.95-1.89-1.95-3.33,0-.87.13-1.85.17-2.57Z"/>
        <path class="cls-4" d="M221.18,8.87c-.02.36-.31.66-.65.66-.11,0-.24-.02-.35-.11-.29-.24-.67-.44-1.21-.44s-1.12.31-1.12.7c0,.31.28.53,1.36.85,1.47.45,1.92,1.21,1.92,2.03,0,1.29-1.11,2.06-2.66,2.06-1.2,0-1.98-.5-2.15-1.27-.06-.32.24-.69.6-.69.21,0,.38.12.5.37s.59.42,1.09.42c.8,0,1.27-.29,1.27-.69,0-.35-.24-.74-1.49-1.12-1.17-.37-1.77-.87-1.77-1.78,0-1.22,1.28-2,2.58-2,.68,0,1.34.21,1.91.67.12.11.17.23.17.35Z"/>
        <path class="cls-4" d="M222.27,8.68c0-.41.42-.56,1.05-.61.04-.36.07-.73.1-1.08.04-.42.32-.57.68-.57s.72.16.72.57c-.02.36-.05.73-.08,1.09.59.04,1.1.08,1.34.13.33.06.43.25.43.48,0,.33-.18.66-.51.66-.22,0-.61-.08-1.35-.1-.06.72-.11,1.47-.11,2.22,0,1.46.17,1.76.35,1.76.29,0,.44-.23.57-.45.12-.18.3-.33.53-.33.3,0,.6.21.6.6,0,.44-.62,1.4-1.84,1.4-1.48,0-1.61-1.48-1.61-3.02,0-.67.05-1.4.11-2.13-.13,0-.26.01-.43.01-.31,0-.53-.32-.53-.62Z"/>
        <path class="cls-4" d="M228.87,7.99c.41,0,.63.19.63.51,0,.17-.01.35-.02.73.44-.82,1.03-1.27,1.76-1.27.35,0,.78.06,1.22.32.19.12.29.26.29.5,0,.29-.23.71-.59.71-.39,0-.55-.24-.99-.24-.85,0-1.43,1.03-1.75,2.21-.04,1.15-.04,1.86-.08,2.59-.05.47-.39.6-.72.6-.63,0-.71-.56-.71-1.16,0-.48.05-1.42.13-1.91l.1-3.02c.02-.42.31-.57.73-.57Z"/>
        <path class="cls-4" d="M236.47,8.11c.45,0,.87.13,1.16.29.05-.36.3-.53.66-.54.47-.01.66.32.66.62,0,.26-.12,1.3-.27,2.75-.05.39-.06.78-.06.93.02.9.13,1.36.41,1.36.31,0,.36-.31.69-.31.29,0,.42.16.42.49,0,.26-.1.47-.26.63-.25.23-.6.35-.99.35-.73,0-1.13-.49-1.36-1.15-.45.75-1.13,1.15-1.83,1.15-1.43,0-2.38-1.42-2.38-2.92,0-1.91,1.39-3.66,3.17-3.66ZM237.49,9.56c-.27-.2-.58-.31-.91-.31-1.13,0-1.88,1.3-1.88,2.41,0,.98.42,1.82,1.18,1.82.61,0,1.17-.88,1.37-1.84l.23-2.08Z"/>
        <path class="cls-4" d="M240.63,8.71c0-.36.25-.53.5-.54l.48-.02c.07-.54.14-1.12.16-1.28.04-.43.35-.59.71-.59s.72.16.68.59c-.01.25-.08.73-.16,1.18l1.36-.1c.38-.02.54.29.54.56,0,.31-.16.56-.5.59l-1.55.1c-.11.87-.23,1.86-.23,2.46.01,1.08.25,1.64.61,1.64.26,0,.48-.26.53-.36.14-.25.32-.37.53-.37.36,0,.62.25.62.59,0,.19-.08.37-.21.54-.35.53-.99.88-1.64.88-1.46,0-1.8-1.67-1.8-2.95,0-.76.1-1.56.2-2.33l-.31.02c-.31.02-.5-.29-.5-.61Z"/>
        <path class="cls-4" d="M247.11,4.75c.35,0,.97.3.97.81,0,.42-.31.81-.76.81-.48,0-1.11-.3-1.11-.87,0-.39.44-.75.91-.75ZM247.02,8c.31,0,.66.16.63.54-.05,1.16-.04,2.93.13,4.1.1.67.18,1.1.18,1.36,0,.32-.17.56-.6.56-.24,0-.5-.05-.62-.33-.26-.54-.45-2.63-.45-4.16,0-.72.01-1.21.02-1.53.02-.38.35-.54.71-.54Z"/>
        <path class="cls-4" d="M253.82,8.38c.74.6,1.08,1.6,1.08,2.65,0,1.74-.93,3.48-2.66,3.48-1.85,0-3.02-1.52-3.02-3.29,0-1.67,1.03-3.31,3-3.31.55,0,1.27.16,1.61.47ZM252.19,13.31c.94,0,1.33-1.21,1.33-2.21,0-.94-.3-1.58-.79-1.91-.19-.06-.37-.07-.55-.07-1.05,0-1.58.97-1.58,2.02,0,1.11.55,2.17,1.59,2.17Z"/>
        <path class="cls-4" d="M257.27,7.87c.35,0,.62.22.62.5,0,.16-.08.66-.11,1.03.53-.94,1.23-1.49,2.16-1.49,1.35,0,2.01,1.11,2.01,2.76,0,1.21-.32,2.33-.32,3.31,0,.43-.32.59-.64.59-.37,0-.72-.16-.72-.55,0-1.17.32-2.13.32-3.32s-.45-1.54-.97-1.54c-.72,0-1.33.91-1.78,2.1,0,1.19-.04,2.08-.07,2.72-.01.36-.35.56-.76.56-.56,0-.69-.47-.69-.99,0-.63.04-1.43.17-2.09-.02-1.74-.02-2.39.11-3.12.07-.37.44-.47.68-.47Z"/>
      </g>
    </g>
  </g>
</svg>