<?xml version="1.0" encoding="UTF-8"?>
<svg id="Layer_2" data-name="Layer 2" xmlns="http://www.w3.org/2000/svg" viewBox="0 0 294.2 46.35">
  <defs>
    <style>
      .cls-1 {
        fill: none;
        stroke: #000;
        stroke-linecap: round;
        stroke-linejoin: round;
        stroke-width: 1.02px;
      }

      .cls-2, .cls-3 {
        stroke-width: 0px;
      }

      .cls-3 {
        fill: #fff;
      }
    </style>
  </defs>
  <g id="Layer_1-2" data-name="Layer 1">
    <g>
      <g>
        <path class="cls-2" d="M6.84,31.6c-.12,2.87-.24,5.68-.4,8.36-.06,1.4-1.62,1.8-3.11,1.8-1.37,0-2.78-.4-2.72-1.8.15-2.56.27-5.25.4-8-.7-.37-1.01-1.22-1.01-2.23,0-.95.27-1.92,1.16-2.29.09-2.69.15-5.31.18-7.81.03-1.4,1.37-1.8,2.81-1.8,1.53,0,3.08.4,3.05,1.8-.03,2.29-.09,4.7-.18,7.11,2.04-.15,4.21-.24,6.1-.24.61,0,1.28,0,1.98.03,0-2.53.03-5.01.03-7.14,0-1.4,1.5-1.8,3.08-1.8,1.37,0,2.78.4,2.78,1.8,0,2.26-.03,4.85-.06,7.51.92.34,1.16,1.25,1.16,2.29s-.27,2.08-1.25,2.32c-.03,2.93-.12,5.8-.18,8.27-.06,1.4-1.43,1.8-2.81,1.8-1.59,0-3.08-.4-3.02-1.8.09-2.5.15-5.43.18-8.42-.64-.03-1.28-.03-1.89-.03-2.5,0-4.58.12-6.29.27Z"/>
        <path class="cls-2" d="M24.58,40.24c.49-6.41.98-13.7,1.31-20.24.06-1.28.43-1.83,1.83-1.92,2.81-.21,7.48-.34,11.41-.34,1.31,0,1.92.52,1.92,1.92,0,2.35-.61,2.9-1.77,2.9-3.75,0-4.88.09-7.78.31-.15,1.98-.15,2.53-.31,4.46,2.66-.34,4.7-.46,6.59-.37.7,0,1.5.52,1.5,2.11,0,2.2-.89,2.72-1.53,2.72-1.56-.09-3.66-.03-6.81.4-.15,1.83-.24,3.17-.4,4.79,2.81-.18,5.68-.49,8.27-.52,1.01,0,1.62.55,1.56,2.17-.09,2.08-.67,2.66-1.47,2.66s-1.65,0-2.47.03c-2.87.09-7.14.31-9.98.61-.67.03-2.01-.06-1.89-1.68Z"/>
        <path class="cls-2" d="M48.3,40.08c-.06-1.1.03-3.36.03-6.47.03-1.56-.06-2.75-.79-4.06-2.56-4.76-4.27-7.54-4.64-8.3-.31-.64-.46-1.16-.46-1.62,0-1.68,1.83-2.29,2.99-2.29s1.56.46,1.98,1.19c1.01,1.95,2.56,4.24,3.2,5.46.58,1.07.79,1.53.98,1.95,1.74-2.41,3.97-5.68,5.1-7.17.55-.7,1.13-1.16,2.04-1.16,1.28,0,2.9.85,2.9,2.14,0,.58-.27,1.31-.98,2.17-.76.95-4.7,6.71-6.99,9.8.15.73.21,1.59.21,2.14,0,2.32-.03,5.22-.03,6.23,0,1.4-1.37,1.8-2.75,1.8s-2.75-.4-2.81-1.8Z"/>
        <path class="cls-2" d="M77.93,19.7v.06c.34-.27.61-.46.79-.46,1.07,0,1.8,1.01,2.29,1.68,1.77,2.44,2.41,5.55,2.41,8.67,0,6.65-4.85,12.42-11.66,12.42-8.18,0-10.99-6.32-10.99-11.02,0-6.44,4.21-13.49,12.27-13.49,1.1,0,2.78.15,3.88.82.61.37,1.01.79,1.01,1.31ZM71.88,37.18c3.14,0,5.62-2.72,5.62-7.51,0-2.78-.61-4-1.37-4.97-.24-.31-.7-.79-.7-1.43,0-.21.15-.55.37-.95-.4.31-.82.49-1.19.52-.76.03-1.19-.34-2.23-.34-3.57,0-5.65,3.78-5.65,8.06,0,4,1.95,6.62,5.16,6.62Z"/>
        <path class="cls-2" d="M85.09,38.89c0-1.65,1.37-2.84,3.14-2.84s2.99,1.22,2.99,3.02-1.22,2.93-3.08,2.93-3.05-1.37-3.05-3.11ZM85.89,31.69c.06-.76.4-9.16.49-12.15.03-1.25.79-1.83,2.41-1.83s2.38.58,2.32,1.83c-.24,5.65-.31,6.41-.43,12.79-.06,1.25-.85,1.83-2.38,1.83-1.74,0-2.53-.79-2.41-2.47Z"/>
        <path class="cls-2" d="M109.84,17.93c1.89,0,3.08.49,2.96,1.92-.55,6.56-.92,13.73-1.04,20.36-.03,1.37-1.37,1.77-3.08,1.77-1.59,0-2.78-.4-2.75-2.08.12-6.32.49-13.49,1.07-20.24.09-1.25,1.31-1.74,2.84-1.74Z"/>
        <path class="cls-2" d="M119.51,15.42c1.86,2.38.92,5.59-1.22,8.45-1.16,1.56-4.06-.03-3.2-1.28,1.5-2.2,1.62-3.85.73-5.37-1.1-1.92,2.47-3.36,3.69-1.8Z"/>
        <path class="cls-2" d="M124.05,42.07c-1.22,0-2.59-.43-2.47-2.08.46-6.17.76-14.59.73-19.47,0-1.98,1.34-2.56,2.59-2.56,1.01,0,2.2.21,2.81,1.43l5.34,10.87c2.47-3.72,4.73-7.33,6.59-10.32.95-1.53,1.77-1.65,2.69-1.65,1.4,0,3.02.46,2.96,2.44l-.09,3.36c-.15,5.37-.43,10.93-.58,15.66-.06,1.43-1.13,1.95-2.5,2.01-1.43.06-2.78-.67-2.72-2.17.03-.64.24-6.26.46-10.9-1.68,2.62-3.36,5.19-4.88,7.33-.89,1.25-1.86,1.53-2.47,1.53-1.16,0-2.14-1.01-2.72-2.26-.82-1.74-1.68-3.48-2.5-5.22-.09,3.48-.24,6.96-.49,10.16-.12,1.4-1.31,1.83-2.75,1.83Z"/>
        <path class="cls-2" d="M170.62,17.59c2.14,0,2.75,1.01,2.62,1.92-.18,1.31-.49,3.11-.49,5.16,0,1.37.06,2.47.06,4.94,0,5.55-.76,12.33-8.91,12.33-3.85,0-6.68-1.74-7.6-4.61-.52-1.62,1.83-3.14,3.05-3.14.7,0,1.19.34,1.56.92.61.98,1.31,2.11,3.05,2.11,2.11,0,3.33-2.04,3.33-6.07,0-3.36-.06-4.91-.06-6.5,0-1.86.09-4.03.43-5.46.27-1.25,1.13-1.59,2.96-1.59Z"/>
        <path class="cls-2" d="M190.83,19.63c.12-.03.24-.03.37-.03.7,0,1.43.31,2.04.98,1.53,1.68,3.3,5.46,3.3,9.28,0,6.99-4.36,12.03-11.05,12.03s-10.32-5.43-10.32-12.61c0-6.62,5.1-11.87,11.48-11.87,1.4,0,2.26.06,3.3.67.55.34.82.92.89,1.56ZM185.85,37.06c2.41,0,4.82-2.99,4.82-7.02,0-1.62-.34-3.78-1.62-5.46-.49-.64-.73-1.28-.76-1.86-.61-.12-1.04-.18-1.71-.18-2.9,0-5.55,3.2-5.55,6.78,0,4.7,1.89,7.75,4.82,7.75Z"/>
        <path class="cls-2" d="M215.35,22.05c0,1.47-1.5,2.56-2.47,2.56s-1.47-.49-2.2-.98c-.79-.52-2.14-1.07-3.69-1.07-1.74,0-2.72.58-2.72,1.62,0,.79.64,1.34,4.36,3.02,5.74,2.59,7.33,4.61,7.33,8.03,0,3.97-3.6,6.99-9.58,6.99-2.69,0-5.43-.85-7.14-2.04-1.1-.76-1.71-1.74-1.71-2.69,0-1.47,1.4-2.56,2.29-2.56.7,0,1.37.43,2.2.89,1.13.67,2.59,1.43,4.85,1.43,1.98,0,3.14-.58,3.14-1.74,0-1.22-1.01-1.86-4.82-3.54-4.4-1.92-6.87-4.21-6.87-7.66,0-4.27,3.66-6.75,8.64-6.75,2.56,0,4.98.58,6.56,1.56,1.16.73,1.83,1.77,1.83,2.93Z"/>
        <path class="cls-2" d="M222.13,17.93c1.89,0,3.08.49,2.96,1.92-.55,6.56-.92,13.73-1.04,20.36-.03,1.37-1.37,1.77-3.08,1.77-1.59,0-2.78-.4-2.75-2.08.12-6.32.49-13.49,1.07-20.24.09-1.25,1.31-1.74,2.84-1.74Z"/>
        <path class="cls-2" d="M227.6,40.24c.49-6.41.98-13.7,1.31-20.24.06-1.28.43-1.83,1.83-1.92,2.81-.21,7.48-.34,11.41-.34,1.31,0,1.92.52,1.92,1.92,0,2.35-.61,2.9-1.77,2.9-3.75,0-4.88.09-7.78.31-.15,1.98-.15,2.53-.31,4.46,2.66-.34,4.7-.46,6.59-.37.7,0,1.5.52,1.5,2.11,0,2.2-.89,2.72-1.53,2.72-1.56-.09-3.66-.03-6.81.4-.15,1.83-.24,3.17-.4,4.79,2.81-.18,5.68-.49,8.27-.52,1.01,0,1.62.55,1.56,2.17-.09,2.08-.67,2.66-1.47,2.66s-1.65,0-2.47.03c-2.87.09-7.14.31-9.98.61-.67.03-2.01-.06-1.89-1.68Z"/>
      </g>
      <g>
        <path class="cls-3" d="M269.07,37.38l-8.45,4.16c-.5-.66-1.09-1.29-1.76-1.86s-1.38-1.06-2.11-1.46l2.84-8.98,2.68.91.06.02.04.08,1.71,3.1c.06.1.15.18.26.22l3.31,1.21.07.03.04.07,1.32,2.52Z"/>
        <path class="cls-2" d="M292.9,5.64l-5.52-4.74c-1.57-1.35-3.93-1.16-5.28.4l-23.2,27s-.07.11-.09.17h0s-4.66,14.75-4.66,14.75c-.17.53,0,1.09.42,1.46s1,.44,1.5.19l13.88-6.83h0s.05-.03.08-.05c.03-.02.05-.04.07-.07l23.2-27c1.34-1.56,1.17-3.93-.4-5.28ZM260.61,41.54c-.5-.66-1.09-1.29-1.76-1.86s-1.38-1.06-2.11-1.46l2.84-8.98,2.68.91.06.02.04.08,1.71,3.1c.06.1.15.18.26.22l3.31,1.21.07.03.04.07,1.32,2.52-8.45,4.16ZM260.11,28.39l17.53-20.41,1.76,1.51-16.93,19.7-2.37-.81ZM263.3,29.93l16.94-19.71,4.53,3.89-16.93,19.7-3-1.09-1.54-2.79ZM269.83,36.74l-1.16-2.21,16.94-19.71,1.76,1.51-17.54,20.41ZM287.99,15.6l-9.72-8.35,1.95-2.27h0s-.1.12-.1.12l9.72,8.35-1.85,2.15ZM290.57,12.6l-9.72-8.35,1.99-2.31c1-1.16,2.75-1.29,3.91-.3l5.52,4.74c1.16,1,1.29,2.75.3,3.91l-1.99,2.31Z"/>
        <polygon class="cls-3" points="279.4 9.5 262.48 29.19 260.11 28.39 277.64 7.98 279.4 9.5"/>
        <polygon class="cls-3" points="284.77 14.11 267.84 33.81 264.84 32.71 263.3 29.93 280.24 10.21 284.77 14.11"/>
        <polygon class="cls-3" points="289.84 13.45 287.99 15.6 278.27 7.24 280.22 4.98 280.22 4.98 280.12 5.09 289.84 13.45"/>
        <polygon class="cls-3" points="287.36 16.33 269.83 36.74 268.67 34.53 285.6 14.82 287.36 16.33"/>
        <path class="cls-3" d="M292.56,10.29l-1.99,2.31-9.72-8.35,1.99-2.31c1-1.16,2.75-1.29,3.91-.3l5.52,4.74c1.16,1,1.29,2.75.3,3.91Z"/>
        <g>
          <rect class="cls-2" x="277.75" y="6.11" width="2.99" height="0" transform="translate(92.61 213.92) rotate(-49.33)"/>
          <path class="cls-2" d="M280.22,4.98l-.1.11h0s.1-.11.1-.11h0Z"/>
          <path class="cls-2" d="M262.37,30.24s-.03-.02-.04-.03c-.02-.02-.04-.04-.06-.07l.06.02.04.08Z"/>
          <path class="cls-2" d="M267.75,34.86s-.04-.03-.05-.04c-.02-.02-.04-.03-.05-.05l.07.03.04.07Z"/>
        </g>
      </g>
      <path class="cls-1" d="M242.89,38.76c-.07,1.09.2,2.75,1.79,3.97.32.24,2.02,1.48,4.04.89.25-.07,2.48-.76,2.73-2.63.12-.89-.2-2.09-1.22-2.68-1.07-.62-2.41-.27-3.15.47-1.13,1.13-.61,2.89-.47,3.38.54,1.85,2.17,2.72,2.73,3.01.5.27,1.32.7,2.44.66,1.62-.06,2.7-1.06,3.01-1.36"/>
      <path class="cls-2" d="M240.57,41.28c.16,0,1.85-.01,2.11.07.08.03.26.17.43.43.29.44.79.96,1.14,1.25.49.4.08-1.54-.73-2.34-1.47-1.42-3.49.58-2.94.58Z"/>
    </g>
  </g>
</svg>