<?xml version="1.0" encoding="UTF-8"?>
<svg id="Layer_2" data-name="Layer 2" xmlns="http://www.w3.org/2000/svg" viewBox="0 0 200.35 14.29">
  <defs>
    <style>
      .cls-1, .cls-2 {
        stroke-linecap: round;
        stroke-linejoin: round;
      }

      .cls-1, .cls-2, .cls-3, .cls-4, .cls-5, .cls-6 {
        stroke: #282828;
      }

      .cls-1, .cls-2, .cls-4, .cls-6 {
        stroke-width: .7px;
      }

      .cls-1, .cls-5 {
        fill: none;
      }

      .cls-2, .cls-7, .cls-3, .cls-4 {
        fill: #fff;
      }

      .cls-3 {
        stroke-width: .66px;
      }

      .cls-3, .cls-4, .cls-5, .cls-6 {
        stroke-miterlimit: 10;
      }

      .cls-8, .cls-6 {
        fill: #282828;
      }

      .cls-5 {
        stroke-width: .93px;
      }
    </style>
  </defs>
  <g id="Layer_2-2" data-name="Layer 2">
    <g id="Layer_1-2" data-name="Layer 1-2">
      <g>
        <g>
          <path class="cls-7" d="M10.9,11.69l-6.3-2.69c.13-.59.19-1.21.19-1.86s-.07-1.27-.19-1.86l6.3-2.69.77,1.91.02.04-.02.06-.9,2.41c-.03.08-.03.17,0,.25l.9,2.4.02.05-.02.05-.77,1.92h0Z"/>
          <path class="cls-8" d="M39.71,9.78v-5.29c0-1.5-1.22-2.72-2.72-2.72H11.1s-.09,0-.14.03h0L.61,6.22c-.37.16-.61.51-.61.92s.23.76.61.92l10.35,4.42h0s.04.02.07.02h25.97c1.5,0,2.72-1.22,2.72-2.72h-.01ZM4.6,8.99c.13-.59.19-1.21.19-1.86s-.07-1.27-.19-1.86l6.3-2.69.77,1.91.02.04-.02.06-.9,2.41c-.03.08-.03.17,0,.25l.9,2.4.02.05-.02.05-.77,1.92-6.3-2.69h0ZM11.62,2.48h19.57v1.69H12.3s-.68-1.69-.68-1.69ZM12.28,4.97h18.91v4.34H12.29l-.82-2.17s.81-2.17.81-2.17ZM11.62,11.8l.67-1.69h18.91v1.69s-19.58,0-19.58,0ZM31.9,11.8V2.48h2.17-.11v9.32s-2.06,0-2.06,0ZM34.78,11.8V2.48h2.22c1.11,0,2.02.9,2.02,2.02v5.29c0,1.11-.91,2.02-2.02,2.02h-2.22Z"/>
          <polygon class="cls-7" points="31.19 4.17 12.3 4.17 11.62 2.48 31.19 2.48 31.19 4.17"/>
          <polygon class="cls-7" points="31.19 9.31 12.29 9.31 11.47 7.14 12.28 4.97 31.19 4.97 31.19 9.31"/>
          <polygon class="cls-7" points="33.96 11.8 31.9 11.8 31.9 2.48 34.07 2.48 34.07 2.48 33.96 2.48 33.96 11.8"/>
          <polygon class="cls-7" points="31.19 11.8 11.62 11.8 12.29 10.11 31.19 10.11 31.19 11.8"/>
          <path class="cls-7" d="M36.99,11.8h-2.22V2.48h2.22c1.11,0,2.02.9,2.02,2.02v5.29c0,1.11-.91,2.02-2.02,2.02h0Z"/>
          <g>
            <path class="cls-8" d="M11.67,4.6v-.11l.02.04-.02.06h0Z"/>
            <path class="cls-8" d="M11.67,9.76v-.11l.02.05-.02.05h0Z"/>
          </g>
        </g>
        <g>
          <path class="cls-7" d="M115.99,10.13v-5.99c.34.11.66.21.96.32v5.35c-.31.11-.63.21-.96.32Z"/>
          <path class="cls-7" d="M108.94,11.47h-12.2V2.82h12.2c1.2,0,3.39.35,5.45.88.3.08.6.16.9.24v6.4c-.29.09-.6.17-.9.24-2.06.53-4.25.88-5.45.88h0Z"/>
          <path class="cls-7" d="M91.98,8.17h-.72c-.57,0-1.03-.46-1.03-1.03s.46-1.03,1.03-1.03h.72c.57,0,1.03.46,1.03,1.03s-.46,1.03-1.03,1.03Z"/>
          <path class="cls-7" d="M89.88,8.19h-1.54c-.58,0-1.05-.47-1.05-1.05s.47-1.05,1.05-1.05h1.54c-.22.29-.36.66-.36,1.05s.13.76.36,1.05Z"/>
          <path class="cls-7" d="M81.32,8.45h-.01l-1.48-1.09c-.18-.13-.18-.3,0-.43l1.48-1.08h.01v2.61h0Z"/>
          <path class="cls-7" d="M83.57,9.87c-.57-.23-1.09-.47-1.53-.71h-.01v-4.03h.01c.44-.24.96-.48,1.53-.71v5.47-.02Z"/>
          <g>
            <path class="cls-8" d="M91.98,8.17h-.72c-.57,0-1.03-.46-1.03-1.03s.46-1.03,1.03-1.03h.72c.57,0,1.03.46,1.03,1.03s-.46,1.03-1.03,1.03Z"/>
            <path class="cls-8" d="M89.88,8.19h-1.54c-.58,0-1.05-.47-1.05-1.05s.47-1.05,1.05-1.05h1.54c-.22.29-.36.66-.36,1.05s.13.76.36,1.05Z"/>
            <path class="cls-8" d="M96.74,11.46h-.01V2.82h.01v8.65h0Z"/>
            <path class="cls-8" d="M96.74,12.17h12.19c1.25,0,3.51-.36,5.62-.9.43-.11.87-.23,1.28-.35,1.68-.5,3.07-1.07,4.03-1.65,1.11-.67,1.67-1.39,1.67-2.12,0-1.71-3.1-3-5.7-3.77-.42-.12-.85-.24-1.28-.35-2.12-.54-4.38-.9-5.62-.9h-12.19c-.01-.19-.17-.34-.36-.34h-4.45c-.98,0-2.59.24-4.3.63l-.14.03c-.14.03-.28.07-.43.1-.09.03-.19.05-.29.07l-.14.04c-.1.03-.19.05-.29.08s-.19.05-.29.08c-.8.23-1.56.47-2.26.73-.89.33-1.66.68-2.3,1.04h-.01s-.02.01-.03.02c-.04.03-.07.07-.09.11,0,.01-.01.03-.02.04,0,.01,0,.02-.01.03v.19h0l-1.9,1.38c-.27.2-.43.48-.43.78s.16.58.43.78l1.9,1.38h0v.2s0,.02.01.03c0,.01.01.03.02.04.02.04.06.08.09.11.01,0,.02.02.03.02h.01c.64.36,1.41.71,2.3,1.04,2.92,1.09,6.49,1.76,8.12,1.76h4.45c.19,0,.35-.15.36-.34h.02ZM116.95,4.46v5.35c-.31.11-.63.21-.96.32v-5.99c.34.11.66.21.96.32ZM108.94,2.81c1.2,0,3.39.35,5.45.88.3.08.6.16.9.24v6.4c-.29.09-.6.17-.9.24-2.06.53-4.25.88-5.45.88h-12.2V2.82h12.2ZM81.31,8.44l-1.48-1.08c-.18-.13-.18-.3,0-.43l1.48-1.08h.01v2.61h-.01v-.02ZM82.04,9.17h-.01v-4.03h.01c.44-.24.96-.48,1.53-.71v5.47c-.57-.23-1.09-.47-1.53-.71v-.02ZM89.52,7.14c0,.4.13.76.36,1.05h-1.54c-.58,0-1.05-.47-1.05-1.05s.47-1.05,1.05-1.05h1.54c-.22.29-.36.66-.36,1.05ZM91.25,6.11h.72c.57,0,1.03.46,1.03,1.03s-.46,1.03-1.03,1.03h-.72c-.57,0-1.03-.46-1.03-1.03s.46-1.03,1.03-1.03ZM95.16,11.78V2.5h.86v9.28h-.86Z"/>
            <rect class="cls-7" x="95.16" y="2.5" width=".86" height="9.28"/>
            <g>
              <path class="cls-7" d="M91.98,8.17h-.72c-.57,0-1.03-.46-1.03-1.03s.46-1.03,1.03-1.03h.72c.57,0,1.03.46,1.03,1.03s-.46,1.03-1.03,1.03Z"/>
              <path class="cls-7" d="M89.88,8.19h-1.54c-.58,0-1.05-.47-1.05-1.05s.47-1.05,1.05-1.05h1.54c-.22.29-.36.66-.36,1.05s.13.76.36,1.05Z"/>
            </g>
            <path class="cls-8" d="M82.04,9.17h-.01v-4.03h.01v4.06-.03Z"/>
            <polygon class="cls-8" points="81.32 8.45 81.31 8.44 81.31 5.84 81.32 5.83 81.32 8.45"/>
          </g>
        </g>
        <g>
          <path class="cls-4" d="M200,7.14c0,2.08-6.27,4.45-17.6,4.45-1.23,0-2.44-.03-3.61-.07-2.06-.08-4-.22-5.79-.42-6.59-.75-11.1-2.24-11.1-3.96s4.51-3.21,11.1-3.96c1.8-.2,3.74-.34,5.79-.42,1.17-.04,2.38-.07,3.61-.07,11.34,0,17.6,2.5,17.6,4.45Z"/>
          <path class="cls-2" d="M172.99,3.21v8.11c-.5.2-1.11.37-1.85.59-1.02.29-2.39.67-4.13.44-1.55-.2-2.63-.76-3.45-1.2-1.8-.96-2.82-2.1-3.71-3.11-1.45-1.64-2.48-3.42-2.21-3.62.17-.13.7.55,1.82.75.6.11,1.18.04,2.1-.24,1.53-.46,2.21-.98,3.53-1.63,1.92-.96,2.88-1.44,4.14-1.44,1.7,0,3.01.85,3.66,1.28.03.03.07.04.11.07h0Z"/>
          <line class="cls-5" x1="177.54" y1="11.52" x2="177.54" y2="2.77"/>
          <line class="cls-5" x1="172.99" y1="11.32" x2="172.99" y2="3.21"/>
          <path class="cls-5" d="M166.5,12.27c.39-.51.45-1.06-.25-1.48-.22-.14-2.67-1.29-1.56-3.52.83-1.41,3.99-1.85,1.73-4.62"/>
          <path class="cls-6" d="M166.5,12.27c-1.29-.24-2.21-.73-2.94-1.12-1.8-.96-2.82-2.1-3.71-3.11-1.45-1.64-2.48-3.42-2.21-3.62.17-.13.7.55,1.82.75.6.11,1.18.04,2.1-.24,1.53-.46,2.21-.98,3.53-1.63.5-.25.94-.47,1.34-.66.5.61.73,1.1.78,1.52.21,1.5-1.86,2.01-2.51,3.11-.43.86-.33,1.55-.02,2.1h0c.48.87,1.45,1.33,1.58,1.42.7.43.64.97.25,1.48h0Z"/>
        </g>
        <g>
          <path class="cls-4" d="M127.75,7.14h0c0-3.71,3-6.71,6.71-6.71h10.22c3.71,0,6.71,3,6.71,6.71h0c0,3.71-3,6.71-6.71,6.71h-10.22c-3.71,0-6.71-3-6.71-6.71Z"/>
          <line class="cls-1" x1="128.01" y1="7.14" x2="142.56" y2="7.14"/>
          <path class="cls-4" d="M131.31,7.14h0c0-.75.6-1.35,1.35-1.35h2.33c.75,0,1.35.6,1.35,1.35h0c0,.75-.6,1.35-1.35,1.35h-2.33c-.75,0-1.35-.6-1.35-1.35Z"/>
        </g>
        <g>
          <rect class="cls-3" x="53.09" y=".33" width="17.39" height="13.63" rx=".7" ry=".7"/>
          <path class="cls-3" d="M48.22,10.56V3.71c0-1.43,1.16-2.6,2.6-2.6h2.08v12.05h-2.08c-1.43,0-2.6-1.16-2.6-2.6Z"/>
          <rect class="cls-8" x="58.42" y=".33" width="6.74" height="13.63"/>
        </g>
      </g>
    </g>
  </g>
</svg>