<?xml version="1.0" encoding="UTF-8"?>
<svg id="Layer_2" data-name="Layer 2" xmlns="http://www.w3.org/2000/svg" viewBox="0 0 200.35 14.3">
  <defs>
    <style>
      .cls-1, .cls-2, .cls-3, .cls-4 {
        stroke-miterlimit: 10;
      }

      .cls-1, .cls-2, .cls-3, .cls-4, .cls-5 {
        stroke: #000;
      }

      .cls-1, .cls-3, .cls-5 {
        stroke-width: .7px;
      }

      .cls-2 {
        stroke-width: .66px;
      }

      .cls-2, .cls-3, .cls-6, .cls-5 {
        fill: #fff;
      }

      .cls-7, .cls-6 {
        stroke-width: 0px;
      }

      .cls-4 {
        fill: none;
        stroke-width: .93px;
      }

      .cls-5 {
        stroke-linecap: round;
        stroke-linejoin: round;
      }
    </style>
  </defs>
  <g id="Layer_1-2" data-name="Layer 1">
    <g>
      <g>
        <path class="cls-6" d="M10.9,11.7l-6.3-2.69c.13-.59.19-1.21.19-1.86s-.07-1.27-.19-1.86l6.3-2.69.77,1.91.02.04-.02.06-.9,2.41c-.03.08-.03.17,0,.25l.9,2.4.02.05-.02.05-.77,1.92Z"/>
        <path class="cls-7" d="M39.71,9.79v-5.29c0-1.5-1.22-2.72-2.72-2.72H11.1s-.09,0-.14.03h0S.61,6.23.61,6.23c-.37.16-.61.51-.61.92s.23.76.61.92l10.35,4.42h0s.04.02.07.02c.02,0,.05,0,.07,0h25.9c1.5,0,2.72-1.22,2.72-2.72ZM4.6,9c.13-.59.19-1.21.19-1.86s-.07-1.27-.19-1.86l6.3-2.69.77,1.91.02.04-.02.06-.9,2.41c-.03.08-.03.17,0,.25l.9,2.4.02.05-.02.05-.77,1.92-6.3-2.69ZM11.62,2.49h19.57v1.69H12.3l-.68-1.69ZM12.28,4.98h18.91v4.34H12.29l-.82-2.17.81-2.17ZM11.62,11.81l.67-1.69h18.91v1.69H11.62ZM31.9,11.81V2.49h2.17,0s-.11,0-.11,0v9.32h-2.06ZM34.78,11.81V2.49h2.22c1.11,0,2.02.9,2.02,2.02v5.29c0,1.11-.91,2.02-2.02,2.02h-2.22Z"/>
        <polygon class="cls-6" points="31.19 4.18 12.3 4.18 11.62 2.49 31.19 2.49 31.19 4.18"/>
        <polygon class="cls-6" points="31.19 9.32 12.29 9.32 11.47 7.15 12.28 4.98 31.19 4.98 31.19 9.32"/>
        <polygon class="cls-6" points="33.96 11.81 31.9 11.81 31.9 2.49 34.07 2.49 34.07 2.49 33.96 2.49 33.96 11.81"/>
        <polygon class="cls-6" points="31.19 11.81 11.62 11.81 12.29 10.12 31.19 10.12 31.19 11.81"/>
        <path class="cls-6" d="M36.99,11.81h-2.22V2.49h2.22c1.11,0,2.02.9,2.02,2.02v5.29c0,1.11-.91,2.02-2.02,2.02Z"/>
        <g>
          <rect class="cls-7" x="31.9" y="2.49" width="2.17" height="0"/>
          <path class="cls-7" d="M34.07,2.49h-.11,0s.11,0,.11,0h0Z"/>
          <path class="cls-7" d="M11.67,4.61s0-.02,0-.04c0-.02,0-.04,0-.07l.02.04-.02.06Z"/>
          <path class="cls-7" d="M11.67,9.77s0-.03,0-.05c0-.02,0-.04,0-.06l.02.05-.02.05Z"/>
        </g>
      </g>
      <g>
        <path class="cls-6" d="M115.99,10.14v-5.99c.34.11.66.21.96.32v5.35c-.31.11-.63.21-.96.32Z"/>
        <path class="cls-6" d="M108.94,11.48h-12.17s-.01,0-.02,0c0,0,0,0-.01,0V2.83s0,0,.01,0c0,0,.01,0,.02,0h12.17c1.2,0,3.39.35,5.45.88.3.08.6.16.9.24v6.4c-.29.09-.6.17-.9.24-2.06.53-4.25.88-5.45.88Z"/>
        <path class="cls-6" d="M91.98,8.18h-.72c-.57,0-1.03-.46-1.03-1.03s.46-1.03,1.03-1.03h.72c.57,0,1.03.46,1.03,1.03s-.46,1.03-1.03,1.03Z"/>
        <path class="cls-6" d="M89.88,8.2h-1.54c-.58,0-1.05-.47-1.05-1.05s.47-1.05,1.05-1.05h1.54c-.22.29-.36.66-.36,1.05s.13.76.36,1.05Z"/>
        <path class="cls-6" d="M81.32,8.46h-.01s-1.48-1.09-1.48-1.09c-.18-.13-.18-.3,0-.43l1.48-1.08h.01s0,2.61,0,2.61Z"/>
        <path class="cls-6" d="M83.57,9.88c-.57-.23-1.09-.47-1.53-.71,0,0,0,0-.01,0,0,0,0-.02,0-.02v-3.99s0-.02,0-.02c0,0,0,0,.01,0,.44-.24.96-.48,1.53-.71v5.47Z"/>
        <g>
          <path class="cls-7" d="M91.98,8.18h-.72c-.57,0-1.03-.46-1.03-1.03s.46-1.03,1.03-1.03h.72c.57,0,1.03.46,1.03,1.03s-.46,1.03-1.03,1.03Z"/>
          <path class="cls-7" d="M89.88,8.2h-1.54c-.58,0-1.05-.47-1.05-1.05s.47-1.05,1.05-1.05h1.54c-.22.29-.36.66-.36,1.05s.13.76.36,1.05Z"/>
          <path class="cls-7" d="M96.74,11.47s0,0-.01,0V2.83s0,0,.01,0v8.65Z"/>
          <path class="cls-7" d="M96.74,12.18s.01,0,.02,0h12.17c1.25,0,3.51-.36,5.62-.9.43-.11.87-.23,1.28-.35,1.68-.5,3.07-1.07,4.03-1.65,1.11-.67,1.67-1.39,1.67-2.12,0-1.71-3.1-3-5.7-3.77-.42-.12-.85-.24-1.28-.35-2.12-.54-4.38-.9-5.62-.9h-12.17s-.01,0-.02,0c-.01-.19-.17-.34-.36-.34h-4.45c-.98,0-2.59.24-4.3.63l-.14.03c-.14.03-.28.07-.43.1-.09.03-.19.05-.29.07l-.14.04c-.1.03-.19.05-.29.08-.1.03-.19.05-.29.08-.8.23-1.56.47-2.26.73-.89.33-1.66.68-2.3,1.04,0,0-.01,0-.01,0-.01,0-.02.01-.03.02-.04.03-.07.07-.09.11,0,.01-.01.03-.02.04,0,.01,0,.02-.01.03,0,0,0,.02,0,.03,0,.01,0,.02,0,.04,0,.01,0,.03,0,.05,0,.02,0,.05,0,.07h0s0,0,0,0l-1.9,1.38c-.27.2-.43.48-.43.78s.16.58.43.78l1.9,1.38h0s0,.05,0,.08c0,.01,0,.03,0,.05,0,.01,0,.02,0,.04,0,0,0,.02,0,.03,0,.01,0,.02.01.03,0,.01.01.03.02.04.02.04.06.08.09.11.01,0,.02.02.03.02,0,0,0,0,.01,0,.64.36,1.41.71,2.3,1.04,2.92,1.09,6.49,1.76,8.12,1.76h4.45c.19,0,.35-.15.36-.34ZM116.95,4.47v5.35c-.31.11-.63.21-.96.32v-5.99c.34.11.66.21.96.32ZM108.94,2.82c1.2,0,3.39.35,5.45.88.3.08.6.16.9.24v6.4c-.29.09-.6.17-.9.24-2.06.53-4.25.88-5.45.88h-12.17s-.01,0-.02,0c0,0,0,0-.01,0V2.83s0,0,.01,0c0,0,.01,0,.02,0h12.17ZM81.31,8.45l-1.48-1.08c-.18-.13-.18-.3,0-.43l1.48-1.08h.01s0,2.61,0,2.61h-.01ZM82.04,9.18s0,0-.01,0c0,0,0-.02,0-.02v-3.99s0-.02,0-.02c0,0,0,0,.01,0,.44-.24.96-.48,1.53-.71v5.47c-.57-.23-1.09-.47-1.53-.71ZM89.52,7.15c0,.4.13.76.36,1.05h-1.54c-.58,0-1.05-.47-1.05-1.05s.47-1.05,1.05-1.05h1.54c-.22.29-.36.66-.36,1.05ZM91.25,6.12h.72c.57,0,1.03.46,1.03,1.03s-.46,1.03-1.03,1.03h-.72c-.57,0-1.03-.46-1.03-1.03s.46-1.03,1.03-1.03ZM95.16,11.79V2.51h.86v9.28h-.86Z"/>
          <rect class="cls-6" x="95.16" y="2.51" width=".86" height="9.28"/>
          <g>
            <path class="cls-6" d="M91.98,8.18h-.72c-.57,0-1.03-.46-1.03-1.03s.46-1.03,1.03-1.03h.72c.57,0,1.03.46,1.03,1.03s-.46,1.03-1.03,1.03Z"/>
            <path class="cls-6" d="M89.88,8.2h-1.54c-.58,0-1.05-.47-1.05-1.05s.47-1.05,1.05-1.05h1.54c-.22.29-.36.66-.36,1.05s.13.76.36,1.05Z"/>
          </g>
          <path class="cls-7" d="M81.31,4.98v-.08s0,.05,0,.07h0s0,0,0,0Z"/>
          <path class="cls-7" d="M82.04,9.18s0,0-.01,0c0,0,0-.02,0-.02v-3.99s0-.02,0-.02c0,0,0,0,.01,0v4.06Z"/>
          <polygon class="cls-7" points="81.32 8.46 81.31 8.45 81.31 5.85 81.32 5.84 81.32 8.46"/>
          <path class="cls-7" d="M81.31,9.39v-.08h0s0,.05,0,.08Z"/>
        </g>
      </g>
      <g>
        <path class="cls-3" d="M200,7.15c0,2.08-6.27,4.45-17.6,4.45-1.23,0-2.44-.03-3.61-.07-2.06-.08-4-.22-5.79-.42-6.59-.75-11.1-2.24-11.1-3.96s4.51-3.21,11.1-3.96c1.8-.2,3.74-.34,5.79-.42,1.17-.04,2.38-.07,3.61-.07,11.34,0,17.6,2.5,17.6,4.45Z"/>
        <path class="cls-3" d="M172.99,3.22v8.11c-.5.2-1.11.37-1.85.59-1.02.29-2.39.67-4.13.44-1.55-.2-2.63-.76-3.45-1.2-1.8-.96-2.82-2.1-3.71-3.11-1.45-1.64-2.48-3.42-2.21-3.62.17-.13.7.55,1.82.75.6.11,1.18.04,2.1-.24,1.53-.46,2.21-.98,3.53-1.63,1.92-.96,2.88-1.44,4.14-1.44,1.7,0,3.01.85,3.66,1.28.03.03.07.04.11.07Z"/>
        <line class="cls-4" x1="177.54" y1="11.53" x2="177.54" y2="2.78"/>
        <line class="cls-4" x1="172.99" y1="11.33" x2="172.99" y2="3.22"/>
        <path class="cls-4" d="M166.5,12.28c.39-.51.45-1.06-.25-1.48-.22-.14-2.67-1.29-1.56-3.52.83-1.41,3.99-1.85,1.73-4.62"/>
        <path class="cls-1" d="M166.5,12.28c-1.29-.24-2.21-.73-2.94-1.12-1.8-.96-2.82-2.1-3.71-3.11-1.45-1.64-2.48-3.42-2.21-3.62.17-.13.7.55,1.82.75.6.11,1.18.04,2.1-.24,1.53-.46,2.21-.98,3.53-1.63.5-.25.94-.47,1.34-.66.5.61.73,1.1.78,1.52.21,1.5-1.86,2.01-2.51,3.11-.43.86-.33,1.55-.02,2.1h0c.48.87,1.45,1.33,1.58,1.42.7.43.64.97.25,1.48Z"/>
      </g>
      <g>
        <rect class="cls-3" x="132.85" y="-4.67" width="13.42" height="23.64" rx="6.71" ry="6.71" transform="translate(132.42 146.71) rotate(-90)"/>
        <line class="cls-5" x1="128.01" y1="7.15" x2="142.56" y2="7.15"/>
        <rect class="cls-3" x="132.48" y="4.63" width="2.7" height="5.03" rx="1.35" ry="1.35" transform="translate(126.68 140.98) rotate(-90)"/>
      </g>
      <g>
        <rect class="cls-2" x="54.97" y="-1.55" width="13.63" height="17.39" rx=".7" ry=".7" transform="translate(54.64 68.94) rotate(-90)"/>
        <path class="cls-2" d="M47.13,4.81h6.85c1.43,0,2.6,1.16,2.6,2.6v2.08h-12.05v-2.08c0-1.43,1.16-2.6,2.6-2.6Z" transform="translate(43.41 57.7) rotate(-90)"/>
        <rect class="cls-7" x="54.97" y="3.78" width="13.63" height="6.74" transform="translate(54.64 68.94) rotate(-90)"/>
      </g>
    </g>
  </g>
</svg>