<?xml version="1.0" encoding="UTF-8"?>
<svg id="Layer_2" data-name="Layer 2" xmlns="http://www.w3.org/2000/svg" viewBox="0 0 65.21 100">
  <defs>
    <style>
      .cls-1, .cls-2 {
        stroke-width: 0px;
      }

      .cls-2 {
        fill: #fff;
      }
    </style>
  </defs>
  <g id="Layer_1-2" data-name="Layer 1">
    <g>
      <path class="cls-2" d="M24.78,72.38l-6.73,15.75c-1.47-.31-3.03-.48-4.64-.48s-3.16.17-4.64.48l-6.73-15.76,4.77-1.92.11-.04.15.06,6.03,2.25c.2.07.42.07.62,0l5.99-2.26.13-.05.13.05,4.81,1.91Z"/>
      <path class="cls-1" d="M20.02.38H6.8C3.05.38,0,3.43,0,7.18v64.71c0,.12.02.24.07.35v.02s11.04,25.84,11.04,25.84c.4.93,1.28,1.51,2.3,1.51s1.9-.58,2.3-1.51l11.05-25.87h0c.02-.06.04-.11.05-.17.01-.06.02-.12.02-.18V7.18c0-3.75-3.05-6.8-6.8-6.8ZM18.05,88.13c-1.47-.31-3.03-.48-4.64-.48s-3.16.17-4.64.48l-6.73-15.76,4.77-1.92.11-.04.15.06,6.03,2.25c.2.07.42.07.62,0l5.99-2.26.13-.05.13.05,4.81,1.91-6.73,15.75ZM1.76,70.59V21.68h4.22v47.22l-4.22,1.69ZM7.99,68.93V21.68h10.86v47.23l-5.43,2.05-5.42-2.02ZM25.06,70.59l-4.21-1.67V21.68h4.21v48.92ZM25.06,19.91H1.76v-5.43h0v.27h23.3v5.16ZM25.06,12.72H1.76v-5.54c0-2.78,2.26-5.04,5.04-5.04h13.22c2.78,0,5.04,2.26,5.04,5.04v5.54Z"/>
      <polygon class="cls-2" points="5.99 21.68 5.99 68.89 1.76 70.59 1.76 21.68 5.99 21.68"/>
      <polygon class="cls-2" points="18.85 21.68 18.85 68.9 13.41 70.95 7.99 68.93 7.99 21.68 18.85 21.68"/>
      <polygon class="cls-2" points="25.06 14.76 25.06 19.91 1.76 19.91 1.76 14.48 1.76 14.48 1.76 14.76 25.06 14.76"/>
      <polygon class="cls-2" points="25.06 21.68 25.06 70.59 20.85 68.92 20.85 21.68 25.06 21.68"/>
      <path class="cls-2" d="M25.06,7.18v5.54H1.76v-5.54c0-2.78,2.26-5.04,5.04-5.04h13.22c2.78,0,5.04,2.26,5.04,5.04Z"/>
      <g>
        <rect class="cls-1" x="1.76" y="14.48" width="0" height="5.43"/>
        <path class="cls-1" d="M1.76,14.48v.27h0v-.27h0Z"/>
        <path class="cls-1" d="M7.08,70.47s-.06,0-.09,0c-.06,0-.11,0-.17-.01l.11-.04.15.06Z"/>
        <path class="cls-1" d="M19.97,70.46s-.08,0-.12,0c-.05,0-.09,0-.14-.01l.13-.05.13.05Z"/>
      </g>
    </g>
    <g>
      <path class="cls-2" d="M59.63,13.05h-14.07c.25-.81.5-1.56.75-2.26h12.57c.26.72.5,1.47.75,2.26Z"/>
      <path class="cls-2" d="M62.77,29.62v28.61s0,.03,0,.05c0,.01-.01.02-.01.03h-20.3s0-.02-.01-.03c0-.01,0-.03,0-.05v-28.61c0-2.81.83-7.96,2.08-12.8.18-.71.37-1.42.57-2.11h15.04c.2.69.39,1.4.57,2.11,1.24,4.85,2.08,10,2.08,12.81Z"/>
      <path class="cls-2" d="M55.02,69.48v1.7c0,1.34-1.09,2.42-2.42,2.42s-2.42-1.09-2.42-2.42v-1.7c0-1.34,1.09-2.42,2.42-2.42s2.42,1.09,2.42,2.42Z"/>
      <path class="cls-2" d="M55.07,74.4v3.63c0,1.36-1.11,2.47-2.47,2.47s-2.47-1.11-2.47-2.47v-3.63c.68.53,1.54.84,2.47.84s1.79-.31,2.47-.84Z"/>
      <path class="cls-2" d="M55.67,94.51l-.02.03-2.54,3.49c-.31.43-.71.43-1.02,0l-2.54-3.49-.02-.03h6.14Z"/>
      <path class="cls-2" d="M59.02,89.24c-.54,1.35-1.09,2.55-1.66,3.6,0,.01-.01.02-.02.03-.02,0-.04,0-.06,0h-9.39s-.04,0-.06,0c0-.01-.01-.02-.02-.03-.56-1.04-1.12-2.25-1.66-3.6h12.85Z"/>
      <g>
        <path class="cls-1" d="M55.02,69.48v1.7c0,1.34-1.09,2.42-2.42,2.42s-2.42-1.09-2.42-2.42v-1.7c0-1.34,1.09-2.42,2.42-2.42s2.42,1.09,2.42,2.42Z"/>
        <path class="cls-1" d="M55.07,74.4v3.63c0,1.36-1.11,2.47-2.47,2.47s-2.47-1.11-2.47-2.47v-3.63c.68.53,1.54.84,2.47.84s1.79-.31,2.47-.84Z"/>
        <path class="cls-1" d="M62.76,58.27s-.01.02-.01.03h-20.3s0-.02-.01-.03h20.33Z"/>
        <path class="cls-1" d="M64.41,58.28s0-.03,0-.05v-28.61c0-2.94-.85-8.25-2.12-13.22-.26-1.02-.54-2.03-.83-3.02-1.18-3.95-2.52-7.22-3.88-9.46-1.58-2.6-3.26-3.92-4.97-3.92-4.02,0-7.04,7.28-8.86,13.39-.29.98-.57,1.99-.83,3.01-1.27,4.97-2.12,10.28-2.12,13.22v28.61s0,.03,0,.05c-.45.02-.8.39-.8.85v10.46c0,2.31.56,6.09,1.49,10.11l.08.33c.08.33.16.66.24,1,.06.22.11.44.17.67l.09.33c.06.22.12.45.18.67.06.22.12.45.19.67.53,1.89,1.11,3.67,1.72,5.3.78,2.09,1.6,3.91,2.45,5.41,0,.01.01.02.02.03.02.03.03.06.06.08.07.09.16.17.25.22.03.02.06.03.09.05.02.01.05.02.08.03.02,0,.04.01.06.02.03,0,.06.01.08.01.03,0,.07,0,.11,0,.06,0,.11,0,.17-.02h0v.02s3.26,4.46,3.26,4.46c.47.64,1.14,1.01,1.84,1.01s1.37-.37,1.84-1.01l3.25-4.46v-.02h.01c.06.01.11.02.17.02.03,0,.07,0,.11,0,.03,0,.06,0,.08-.01.02,0,.04-.01.06-.02.03,0,.06-.02.08-.03.03-.01.06-.03.09-.05.1-.06.18-.13.25-.22.02-.02.04-.05.06-.08,0,0,.01-.02.02-.03.84-1.5,1.66-3.32,2.45-5.41,2.56-6.87,4.15-15.26,4.15-19.09v-10.46c0-.45-.35-.82-.8-.85ZM46.31,10.79h12.57c.26.72.5,1.47.75,2.26h-14.07c.25-.81.5-1.56.75-2.26ZM42.43,29.62c0-2.81.83-7.96,2.08-12.8.18-.71.37-1.42.57-2.11h15.04c.2.69.39,1.4.57,2.11,1.24,4.85,2.08,10,2.08,12.81v28.61s0,.03,0,.05c0,.01-.01.02-.01.03h-20.3s0-.02-.01-.03c0-.01,0-.03,0-.05v-28.61ZM55.65,94.53l-2.54,3.49c-.31.43-.71.43-1.02,0l-2.54-3.49-.02-.03h6.14l-.02.03ZM57.36,92.83s-.01.02-.02.03c-.02,0-.04,0-.06,0h-9.39s-.04,0-.06,0c0-.01-.01-.02-.02-.03-.56-1.04-1.12-2.25-1.66-3.6h12.85c-.54,1.35-1.09,2.55-1.66,3.6ZM52.6,75.24c.93,0,1.79-.31,2.47-.84v3.63c0,1.36-1.11,2.47-2.47,2.47s-2.47-1.11-2.47-2.47v-3.63c.68.53,1.54.84,2.47.84ZM50.17,71.17v-1.7c0-1.34,1.09-2.42,2.42-2.42s2.42,1.09,2.42,2.42v1.7c0,1.34-1.09,2.42-2.42,2.42s-2.42-1.09-2.42-2.42ZM63.51,61.99h-21.82v-2.02h21.82v2.02Z"/>
        <rect class="cls-2" x="41.69" y="59.98" width="21.82" height="2.02"/>
        <g>
          <path class="cls-2" d="M55.02,69.48v1.7c0,1.34-1.09,2.42-2.42,2.42s-2.42-1.09-2.42-2.42v-1.7c0-1.34,1.09-2.42,2.42-2.42s2.42,1.09,2.42,2.42Z"/>
          <path class="cls-2" d="M55.07,74.4v3.63c0,1.36-1.11,2.47-2.47,2.47s-2.47-1.11-2.47-2.47v-3.63c.68.53,1.54.84,2.47.84s1.79-.31,2.47-.84Z"/>
        </g>
        <path class="cls-1" d="M47.5,94.53h-.18c.06,0,.11,0,.17-.02h0v.02Z"/>
        <path class="cls-1" d="M57.36,92.83s-.01.02-.02.03c-.02,0-.04,0-.06,0h-9.39s-.04,0-.06,0c0-.01-.01-.02-.02-.03h9.53Z"/>
        <polygon class="cls-1" points="55.67 94.51 55.65 94.53 49.55 94.53 49.52 94.51 55.67 94.51"/>
        <path class="cls-1" d="M57.87,94.53h-.18v-.02h.01c.06.01.11.02.17.02Z"/>
      </g>
    </g>
  </g>
</svg>