<?xml version="1.0" encoding="UTF-8"?>
<svg id="Layer_2" data-name="Layer 2" xmlns="http://www.w3.org/2000/svg" viewBox="0 0 31.98 31.98">
  <defs>
    <style>
      .cls-1, .cls-2 {
        stroke-width: 0px;
      }

      .cls-2 {
        fill: #fff;
      }
    </style>
  </defs>
  <g id="Layer_1-2" data-name="Layer 1">
    <g>
      <path class="cls-2" d="M4.93,11.56l-2.63-6.55c.52-.34,1.02-.74,1.49-1.21s.87-.97,1.21-1.49l6.55,2.63-.83,1.95-.02.04-.06.03-2.41,1.1c-.08.04-.14.1-.18.18l-1.09,2.4-.02.05-.05.02-1.96.84Z"/>
      <path class="cls-1" d="M27.31,31.16l3.85-3.85c1.09-1.09,1.09-2.87,0-3.97L12.3,4.48s-.08-.06-.12-.08h-.01S1.42.08,1.42.08C1.03-.08.6,0,.3.3S-.08,1.03.08,1.42l4.32,10.76h0s.02.04.03.06c.01.02.03.04.05.06l18.87,18.87c1.09,1.09,2.87,1.09,3.97,0ZM2.3,5.01c.52-.34,1.02-.74,1.49-1.21s.87-.97,1.21-1.49l6.55,2.63-.83,1.95-.02.04-.06.03-2.41,1.1c-.08.04-.14.1-.18.18l-1.09,2.4-.02.05-.05.02-1.96.84-2.63-6.55ZM12.16,5.37l14.26,14.26-1.23,1.23L11.43,7.1l.74-1.73ZM10.83,7.67l13.78,13.78-3.17,3.17L7.67,10.84l.99-2.18,2.17-.99ZM5.37,12.16l1.72-.74,13.77,13.77-1.23,1.23L5.37,12.16ZM20.15,26.94l6.79-6.79,1.58,1.58h0s-.08-.08-.08-.08l-6.79,6.79-1.5-1.5ZM22.24,29.04l6.79-6.79,1.61,1.61c.81.81.81,2.13,0,2.94l-3.85,3.85c-.81.81-2.13.81-2.94,0l-1.61-1.61Z"/>
      <polygon class="cls-2" points="25.19 20.86 11.43 7.1 12.16 5.37 26.42 19.63 25.19 20.86"/>
      <polygon class="cls-2" points="21.44 24.61 7.67 10.84 8.66 8.66 10.83 7.67 24.61 21.45 21.44 24.61"/>
      <polygon class="cls-2" points="21.65 28.44 20.15 26.94 26.94 20.14 28.52 21.73 28.52 21.73 28.44 21.65 21.65 28.44"/>
      <polygon class="cls-2" points="19.63 26.42 5.37 12.16 7.09 11.42 20.86 25.2 19.63 26.42"/>
      <path class="cls-2" d="M23.86,30.65l-1.61-1.61,6.79-6.79,1.61,1.61c.81.81.81,2.13,0,2.94l-3.85,3.85c-.81.81-2.13.81-2.94,0Z"/>
      <g>
        <rect class="cls-1" x="27.73" y="19.82" width="0" height="2.24" transform="translate(-6.68 25.74) rotate(-45)"/>
        <path class="cls-1" d="M28.52,21.73l-.08-.08h0s.08.08.08.08h0Z"/>
        <path class="cls-1" d="M10.65,6.96s.02-.02.03-.03c.02-.02.03-.03.05-.04l-.02.04-.06.03Z"/>
        <path class="cls-1" d="M6.89,10.72s.02-.03.03-.04c.01-.01.03-.03.04-.04l-.02.05-.05.02Z"/>
      </g>
    </g>
  </g>
</svg>