<svg preserveAspectRatio="none" overflow="visible" style="display: block;" width="524" height="1230" viewBox="0 0 524 1230" fill="none" xmlns="http://www.w3.org/2000/svg">
<g id="Layer_2" clip-path="url(#clip0_0_18)">
<path id="Vector" d="M292.705 868.024C292.57 866.148 289.877 866.093 289.66 867.956C289.66 867.983 289.66 867.997 289.66 868.011C280.079 948.681 271.703 1031.73 266.723 1112.82C265.667 1129.94 267.183 1193.89 258.414 1205.09C256.154 1207.97 253.299 1207.76 252.189 1209.05C251.161 1210.24 251.77 1212.47 249.09 1214.76C243.325 1219.69 196.774 1225.19 186.178 1226.33C157.896 1229.39 93.901 1236.47 72.4523 1215.52C61.3963 1204.72 62.1 1195.37 67.5265 1181.91C78.9072 1153.67 113.618 1137.45 141.129 1129.25C141.792 1129.04 142.239 1128.43 142.212 1127.72C142.009 1121.84 142.482 1115.91 142.252 1110.03C138.314 1007.46 142.699 905.157 147.557 802.746C147.855 796.464 150.358 786.865 150.142 780.977C149.627 767.013 146.975 753.199 147.557 737.481C149.316 688.763 151.427 639.366 154.391 590.702C155.554 571.694 158.274 552.686 159.492 533.65C159.587 532.141 157.679 531.406 156.745 532.603C140.872 552.944 120.479 585.318 93.9958 588.5C18.7559 597.528 3.6808 497.673 4.11384 442.442C4.1409 438.798 5.79185 435.549 5.58886 431.673C5.19643 423.91 0.108259 414.038 0 404.439C-0.0676618 398.864 2.16518 394.84 2.3411 390.625C2.51702 386.437 -0.0405971 381.95 0.189453 377.408C0.811942 364.668 12.0303 354.715 22.0307 348.27C22.3284 348.08 22.5584 347.781 22.6667 347.441L22.9644 346.462C23.0456 346.19 23.0591 345.918 22.9915 345.632C18.7829 327.848 0.216518 298.261 2.89593 280.775C4.70926 268.919 19.2295 259.211 30.4884 258.205C51.7613 256.301 90.3014 256.587 111.791 258.205C148.707 260.978 146.961 301.932 162.145 327.317C162.645 328.16 163.796 328.283 164.513 327.603C185.028 308.323 218.778 305.726 245.707 303.129C355.833 292.537 522.836 298.805 452.292 459.03C446.5 472.179 431.357 492.819 428.056 504.022C423.712 518.802 425.539 546.091 425.051 562.19C421.276 686.968 433.671 811.556 441.223 936.063C445.066 999.384 444.091 1063.08 447.989 1126.42C448.895 1131.26 461.386 1132.33 465.973 1134.18C486.488 1142.46 509.426 1158.48 518.411 1179.39C532.16 1211.39 519.71 1221.57 489.1 1226.17C451.264 1231.86 403.102 1229.32 364.941 1224.81C358.472 1224.04 343.505 1222.33 337.998 1220.6C336.09 1220.01 329.066 1212.53 327.781 1210.48C317.185 1193.66 318.498 1155.87 316.725 1135.92C312.611 1089.69 309.918 1043.46 305.899 997.235C302.151 954.12 295.696 911.181 292.678 868.011L292.705 868.024ZM21.53 274.589C20.4474 275.513 21.1375 277.295 22.5584 277.295H103.631C114.118 277.145 118.53 281.088 120.993 282.815C131.589 290.239 138.179 321.185 143.213 334.062C149.979 351.357 155.23 369.25 162.348 386.342C162.564 386.858 163.024 387.212 163.579 387.28C166.137 387.592 171.333 388.612 170.481 385.553L129.342 280.028C126.501 272.685 118.841 271.054 111.804 270.455C92.7914 268.824 48.9465 268.239 30.529 270.455C27.4707 270.822 24.1147 272.386 21.5435 274.589H21.53ZM153.186 386.015C154.364 386.178 155.257 384.968 154.783 383.867C149.465 371.48 143.754 359.175 138.828 346.611C132.888 331.492 127.854 311.708 121.209 297.69C117.163 289.165 111.899 289.586 102.453 288.689C86.2688 287.152 64.59 289.287 47.8369 289.042C37.7147 288.893 32.2747 285.929 22.0442 289.396C20.1632 290.035 17.3755 289.831 18.0792 291.694L34.927 338.399C35.1571 339.024 35.7525 339.459 36.4291 339.419C40.8136 339.188 54.982 334.769 59.0011 334.415C80.707 332.566 93.874 339.663 89.7872 362.425C89.6248 363.363 90.3556 364.206 91.3028 364.206C96.5805 364.206 100.803 366.517 104.998 369.74C106.743 371.072 106.879 373.86 109.341 374.893C115.742 377.585 136.474 382.276 144.647 384.288C145.974 384.615 150.345 385.607 153.213 386.002L153.186 386.015ZM119.342 459.139C117.853 458.595 116.635 460.39 117.664 461.614C121.927 466.658 134.255 474.653 136.284 475.646C154.743 484.674 171.008 482.798 190.13 485.449C200.157 486.85 202.809 494.872 209.846 500.99C233.623 521.644 295.208 567.533 325.589 569.614C354.331 571.585 378.351 538.069 393.656 517.048C422.047 478.093 474.729 393.711 431.845 350.011C395.348 312.81 274.436 318.643 225.436 324.924C206.436 327.358 187.761 331.329 173.133 344.286C172.145 345.17 172.646 346.802 173.958 346.979C185.312 348.501 197.112 354.103 206.233 360.494C221.2 370.963 229.522 393.398 234.935 410.517C236.505 415.48 234.989 421.897 240.281 425.541L315.101 469.677C315.277 469.785 315.466 469.853 315.669 469.881L317.55 470.139C318.173 470.221 318.782 469.921 319.093 469.378L357.024 403.487C357.254 403.093 357.647 402.807 358.107 402.726C378.717 399.272 366.443 421.326 363.006 429.158C358.12 440.321 334.994 483.573 326.103 488.631C321.759 491.105 319.607 490.371 315.115 489.052C300.242 484.674 257.426 456.773 243.785 446.48C219.292 428.002 224.624 420.714 213.216 395.615C205.015 377.558 195.691 370.773 178.735 362.615C177.693 362.112 176.475 362.914 176.53 364.07C176.8 370.542 182.024 376.565 182.836 383.337C182.93 384.071 183.566 384.615 184.297 384.642C187.572 384.764 190.657 384.723 192.011 388.422C195.231 399.354 175.812 401.991 168.559 402.127C147.53 402.508 127.407 389.442 109.991 389.17C107.136 389.129 102.21 390.257 100.816 392.895C95.5791 402.794 127.583 417.043 134.485 420.334C138.653 422.319 152.862 425.31 152.74 430.504C152.686 432.639 151.251 434.189 149.343 434.76C138.531 438.023 115.039 424.399 108.624 423.012C107.907 422.863 107.203 423.243 106.906 423.91C105.864 426.221 103.09 428.07 102.846 430.355C101.547 442.456 145.432 453.157 147.381 460.431C147.855 462.185 147.814 463.232 146.258 464.32C141.684 467.365 127.001 461.954 119.301 459.18L119.342 459.139ZM92.1012 379.829C92.8455 378.945 92.4125 377.572 91.2893 377.313C80.8694 374.866 69.3263 378.741 59.6777 382.698C54.2512 384.927 35.5224 398.144 31.8146 392.963C27.5113 386.94 45.6041 375.586 50.0968 373.085C59.177 368.027 78.1223 364.831 76.7285 351.493C76.6744 350.99 76.3766 350.541 75.9301 350.31C59.583 341.553 27.8361 355.232 17.7003 369.087C10.4334 379.013 15.048 382.82 14.9803 392.188C14.8721 407.457 12.5986 412.76 19.8655 428.07C22.7614 434.162 36.4426 448.506 34.2775 453.687C32.2341 458.595 26.1581 453.129 22.7073 450.804C21.7059 450.124 20.3527 450.845 20.3256 452.069C19.4866 491.581 43.3983 590.838 98.881 566.242C111.71 560.558 126.825 540.612 135.161 529.272C138.206 525.125 154.012 502.54 154.35 499.576C154.688 496.626 153.971 498.013 152.456 497.442C145.432 494.79 138.571 493.648 131.304 490.14C120.939 485.123 115.458 477.454 102.887 479.657C102.02 479.806 101.479 480.677 101.682 481.52C103.347 488.78 114.66 517.402 99.7606 512.33C94.2394 510.454 89.8278 483.532 85.3757 477.808C83.3187 475.156 77.6352 472.247 74.5362 468.303C72.7635 466.033 69.7187 459.139 69.1233 458.704C66.904 457.1 52.4379 464.088 54.1565 452.096C54.8737 447.106 76.6473 437.071 82.6286 431.633C86.2823 428.301 99.7335 413.848 92.3313 409.946C92.1554 409.85 91.9524 409.796 91.7629 409.769C86.0117 409.075 80.071 414.446 74.4686 416.649C69.854 418.457 51.6124 425.46 47.6474 423.665C47.4715 423.583 47.3091 423.447 47.1738 423.284C43.8313 419.382 49.0142 416.323 51.8966 414.365C57.1607 410.816 83.2511 401.189 85.0238 398.035C85.9034 396.485 85.511 390.135 87.3379 386.07C88.5693 383.323 90.4097 381.814 92.0606 379.842L92.1012 379.829ZM102.426 467.787C103.428 467.732 104.132 466.767 103.847 465.815C102.981 462.892 101.479 460.254 100.559 457.127C99.8823 454.829 100.654 451.906 99.95 449.581C99.1516 446.97 95.349 445.352 93.9552 442.551C93.5086 441.654 92.3584 441.382 91.587 442.034L80.9235 451.063C80.4228 451.484 80.2334 452.178 80.4634 452.789C84.3607 463.109 91.384 468.385 102.413 467.8L102.426 467.787ZM405.984 540.109C406.147 538.599 404.252 537.783 403.278 538.953C381.816 564.692 359.027 593.599 321.664 589.846C281.811 585.848 221.173 534.153 190.915 507.748C187.761 504.988 187.91 500.324 181.374 501.371C180.63 501.493 180.089 502.132 180.089 502.894C179.98 523.534 177.179 544.201 175.975 564.814C166.637 725.298 160.426 889.834 161.197 1050.22C161.333 1079.52 161.049 1108.82 161.062 1138.11C161.062 1138.41 160.967 1138.71 160.805 1138.97L156.001 1146.26C155.785 1146.58 155.473 1146.8 155.094 1146.9C133.619 1152.13 104.727 1163.12 91.8171 1181.85C81.9114 1196.23 82.8857 1201.32 99.9771 1205.55C123.226 1211.3 155.365 1208.35 179.399 1205.95C199.521 1203.93 219.36 1199.33 239.563 1197.9C240.362 1197.84 240.984 1197.18 240.984 1196.36C240.998 1183.83 244.164 1171.44 245.03 1159.02C253.177 1043.08 258.306 926.124 276.331 811.121C277.359 804.608 279.646 788.986 284.64 785.478C303.152 772.479 305.452 808.416 307.117 819.293C324.059 930.012 328.376 1042.28 338.431 1153.59C339.229 1162.42 341.719 1189.29 344.872 1196.06C347.47 1201.65 359.041 1202.17 365.022 1203.01C382.005 1205.39 403.061 1206.86 420.22 1207.37C437.623 1207.89 482.537 1208.1 497.409 1201.88C503.85 1199.19 499.872 1191.9 497.45 1186.87C490.819 1173.06 473.605 1161.1 459.748 1155.41C449.951 1151.37 430.194 1150.21 427.798 1138.56C424.158 1120.86 425.809 1095.98 424.984 1077.48C419.3 949.021 412.669 820.082 407.459 691.265C405.565 644.451 402.872 596.984 404.631 549.844C404.753 546.513 405.605 543.358 405.957 540.109H405.984Z" fill="#007BFF"/>
<path id="Vector_2" d="M406.065 535.635C406.553 540.516 404.848 545.003 404.658 549.844C402.885 596.971 405.592 644.451 407.486 691.265C412.696 820.082 419.327 949.021 425.011 1077.48C425.823 1095.98 424.185 1120.86 427.826 1138.56C430.221 1150.21 449.978 1151.37 459.775 1155.41C473.633 1161.12 490.846 1173.06 497.477 1186.87C499.885 1191.9 503.864 1199.19 497.436 1201.88C482.55 1208.1 437.65 1207.89 420.247 1207.37C403.075 1206.86 382.032 1205.4 365.049 1203.01C359.054 1202.17 347.497 1201.66 344.899 1196.06C341.746 1189.29 339.256 1162.42 338.458 1153.59C328.403 1042.28 324.1 930.012 307.144 819.293C305.479 808.429 303.179 772.493 284.667 785.478C279.673 788.972 277.386 804.595 276.358 811.121C258.333 926.124 253.204 1043.07 245.057 1159.02C244.151 1171.91 240.781 1184.76 241.025 1197.79C220.334 1199.09 200.035 1203.87 179.439 1205.93C155.392 1208.34 123.266 1211.28 100.018 1205.54C82.9263 1201.31 81.952 1196.21 91.8577 1181.84C104.889 1162.94 134.173 1151.93 155.717 1146.75L161.116 1138.57C161.089 1109.12 161.387 1079.66 161.252 1050.22C160.48 889.834 166.692 725.298 176.029 564.814C177.247 543.793 180.156 522.704 180.143 501.643C187.992 499.767 187.613 504.838 190.969 507.761C221.227 534.167 281.866 585.862 321.718 589.859C360.691 593.762 383.818 562.135 406.12 535.635H406.065Z" fill="white"/>
<path id="Vector_3" d="M116.5 458.133C122.603 460.186 141.061 467.773 146.298 464.279C147.855 463.191 147.895 462.144 147.422 460.39C145.459 453.116 101.574 442.415 102.887 430.314C103.171 427.744 106.649 425.732 107.244 422.971C110.032 421.34 137.435 438.322 149.37 434.719C151.292 434.134 152.726 432.584 152.767 430.463C152.889 425.269 138.68 422.278 134.512 420.293C127.61 417.002 95.6061 402.753 100.843 392.854C102.237 390.217 107.163 389.088 110.018 389.129C127.434 389.401 147.557 402.481 168.586 402.087C175.853 401.951 195.272 399.313 192.038 388.381C190.495 384.18 186.719 384.805 182.957 384.533C182.673 376.402 175.379 369.413 176.706 361.582C194.974 370.202 204.718 376.783 213.256 395.56C224.664 420.66 219.319 427.948 243.826 446.426C257.467 456.705 300.27 484.606 315.155 488.998C319.648 490.317 321.799 491.051 326.143 488.576C335.034 483.518 358.147 440.267 363.046 429.104C366.24 421.816 374.413 401.04 361.828 403.813C359.582 404.303 357.66 405.771 356.469 407.743L318.606 470.221L315.399 469.785L240.308 425.5C235.03 421.856 236.532 415.439 234.962 410.476C229.549 393.357 221.227 370.923 206.26 360.453C196.233 353.437 182.971 347.359 170.643 346.598C185.61 331.736 205.354 327.44 225.463 324.87C274.463 318.602 395.375 312.769 431.872 349.956C474.756 393.67 422.074 478.039 393.683 516.994C378.365 538.015 354.358 571.531 325.616 569.559C295.249 567.479 233.65 521.59 209.873 500.936C202.823 494.817 200.184 486.795 190.157 485.395C171.035 482.743 154.77 484.62 136.311 475.591C133.673 474.3 113.618 461.151 116.541 458.079L116.5 458.133Z" fill="white"/>
<g id="Group">
<path id="Vector_4" d="M177.856 262.76C113.456 199.792 138.125 82.805 216.789 45.1689C224.976 41.253 235.788 39.9069 242.27 36.7796C249.754 33.1764 252.189 28.3496 263.706 25.6846C345.685 6.70334 420.329 79.6777 420.681 160.565C421.263 291.789 270.566 353.41 177.843 262.746L177.856 262.76ZM293.274 47.8611C285.344 51.437 269.714 49.5879 259.592 51.4778C158.248 70.3503 122.509 215.769 222.459 267.559C315.331 315.679 406.323 245.111 396.58 144.276C392.006 97.0273 343.763 46.7325 295.696 45.5904C293.26 45.536 293.72 47.6571 293.274 47.8611Z" fill="#007BFF"/>
<path id="Vector_5" d="M293.274 47.8611C293.734 47.6571 293.274 45.536 295.696 45.5904C343.763 46.7325 392.019 97.0273 396.58 144.276C406.337 245.111 315.331 315.679 222.459 267.559C122.509 215.769 158.234 70.3503 259.592 51.4778C269.7 49.6015 285.344 51.4506 293.274 47.8611ZM284.735 173.034L215.747 188.086Z" fill="white"/>
</g>
<g id="Group_2">
<path id="Vector_6" d="M155.73 386.056C154.918 386.654 146.555 384.778 144.634 384.302C136.474 382.276 115.742 377.585 109.328 374.906C106.879 373.873 106.73 371.086 104.984 369.753C100.302 366.164 95.5926 363.703 89.4083 364.315C94.5641 340.058 81.2889 332.525 58.9876 334.429C54.4271 334.823 36.8486 340.438 35.2247 339.283L17.2267 291.367C16.1306 288.458 19.9061 287.383 23.005 287.166C33.452 286.432 87.9062 284.596 104.091 286.133C113.536 287.03 117.177 289.178 121.209 297.717C127.854 311.735 132.888 331.519 138.828 346.639C144.052 359.936 150.142 372.949 155.717 386.083L155.73 386.056ZM44.3726 295.378C33.0866 286.255 21.936 303.822 33.3979 311.151C45.2116 318.711 52.5597 302 44.3726 295.378Z" fill="white"/>
<path id="Vector_7" d="M93.468 377.925C91.6005 380.998 88.9617 382.507 87.3784 386.056C85.5516 390.121 85.944 396.471 85.0644 398.021C83.2917 401.176 57.2013 410.802 51.9372 414.351C48.9871 416.336 43.6554 419.477 47.4174 423.502C50.7734 425.786 69.7728 418.484 74.5092 416.635C80.2063 414.392 86.2417 408.885 92.1012 409.796C100.099 413.494 86.377 428.261 82.6692 431.619C76.6879 437.058 54.9143 447.092 54.1971 452.082C52.4785 464.075 66.9446 457.086 69.1639 458.69C69.7593 459.112 72.8041 466.019 74.5768 468.29C77.6757 472.233 83.3458 475.143 85.4162 477.794C89.8684 483.518 94.2935 510.426 99.8011 512.316C116.514 518.014 100.207 481.234 101.614 479.888C115.133 476.897 120.627 484.932 131.345 490.113C138.612 493.621 145.473 494.776 152.496 497.414C154.012 497.985 154.729 496.598 154.391 499.549C154.039 502.513 138.247 525.097 135.202 529.245C126.866 540.584 111.75 560.517 98.9215 566.214C42.4375 591.246 18.6882 487.937 20.4339 449.961C21.7736 448.411 31.5981 460.172 34.3181 453.66C36.4832 448.479 22.802 434.134 19.9061 428.043C12.6392 412.733 14.9127 407.444 15.0209 392.161C15.0886 382.779 10.474 378.986 17.7409 369.06C28.012 355.014 60.5302 341.132 76.6608 350.677C78.9072 364.682 59.4071 367.904 50.1374 373.057C45.6446 375.559 27.5384 386.912 31.8552 392.936C35.563 398.116 54.2783 384.9 59.7183 382.67C70.057 378.442 82.5474 374.295 93.5221 377.911L93.468 377.925Z" fill="white"/>
<path id="Vector_8" d="M19.0536 277.295C21.5435 273.732 26.3069 270.972 30.5155 270.455C48.933 268.225 92.7778 268.81 111.791 270.455C118.828 271.054 126.487 272.699 129.329 280.028L170.467 385.553C171.441 389.02 164.608 387.252 162.7 387.212C155.392 369.848 150.087 351.656 143.199 334.061C138.165 321.185 129.951 289.804 119.355 282.38C116.893 280.653 109.585 277.417 103.617 277.295H19.0536Z" fill="white"/>
<path id="Vector_9" d="M104.294 467.637C91.8035 468.983 84.1171 463.34 80.098 451.756L93.4409 440.457C93.5086 444.686 98.9757 446.399 99.95 449.58C100.654 451.906 99.8959 454.815 100.559 457.127C101.655 460.893 103.617 463.939 104.28 467.651L104.294 467.637Z" fill="white"/>
<path id="Vector_10" d="M44.3726 295.378C52.5462 301.986 45.2116 318.711 33.3979 311.151C21.9495 303.822 33.1002 286.268 44.3726 295.378Z" fill="#007BFF"/>
</g>
<g id="Group_3">
<path id="Vector_11" d="M251.757 147.784C251.581 147.784 251.405 147.784 251.229 147.757C247.846 147.485 245.302 144.901 243.434 139.83C242.798 136.322 242.933 134.608 243.15 133.779C243.38 132.963 244.233 131.345 247.047 128.354C250.66 124.968 254.003 123.051 256.967 122.725C257.224 122.698 257.481 122.684 257.738 122.684C260.174 122.684 262.258 124.084 264.112 126.953C265.208 129.578 265.587 131.835 265.262 133.657C264.924 135.574 263.936 137.912 262.339 140.618C258.59 145.364 255.031 147.77 251.757 147.77V147.784ZM301.163 142.467C300.987 142.467 300.811 142.467 300.635 142.44C297.266 142.168 294.708 139.585 292.841 134.527C292.205 131.019 292.34 129.292 292.557 128.476C292.787 127.66 293.639 126.042 296.454 123.051C300.067 119.665 303.423 117.748 306.373 117.408C306.63 117.381 306.887 117.368 307.145 117.368C309.58 117.368 311.664 118.768 313.518 121.637C314.614 124.261 314.993 126.518 314.668 128.354C314.33 130.271 313.342 132.61 311.745 135.315C307.997 140.061 304.438 142.467 301.177 142.467H301.163Z" fill="#007BFF"/>
<path id="Vector_12" d="M307.144 118.496C309.147 118.496 310.906 119.693 312.53 122.167C313.505 124.547 313.857 126.559 313.572 128.15C313.261 129.918 312.327 132.107 310.825 134.676C307.32 139.095 304.073 141.339 301.177 141.339C301.028 141.339 300.879 141.339 300.73 141.325C299.675 141.244 296.454 140.985 293.923 134.228C293.314 130.815 293.477 129.346 293.639 128.775C293.761 128.313 294.37 126.926 297.212 123.867C300.676 120.631 303.802 118.822 306.495 118.523C306.711 118.496 306.928 118.483 307.131 118.483M257.738 123.799C259.741 123.799 261.5 124.995 263.11 127.47C264.085 129.85 264.436 131.862 264.152 133.453C263.841 135.22 262.907 137.423 261.405 139.979C257.9 144.412 254.652 146.655 251.757 146.655C251.608 146.655 251.459 146.655 251.324 146.642C250.254 146.56 247.047 146.302 244.517 139.544C243.908 136.131 244.07 134.663 244.233 134.092C244.354 133.629 244.963 132.229 247.819 129.183C251.283 125.947 254.395 124.152 257.102 123.84C257.318 123.813 257.535 123.799 257.751 123.799M307.144 116.253C306.847 116.253 306.549 116.266 306.251 116.307C303.031 116.674 299.499 118.673 295.642 122.29C293.247 124.832 291.866 126.804 291.488 128.191C291.109 129.578 291.203 131.78 291.772 134.84C293.788 140.36 296.711 143.27 300.554 143.582C300.757 143.596 300.96 143.61 301.163 143.61C304.817 143.61 308.647 141.067 312.652 135.968C314.344 133.113 315.386 130.638 315.751 128.571C316.13 126.491 315.71 124.016 314.493 121.134C312.422 117.884 309.973 116.266 307.131 116.266L307.144 116.253ZM257.738 121.569C257.44 121.569 257.142 121.583 256.831 121.623C253.61 121.991 250.079 123.989 246.222 127.606C243.827 130.162 242.446 132.12 242.067 133.507C241.688 134.88 241.783 137.097 242.352 140.142C244.368 145.663 247.291 148.572 251.134 148.885C251.337 148.899 251.54 148.912 251.743 148.912C255.397 148.912 259.226 146.37 263.232 141.271C264.924 138.416 265.966 135.941 266.331 133.874C266.71 131.807 266.29 129.319 265.072 126.45C263.002 123.201 260.553 121.583 257.711 121.583L257.738 121.569Z" fill="#007BFF"/>
</g>
<g id="Group_4">
<path id="Vector_13" d="M273.869 195.44C268.943 195.44 263.49 195.236 257.657 194.869C251.676 194.475 245.546 193.945 239.443 193.292C233.285 192.626 227.615 191.728 222.568 190.614C217.182 189.743 213 189.05 209.983 188.547C207.019 188.044 204.705 187.541 203.108 187.038C201.538 186.534 200.117 185.936 198.927 185.243C197.682 184.522 196.166 183.53 194.299 182.183C190.388 179.777 187.329 177.696 185.151 175.929C183.987 174.991 183.459 174.406 183.229 174.093L183.879 173.672L183.053 172.693C182.783 172.367 182.322 171.646 181.713 170.028C181.267 168.818 181.118 167.784 181.294 166.982C181.443 165.663 182.079 164.072 183.216 162.101C184.068 160.632 184.555 160.089 184.772 159.912H184.988C185.34 159.871 185.678 159.857 186.003 159.857C187.587 159.857 189.034 160.116 190.293 160.632C191.308 161.04 191.768 161.312 191.971 161.462C191.971 162.767 193.311 164.399 198.629 167.458C200.212 169.076 201.931 170.218 203.758 170.871C205.517 171.496 208.034 172.095 211.485 172.693C214.814 173.264 219.794 174.134 226.438 175.29C234.26 176.541 240.796 177.506 245.857 178.159C250.918 178.811 255.708 179.192 260.079 179.301C260.891 179.315 261.73 179.328 262.583 179.328C266.291 179.328 270.472 179.138 274.992 178.771C276.372 179.002 277.793 179.111 279.214 179.111C281.055 179.111 282.949 178.92 284.844 178.539C288.484 177.805 289.621 177.696 289.972 177.696C290.947 177.996 292.043 178.172 293.139 178.172C293.843 178.172 294.573 178.104 295.291 177.968C296.874 177.656 298.065 177.166 298.877 176.459C299.553 176.609 300.311 176.69 301.109 176.69C302.003 176.69 303.004 176.595 304.06 176.391C304.181 176.391 304.303 176.405 304.438 176.405C305.467 176.405 307.172 176.024 309.784 175.195C312.626 174.297 316.063 173.441 320.001 172.638H320.082L320.163 172.598C323.194 171.496 325.711 170.939 327.633 170.925H327.822C330.15 170.925 331.151 171.034 331.584 171.129L331.882 171.197L332.18 171.102C333.831 170.545 335.509 169.892 337.173 169.144C338.851 168.396 340.705 167.064 342.83 165.079C344.941 164.684 347.444 163.705 350.259 162.128C353.087 160.551 355.794 159.191 358.297 158.076C361.504 156.281 363.575 154.745 364.739 153.304C365.902 151.849 366.728 149.633 367.256 146.532C368.216 144.52 368.609 142.508 368.406 140.563C368.649 140.536 368.88 140.523 369.137 140.523C369.61 140.523 370.097 140.577 370.598 140.686C371.803 140.944 372.682 141.08 373.291 141.08C373.318 141.08 373.359 141.08 373.386 141.08C375.186 141.678 376.931 143.405 378.555 146.22C380.287 149.211 381.235 152.134 381.343 154.895C381.465 156.812 380.49 159.082 378.46 161.666C376.309 164.399 373.481 167.159 370.043 169.865C366.606 172.57 363.128 174.678 359.705 176.16C357.418 177.017 354.603 178.091 351.328 179.382C348.067 180.661 344.873 181.925 341.761 183.176C338.689 184.4 336.131 185.392 334.155 186.099C333.722 186.263 333.357 186.385 333.073 186.48L333.181 185.991L331.233 186.752C329.297 187.513 326.009 188.343 321.449 189.24C316.861 190.138 311.57 191.062 305.724 192C299.919 192.939 294.086 193.7 288.389 194.298C282.692 194.883 277.807 195.277 273.855 195.468L273.869 195.44Z" fill="#007BFF"/>
<path id="Vector_14" d="M369.583 141.638C369.84 141.665 370.097 141.706 370.368 141.76C371.586 142.032 372.52 142.168 373.196 142.181C374.671 142.739 376.146 144.275 377.594 146.764C379.232 149.605 380.125 152.352 380.233 154.963C380.328 156.567 379.435 158.579 377.581 160.945C375.483 163.61 372.709 166.302 369.353 168.954C366.024 171.578 362.641 173.645 359.312 175.086C356.958 175.97 354.143 177.044 350.922 178.322C347.647 179.6 344.467 180.865 341.355 182.115C338.702 183.176 336.429 184.06 334.589 184.74L334.71 184.169L330.827 185.691C328.959 186.426 325.738 187.241 321.246 188.125C316.658 189.023 311.381 189.947 305.548 190.885C299.77 191.81 293.964 192.585 288.281 193.17C282.638 193.754 277.78 194.149 273.842 194.339C268.957 194.339 263.53 194.135 257.738 193.768C251.771 193.387 245.654 192.857 239.564 192.191C233.448 191.524 227.805 190.641 222.811 189.539H222.757L222.689 189.512C217.371 188.656 213.19 187.962 210.172 187.459C207.249 186.97 204.989 186.466 203.446 185.991C201.944 185.515 200.605 184.944 199.468 184.291C198.264 183.598 196.775 182.619 194.935 181.3L194.867 181.259L194.799 181.218C190.983 178.879 187.979 176.826 185.841 175.099C185.475 174.814 185.191 174.556 184.961 174.338L185.557 173.957L183.892 171.999C183.743 171.836 183.351 171.265 182.755 169.674C182.39 168.668 182.255 167.839 182.377 167.254L182.404 167.132V167.009C182.498 166.302 182.864 164.97 184.176 162.699C184.704 161.788 185.07 161.285 185.286 161.027C185.53 161.027 185.773 161.013 186.017 161.013C187.465 161.013 188.764 161.244 189.901 161.707C190.374 161.897 190.713 162.046 190.929 162.169C191.321 163.964 193.405 165.758 197.939 168.383C199.603 170.069 201.444 171.265 203.379 171.959C205.192 172.611 207.777 173.21 211.282 173.821C214.597 174.392 219.591 175.263 226.248 176.418C234.043 177.669 240.579 178.635 245.681 179.301C250.769 179.954 255.6 180.348 260.025 180.457C260.851 180.47 261.69 180.484 262.556 180.484C266.25 180.484 270.418 180.307 274.924 179.94C276.332 180.158 277.766 180.28 279.187 180.28C281.109 180.28 283.071 180.076 285.033 179.682C288.281 179.029 289.431 178.893 289.81 178.866C290.893 179.179 292.002 179.328 293.112 179.328C293.897 179.328 294.682 179.247 295.48 179.097C296.996 178.798 298.214 178.336 299.134 177.683C299.743 177.792 300.392 177.832 301.082 177.832C302.003 177.832 303.018 177.737 304.087 177.547C304.195 177.547 304.303 177.547 304.425 177.547C305.589 177.547 307.334 177.153 310.109 176.282C312.91 175.399 316.306 174.542 320.204 173.753L320.366 173.726L320.528 173.672C323.438 172.611 325.82 172.067 327.619 172.067H327.795C330.258 172.067 331.097 172.19 331.341 172.244L331.95 172.38L332.532 172.176C334.21 171.605 335.915 170.939 337.633 170.177C339.365 169.402 341.233 168.083 343.358 166.139C345.536 165.69 347.986 164.711 350.814 163.134C353.615 161.571 356.294 160.225 358.771 159.123L358.866 159.082L358.96 159.028C362.195 157.22 364.387 155.574 365.632 154.024C366.89 152.447 367.783 150.108 368.352 146.886C369.164 145.132 369.583 143.392 369.597 141.665M369.137 139.38C368.447 139.38 367.783 139.476 367.147 139.68C367.608 141.787 367.296 143.949 366.2 146.165C365.713 149.129 364.942 151.278 363.886 152.583C362.831 153.888 360.828 155.37 357.864 157.029C355.32 158.158 352.614 159.531 349.731 161.135C346.849 162.74 344.386 163.692 342.329 164.018C340.204 166.017 338.351 167.376 336.727 168.097C335.116 168.818 333.479 169.457 331.828 170.028C331.124 169.878 329.771 169.797 327.809 169.797H327.633C325.562 169.797 322.951 170.381 319.784 171.537C315.779 172.353 312.341 173.21 309.459 174.121C307.01 174.896 305.345 175.276 304.452 175.276C304.29 175.276 304.154 175.276 304.046 175.235C302.977 175.439 301.989 175.548 301.109 175.548C300.149 175.548 299.296 175.426 298.552 175.181C297.916 175.97 296.766 176.514 295.088 176.84C294.425 176.962 293.775 177.03 293.139 177.03C292.138 177.03 291.163 176.881 290.202 176.582C290.148 176.582 290.067 176.568 289.972 176.568C289.269 176.568 287.496 176.853 284.627 177.438C282.8 177.805 281 177.996 279.228 177.996C277.82 177.996 276.426 177.873 275.046 177.642C270.472 178.009 266.318 178.2 262.583 178.2C261.73 178.2 260.905 178.2 260.106 178.172C255.763 178.064 251.067 177.683 245.992 177.03C240.931 176.378 234.476 175.426 226.627 174.161C219.983 173.006 215.003 172.149 211.674 171.564C208.359 170.98 205.842 170.395 204.137 169.797C202.432 169.185 200.835 168.111 199.333 166.547C194.975 164.045 192.905 162.291 193.135 161.258C193.23 160.809 192.431 160.252 190.74 159.572C189.346 159.001 187.776 158.729 186.03 158.729C185.678 158.729 185.313 158.729 184.934 158.77C184.867 158.742 184.799 158.715 184.731 158.715C184.176 158.715 183.351 159.653 182.268 161.53C181.037 163.651 180.36 165.378 180.211 166.737C179.981 167.771 180.144 168.994 180.671 170.422C181.199 171.85 181.713 172.842 182.201 173.413C181.497 173.862 182.241 175.004 184.461 176.799C186.68 178.594 189.738 180.688 193.663 183.094C195.516 184.427 197.086 185.46 198.385 186.208C199.684 186.956 201.159 187.581 202.797 188.098C204.448 188.615 206.789 189.118 209.807 189.635C212.838 190.138 217.019 190.831 222.338 191.688C227.453 192.816 233.123 193.714 239.334 194.38C245.546 195.06 251.635 195.576 257.603 195.971C263.571 196.365 269.011 196.542 273.909 196.555C277.942 196.365 282.814 195.971 288.524 195.372C294.249 194.774 300.04 194.013 305.913 193.075C311.787 192.136 317.037 191.212 321.679 190.301C326.32 189.39 329.636 188.547 331.652 187.758C331.639 187.84 331.706 187.881 331.855 187.881C332.234 187.881 333.127 187.622 334.548 187.119C336.537 186.398 339.095 185.42 342.194 184.182C345.306 182.931 348.486 181.68 351.748 180.389C355.009 179.097 357.81 178.023 360.151 177.153C363.697 175.63 367.229 173.468 370.747 170.708C374.252 167.934 377.134 165.147 379.354 162.318C381.573 159.49 382.615 156.988 382.48 154.813C382.358 151.862 381.37 148.803 379.543 145.621C377.703 142.453 375.713 140.55 373.548 139.924C373.481 139.924 373.399 139.924 373.318 139.924C372.817 139.924 371.992 139.802 370.869 139.557C370.287 139.435 369.719 139.367 369.164 139.367L369.137 139.38Z" fill="#007BFF"/>
</g>
</g>
<defs>
<clipPath id="clip0_0_18">
<rect width="524" height="1230" fill="white"/>
</clipPath>
</defs>
</svg>
