<svg width="635" height="264" viewBox="0 0 635 264" fill="none" xmlns="http://www.w3.org/2000/svg">
<path d="M51.237 41.2C51.237 41.697 51.0435 42.1902 50.6565 42.5658C49.9015 43.2943 48.7025 43.2753 47.9741 42.5203C44.089 38.5024 40.3632 38.2672 38.1702 39.3826C36.7285 40.1187 35.9545 41.9967 35.8065 43.0059C35.7458 43.4233 35.6965 43.8216 35.6624 44.2086C40.5984 44.5084 45.5952 47.5891 47.8413 51.7209C49.3437 54.4867 48.7822 57.3019 46.4185 58.8917C43.9865 60.5269 39.593 60.2955 35.6851 55.9247C34.1485 54.206 32.5209 51.884 31.9859 48.2949C29.7664 48.7426 27.0005 49.8201 25.4525 52.3773C24.5723 53.8304 24.3181 55.3897 24.3712 56.987C26.6363 56.9377 29.5729 57.5372 32.8737 59.8402C34.3496 60.8722 36.0569 62.9399 37.3318 65.2353C38.4093 67.1817 39.6044 70.0462 39.1719 72.6413C38.819 74.7698 37.4266 76.2836 35.2526 76.9097C31.7431 77.9189 27.8087 74.1058 27.0574 73.3281C23.4683 69.6326 21.9772 65.3454 21.3588 62.3974C21.3094 62.1583 21.2563 61.9155 21.207 61.6689C18.6877 63.1676 17.7013 66.0966 17.2574 67.4093C16.3506 70.0955 16.4341 78.1882 19.807 83.4278C20.3761 84.3081 20.1219 85.4842 19.2379 86.0496C18.3539 86.6149 17.1815 86.3645 16.6162 85.4804C12.769 79.5086 12.3023 70.2245 13.6568 66.1952C14.2449 64.45 15.808 59.8098 20.414 57.8141C20.4747 57.7876 20.5392 57.761 20.6037 57.7345C20.4406 55.3632 20.7252 52.8477 22.1972 50.4119C23.859 47.665 26.6477 45.7187 30.2634 44.7853C30.806 44.645 31.3371 44.5349 31.8342 44.4515C31.8721 43.8141 31.9442 43.1463 32.0466 42.4444C32.297 40.7523 33.4997 37.4894 36.4401 35.9907C39.8434 34.2568 45.3714 34.3669 50.6944 39.872C51.0511 40.2401 51.2294 40.7143 51.2294 41.1886L51.237 41.2ZM35.78 48.0217C36.2049 50.4499 37.309 52.051 38.5155 53.3979C40.9171 56.0841 43.3453 56.3876 44.3014 55.7464C44.5556 55.5757 45.3334 55.0521 44.5101 53.5307C42.9356 50.6282 39.316 48.3631 35.78 48.0217ZM24.9024 60.7887C24.9593 61.0657 25.0162 61.3464 25.0769 61.6234C25.5929 64.0781 26.8298 67.6446 29.7854 70.6912C31.5079 72.463 33.4997 73.4722 34.2092 73.2674C35.0932 73.0132 35.3399 72.5844 35.4309 72.0229C35.8672 69.4126 32.7561 64.3893 30.7035 62.9551C29.8802 62.3784 27.5355 60.9139 24.9024 60.7887Z" fill="#FEE2A1"/>
<path d="M15.6835 50.8032C15.6835 49.2338 14.4112 47.9615 12.8417 47.9615C11.2723 47.9615 10 49.2338 10 50.8032C10 52.3727 11.2723 53.645 12.8417 53.645C14.4112 53.645 15.6835 52.3727 15.6835 50.8032Z" fill="#785EF0"/>
<path d="M59.1249 47.9612C59.1249 46.3917 57.8526 45.1195 56.2832 45.1195C54.7137 45.1195 53.4414 46.3917 53.4414 47.9612C53.4414 49.5307 54.7137 50.8029 56.2832 50.8029C57.8526 50.8029 59.1249 49.5307 59.1249 47.9612Z" fill="#648FFF"/>
<path d="M31.6913 89.1583C31.6913 87.5888 30.419 86.3165 28.8496 86.3165C27.2801 86.3165 26.0078 87.5888 26.0078 89.1583C26.0078 90.7277 27.2801 92 28.8496 92C30.419 92 31.6913 90.7277 31.6913 89.1583Z" fill="#EB5D5E"/>
<path d="M172.109 77.0255C172.079 76.9445 172.048 76.8684 172.013 76.7898C171.856 76.3946 171.699 76.0141 171.534 75.6384C169.003 69.2654 163.88 62.0159 159.476 56.7574C159.333 56.588 159.181 56.4088 159.024 56.2222C154.016 50.2861 142.266 37.1104 134.327 42.963C128.637 47.161 131.371 54.8204 133.748 60.1108C133.949 60.5577 143.533 78.5942 145.014 81.658C145.244 82.1785 143.644 83.1261 143.18 83.3298C139.932 84.7341 133.463 85.9051 129.808 86.6489C116.315 89.3911 104.19 88.6104 90.7443 89.7741C71.1071 91.4778 51.7547 96.7437 33.6518 104.258C24.9932 107.855 18.2372 111.731 19.4573 122.793C21.0113 136.828 37.0004 153.645 48.1287 161.564C52.803 164.893 63.1187 171.922 66.698 163.528C71.387 152.523 58.5696 141.326 53.019 133.04C52.2162 131.847 49.8398 128.521 50.0534 127.207C50.1762 126.444 51.2833 126.122 51.9216 125.815C53.7923 124.905 62.5442 121.686 64.2013 121.843C67.8469 122.197 67.324 127.038 67.4443 129.746C67.6063 133.2 67.5401 136.693 67.4541 140.184C67.4026 142.259 67.2283 146.648 67.2283 146.648C67.3903 147.682 68.9075 150.281 69.3592 151.7C70.6578 155.768 71.2053 161.636 69.1702 165.534C68.7037 166.423 67.2184 168.18 66.5188 168.792C66.5188 168.792 66.7176 185.024 66.5188 191.039H136.532C136.352 187.842 136.419 184.616 136.311 181.413C135.645 162.372 135.162 143.047 135.361 123.945C135.398 120.409 136.608 113.523 139.544 111.324C141.184 110.091 150.977 107.931 159.439 105.496C162.166 104.712 164.754 103.9 166.89 103.082C171.537 101.46 173.827 98.1946 174.662 94.2986C174.858 93.3878 174.971 92.4402 175.018 91.4729C175.254 86.6587 173.803 81.3094 172.106 77.0255H172.109Z" fill="#785EF0"/>
<path d="M96.2405 25C80.33 25 67.4316 37.8959 67.4316 53.8065C67.4316 69.717 80.33 82.6154 96.2405 82.6154C112.151 82.6154 125.047 69.7195 125.047 53.8065C125.047 37.8934 112.151 25 96.2405 25ZM95.5237 50.016C93.9525 50.016 92.6784 48.7419 92.6784 47.1707C92.6784 45.5995 93.9525 44.3205 95.5237 44.3205C97.0949 44.3205 98.3739 45.5971 98.3739 47.1707C98.3739 48.7443 97.0973 50.016 95.5237 50.016ZM106.529 64.7384C106.389 64.7433 106.247 64.7482 106.107 64.7482C100.979 64.7482 96.6996 60.6902 96.4762 55.5151C96.4443 54.7442 97.0433 54.0937 97.8117 54.0569C98.5826 54.0225 99.2381 54.624 99.2724 55.3948C99.4345 59.1656 102.636 62.1067 106.409 61.9422C110.182 61.7802 113.118 58.5764 112.956 54.8007C112.924 54.0323 113.523 53.3793 114.294 53.3425C115.063 53.3081 115.718 53.9096 115.753 54.6804C115.983 59.9954 111.847 64.5052 106.532 64.7359L106.529 64.7384ZM114.825 48.6658C113.253 48.6658 111.979 47.3867 111.979 45.8156C111.979 44.2444 113.253 42.9703 114.825 42.9703C116.396 42.9703 117.675 44.2444 117.675 45.8156C117.675 47.3867 116.396 48.6658 114.825 48.6658Z" fill="#785EF0"/>
<path d="M73.1665 211.588C73.0859 210.872 72.7533 210.318 72.1689 209.925C71.5844 209.527 70.8487 209.328 69.962 209.328C69.3271 209.328 68.7779 209.429 68.3143 209.63C67.8508 209.827 67.4905 210.099 67.2336 210.446C66.9816 210.789 66.8557 211.179 66.8557 211.618C66.8557 211.986 66.9413 212.303 67.1126 212.57C67.289 212.837 67.5182 213.061 67.8004 213.243C68.0876 213.419 68.395 213.568 68.7225 213.689C69.05 213.805 69.3649 213.9 69.6672 213.976L71.1788 214.369C71.6726 214.49 72.1789 214.654 72.6979 214.86C73.2169 215.067 73.6981 215.339 74.1415 215.676C74.5849 216.014 74.9426 216.432 75.2147 216.931C75.4918 217.43 75.6304 218.027 75.6304 218.722C75.6304 219.599 75.4036 220.377 74.9502 221.058C74.5017 221.738 73.8492 222.274 72.9927 222.667C72.1411 223.06 71.1108 223.257 69.9015 223.257C68.7426 223.257 67.7399 223.073 66.8935 222.705C66.047 222.337 65.3844 221.816 64.9057 221.141C64.4271 220.461 64.1625 219.654 64.1121 218.722H66.4551C66.5004 219.282 66.6818 219.748 66.9993 220.12C67.3217 220.488 67.7324 220.763 68.2312 220.944C68.7351 221.121 69.2868 221.209 69.8864 221.209C70.5464 221.209 71.1334 221.105 71.6474 220.899C72.1663 220.687 72.5745 220.395 72.8717 220.022C73.169 219.644 73.3177 219.203 73.3177 218.7C73.3177 218.241 73.1867 217.866 72.9246 217.573C72.6677 217.281 72.3175 217.039 71.8741 216.848C71.4357 216.656 70.9394 216.488 70.3852 216.341L68.5562 215.843C67.3167 215.505 66.3342 215.009 65.6086 214.354C64.8881 213.699 64.5278 212.832 64.5278 211.754C64.5278 210.862 64.7697 210.084 65.2534 209.418C65.7371 208.753 66.3921 208.237 67.2184 207.869C68.0448 207.496 68.9769 207.31 70.0149 207.31C71.0629 207.31 71.9875 207.494 72.7886 207.862C73.5948 208.229 74.2296 208.736 74.6932 209.381C75.1567 210.021 75.3986 210.756 75.4188 211.588H73.1665ZM82.0655 223.234C80.9772 223.234 80.0274 222.985 79.2162 222.486C78.405 221.987 77.7752 221.289 77.3267 220.393C76.8783 219.496 76.6541 218.448 76.6541 217.248C76.6541 216.044 76.8783 214.991 77.3267 214.089C77.7752 213.187 78.405 212.487 79.2162 211.988C80.0274 211.489 80.9772 211.24 82.0655 211.24C83.1539 211.24 84.1037 211.489 84.9149 211.988C85.7261 212.487 86.3559 213.187 86.8043 214.089C87.2528 214.991 87.477 216.044 87.477 217.248C87.477 218.448 87.2528 219.496 86.8043 220.393C86.3559 221.289 85.7261 221.987 84.9149 222.486C84.1037 222.985 83.1539 223.234 82.0655 223.234ZM82.0731 221.337C82.7785 221.337 83.363 221.151 83.8265 220.778C84.2901 220.405 84.6327 219.909 84.8544 219.289C85.0811 218.669 85.1945 217.987 85.1945 217.241C85.1945 216.5 85.0811 215.82 84.8544 215.2C84.6327 214.575 84.2901 214.074 83.8265 213.696C83.363 213.318 82.7785 213.129 82.0731 213.129C81.3627 213.129 80.7731 213.318 80.3046 213.696C79.841 214.074 79.4959 214.575 79.2691 215.2C79.0474 215.82 78.9366 216.5 78.9366 217.241C78.9366 217.987 79.0474 218.669 79.2691 219.289C79.4959 219.909 79.841 220.405 80.3046 220.778C80.7731 221.151 81.3627 221.337 82.0731 221.337ZM94.4601 211.391V213.205H87.8999V211.391H94.4601ZM89.6986 223V210.046C89.6986 209.32 89.8573 208.718 90.1748 208.239C90.4922 207.756 90.9129 207.395 91.4369 207.159C91.961 206.917 92.5303 206.796 93.145 206.796C93.5985 206.796 93.9865 206.834 94.3089 206.909C94.6314 206.98 94.8707 207.045 95.0269 207.106L94.4979 208.935C94.3921 208.905 94.256 208.869 94.0898 208.829C93.9235 208.784 93.7219 208.761 93.4851 208.761C92.9359 208.761 92.5429 208.897 92.3061 209.169C92.0743 209.441 91.9584 209.834 91.9584 210.348V223H89.6986ZM101.147 211.391V213.205H94.8055V211.391H101.147ZM96.506 208.61H98.7658V219.591C98.7658 220.03 98.8313 220.36 98.9623 220.581C99.0933 220.798 99.2621 220.947 99.4687 221.027C99.6803 221.103 99.9096 221.141 100.156 221.141C100.338 221.141 100.497 221.128 100.633 221.103C100.769 221.078 100.874 221.058 100.95 221.043L101.358 222.909C101.227 222.96 101.041 223.01 100.799 223.06C100.557 223.116 100.255 223.146 99.892 223.151C99.2974 223.161 98.7432 223.055 98.2292 222.834C97.7153 222.612 97.2996 222.269 96.9822 221.806C96.6647 221.342 96.506 220.76 96.506 220.06V208.61ZM105.099 223L101.683 211.391H104.018L106.293 219.916H106.406L108.689 211.391H111.024L113.292 219.879H113.405L115.665 211.391H118L114.592 223H112.287L109.928 214.618H109.755L107.397 223H105.099ZM122.459 223.257C121.723 223.257 121.058 223.121 120.464 222.849C119.869 222.572 119.398 222.171 119.05 221.647C118.708 221.123 118.537 220.481 118.537 219.72C118.537 219.065 118.662 218.526 118.914 218.102C119.166 217.679 119.506 217.344 119.935 217.097C120.363 216.85 120.842 216.664 121.371 216.538C121.9 216.412 122.439 216.316 122.988 216.251C123.683 216.17 124.248 216.105 124.681 216.054C125.114 215.999 125.429 215.911 125.626 215.79C125.822 215.669 125.921 215.472 125.921 215.2V215.147C125.921 214.487 125.734 213.976 125.361 213.613C124.993 213.25 124.444 213.069 123.714 213.069C122.953 213.069 122.353 213.238 121.915 213.575C121.482 213.908 121.182 214.278 121.016 214.686L118.892 214.203C119.144 213.497 119.511 212.928 119.995 212.495C120.484 212.056 121.046 211.739 121.681 211.542C122.315 211.341 122.983 211.24 123.683 211.24C124.147 211.24 124.638 211.295 125.157 211.406C125.681 211.512 126.17 211.709 126.623 211.996C127.082 212.283 127.457 212.694 127.75 213.228C128.042 213.757 128.188 214.444 128.188 215.291V223H125.981V221.413H125.89C125.744 221.705 125.525 221.992 125.233 222.274C124.941 222.557 124.565 222.791 124.107 222.977C123.648 223.164 123.099 223.257 122.459 223.257ZM122.95 221.443C123.575 221.443 124.109 221.32 124.553 221.073C125.001 220.826 125.341 220.503 125.573 220.105C125.81 219.702 125.928 219.271 125.928 218.813V217.316C125.848 217.397 125.691 217.473 125.46 217.543C125.233 217.609 124.973 217.667 124.681 217.717C124.389 217.762 124.104 217.805 123.827 217.846C123.55 217.881 123.318 217.911 123.132 217.936C122.693 217.992 122.293 218.085 121.93 218.216C121.572 218.347 121.285 218.536 121.068 218.783C120.857 219.025 120.751 219.347 120.751 219.75C120.751 220.309 120.958 220.733 121.371 221.02C121.784 221.302 122.31 221.443 122.95 221.443ZM130.134 223V211.391H132.318V213.235H132.439C132.65 212.61 133.023 212.119 133.557 211.761C134.097 211.399 134.706 211.217 135.386 211.217C135.528 211.217 135.694 211.222 135.885 211.232C136.082 211.242 136.235 211.255 136.346 211.27V213.432C136.256 213.407 136.094 213.379 135.863 213.349C135.631 213.313 135.399 213.296 135.167 213.296C134.633 213.296 134.157 213.409 133.739 213.636C133.326 213.857 132.998 214.167 132.756 214.565C132.514 214.958 132.394 215.407 132.394 215.911V223H130.134ZM141.825 223.234C140.682 223.234 139.697 222.99 138.87 222.501C138.049 222.007 137.414 221.315 136.966 220.423C136.522 219.526 136.301 218.475 136.301 217.271C136.301 216.082 136.522 215.034 136.966 214.127C137.414 213.22 138.039 212.512 138.84 212.003C139.646 211.494 140.588 211.24 141.667 211.24C142.322 211.24 142.957 211.348 143.571 211.565C144.186 211.782 144.738 212.122 145.226 212.585C145.715 213.049 146.101 213.651 146.383 214.392C146.665 215.127 146.806 216.022 146.806 217.075V217.876H137.578V216.183H144.592C144.592 215.588 144.471 215.062 144.229 214.603C143.987 214.14 143.647 213.774 143.208 213.507C142.775 213.24 142.266 213.107 141.682 213.107C141.047 213.107 140.493 213.263 140.019 213.575C139.55 213.883 139.188 214.286 138.931 214.785C138.679 215.278 138.553 215.815 138.553 216.394V217.717C138.553 218.493 138.689 219.153 138.961 219.697C139.238 220.241 139.624 220.657 140.117 220.944C140.611 221.226 141.188 221.367 141.848 221.367C142.276 221.367 142.667 221.307 143.02 221.186C143.372 221.06 143.677 220.874 143.934 220.627C144.191 220.38 144.388 220.075 144.524 219.712L146.662 220.098C146.491 220.728 146.184 221.279 145.74 221.753C145.302 222.222 144.75 222.587 144.085 222.849C143.425 223.106 142.672 223.234 141.825 223.234ZM58.8776 249H53.8667V233.521H59.0363C60.5529 233.521 61.8554 233.831 62.9437 234.451C64.032 235.066 64.8659 235.95 65.4454 237.104C66.0298 238.253 66.3221 239.631 66.3221 241.238C66.3221 242.85 66.0273 244.236 65.4378 245.395C64.8533 246.554 64.0068 247.446 62.8984 248.07C61.7899 248.69 60.4496 249 58.8776 249ZM56.2021 246.959H58.7491C59.9281 246.959 60.9081 246.738 61.6891 246.294C62.4701 245.846 63.0545 245.198 63.4425 244.352C63.8305 243.5 64.0245 242.462 64.0245 241.238C64.0245 240.024 63.8305 238.993 63.4425 238.147C63.0596 237.3 62.4877 236.658 61.7269 236.22C60.966 235.781 60.0213 235.562 58.8927 235.562H56.2021V246.959ZM72.984 249.234C71.8402 249.234 70.8552 248.99 70.0288 248.501C69.2076 248.007 68.5727 247.315 68.1243 246.423C67.6809 245.526 67.4592 244.475 67.4592 243.271C67.4592 242.082 67.6809 241.034 68.1243 240.127C68.5727 239.22 69.1975 238.512 69.9986 238.003C70.8048 237.494 71.747 237.24 72.8253 237.24C73.4803 237.24 74.1151 237.348 74.7299 237.565C75.3446 237.782 75.8963 238.122 76.385 238.585C76.8738 239.049 77.2592 239.651 77.5414 240.392C77.8235 241.127 77.9646 242.022 77.9646 243.075V243.876H68.7364V242.183H75.7502C75.7502 241.588 75.6292 241.062 75.3874 240.603C75.1455 240.14 74.8054 239.774 74.3671 239.507C73.9338 239.24 73.4249 239.107 72.8404 239.107C72.2055 239.107 71.6513 239.263 71.1776 239.575C70.7091 239.883 70.3463 240.286 70.0893 240.785C69.8374 241.278 69.7114 241.815 69.7114 242.394V243.717C69.7114 244.493 69.8475 245.153 70.1195 245.697C70.3967 246.241 70.7821 246.657 71.2759 246.944C71.7697 247.226 72.3466 247.367 73.0067 247.367C73.4349 247.367 73.8254 247.307 74.1781 247.186C74.5308 247.06 74.8357 246.874 75.0926 246.627C75.3496 246.38 75.5461 246.075 75.6821 245.712L77.821 246.098C77.6497 246.728 77.3424 247.279 76.899 247.753C76.4606 248.222 75.9089 248.587 75.2438 248.849C74.5837 249.106 73.8305 249.234 72.984 249.234ZM89.0063 237.391L84.7966 249H82.3781L78.1608 237.391H80.5868L83.5269 246.325H83.6478L86.5802 237.391H89.0063ZM94.6744 249.234C93.5306 249.234 92.5456 248.99 91.7192 248.501C90.8979 248.007 90.2631 247.315 89.8146 246.423C89.3712 245.526 89.1496 244.475 89.1496 243.271C89.1496 242.082 89.3712 241.034 89.8146 240.127C90.2631 239.22 90.8879 238.512 91.689 238.003C92.4952 237.494 93.4374 237.24 94.5157 237.24C95.1707 237.24 95.8055 237.348 96.4202 237.565C97.0349 237.782 97.5867 238.122 98.0754 238.585C98.5642 239.049 98.9496 239.651 99.2318 240.392C99.5139 241.127 99.655 242.022 99.655 243.075V243.876H90.4268V242.183H97.4406C97.4406 241.588 97.3196 241.062 97.0778 240.603C96.8359 240.14 96.4958 239.774 96.0575 239.507C95.6241 239.24 95.1152 239.107 94.5308 239.107C93.8959 239.107 93.3417 239.263 92.868 239.575C92.3994 239.883 92.0367 240.286 91.7797 240.785C91.5278 241.278 91.4018 241.815 91.4018 242.394V243.717C91.4018 244.493 91.5378 245.153 91.8099 245.697C92.0871 246.241 92.4725 246.657 92.9663 246.944C93.4601 247.226 94.037 247.367 94.697 247.367C95.1253 247.367 95.5158 247.307 95.8685 247.186C96.2212 247.06 96.5261 246.874 96.783 246.627C97.04 246.38 97.2365 246.075 97.3725 245.712L99.5114 246.098C99.3401 246.728 99.0328 247.279 98.5894 247.753C98.151 248.222 97.5993 248.587 96.9342 248.849C96.2741 249.106 95.5209 249.234 94.6744 249.234ZM103.358 233.521V249H101.098V233.521H103.358ZM110.224 249.234C109.136 249.234 108.186 248.985 107.375 248.486C106.563 247.987 105.934 247.289 105.485 246.393C105.037 245.496 104.813 244.448 104.813 243.248C104.813 242.044 105.037 240.991 105.485 240.089C105.934 239.187 106.563 238.487 107.375 237.988C108.186 237.489 109.136 237.24 110.224 237.24C111.312 237.24 112.262 237.489 113.073 237.988C113.885 238.487 114.514 239.187 114.963 240.089C115.411 240.991 115.635 242.044 115.635 243.248C115.635 244.448 115.411 245.496 114.963 246.393C114.514 247.289 113.885 247.987 113.073 248.486C112.262 248.985 111.312 249.234 110.224 249.234ZM110.232 247.337C110.937 247.337 111.521 247.151 111.985 246.778C112.449 246.405 112.791 245.909 113.013 245.289C113.24 244.669 113.353 243.987 113.353 243.241C113.353 242.5 113.24 241.82 113.013 241.2C112.791 240.575 112.449 240.074 111.985 239.696C111.521 239.318 110.937 239.129 110.232 239.129C109.521 239.129 108.932 239.318 108.463 239.696C107.999 240.074 107.654 240.575 107.428 241.2C107.206 241.82 107.095 242.5 107.095 243.241C107.095 243.987 107.206 244.669 107.428 245.289C107.654 245.909 107.999 246.405 108.463 246.778C108.932 247.151 109.521 247.337 110.232 247.337ZM117.094 253.353V237.391H119.301V239.273H119.49C119.621 239.031 119.81 238.752 120.056 238.434C120.303 238.117 120.646 237.84 121.084 237.603C121.523 237.361 122.102 237.24 122.823 237.24C123.76 237.24 124.596 237.477 125.332 237.95C126.067 238.424 126.644 239.107 127.063 239.999C127.486 240.89 127.697 241.964 127.697 243.218C127.697 244.473 127.488 245.549 127.07 246.445C126.652 247.337 126.078 248.025 125.347 248.509C124.616 248.987 123.782 249.227 122.845 249.227C122.14 249.227 121.563 249.108 121.115 248.872C120.671 248.635 120.323 248.358 120.072 248.04C119.82 247.723 119.626 247.441 119.49 247.194H119.354V253.353H117.094ZM119.308 243.196C119.308 244.012 119.427 244.727 119.663 245.342C119.9 245.957 120.243 246.438 120.691 246.786C121.14 247.128 121.689 247.299 122.339 247.299C123.014 247.299 123.578 247.121 124.032 246.763C124.485 246.4 124.828 245.909 125.06 245.289C125.297 244.669 125.415 243.971 125.415 243.196C125.415 242.43 125.299 241.742 125.067 241.132C124.841 240.523 124.498 240.041 124.039 239.689C123.586 239.336 123.019 239.16 122.339 239.16C121.684 239.16 121.13 239.328 120.676 239.666C120.228 240.004 119.888 240.475 119.656 241.079C119.424 241.684 119.308 242.389 119.308 243.196ZM134.169 249.234C133.025 249.234 132.04 248.99 131.213 248.501C130.392 248.007 129.757 247.315 129.309 246.423C128.865 245.526 128.644 244.475 128.644 243.271C128.644 242.082 128.865 241.034 129.309 240.127C129.757 239.22 130.382 238.512 131.183 238.003C131.989 237.494 132.932 237.24 134.01 237.24C134.665 237.24 135.3 237.348 135.914 237.565C136.529 237.782 137.081 238.122 137.57 238.585C138.058 239.049 138.444 239.651 138.726 240.392C139.008 241.127 139.149 242.022 139.149 243.075V243.876H129.921V242.183H136.935C136.935 241.588 136.814 241.062 136.572 240.603C136.33 240.14 135.99 239.774 135.552 239.507C135.118 239.24 134.609 239.107 134.025 239.107C133.39 239.107 132.836 239.263 132.362 239.575C131.894 239.883 131.531 240.286 131.274 240.785C131.022 241.278 130.896 241.815 130.896 242.394V243.717C130.896 244.493 131.032 245.153 131.304 245.697C131.581 246.241 131.967 246.657 132.46 246.944C132.954 247.226 133.531 247.367 134.191 247.367C134.619 247.367 135.01 247.307 135.363 247.186C135.715 247.06 136.02 246.874 136.277 246.627C136.534 246.38 136.731 246.075 136.867 245.712L139.006 246.098C138.834 246.728 138.527 247.279 138.083 247.753C137.645 248.222 137.093 248.587 136.428 248.849C135.768 249.106 135.015 249.234 134.169 249.234ZM140.592 249V237.391H142.777V239.235H142.897C143.109 238.61 143.482 238.119 144.016 237.761C144.555 237.399 145.165 237.217 145.845 237.217C145.986 237.217 146.152 237.222 146.344 237.232C146.54 237.242 146.694 237.255 146.805 237.27V239.432C146.714 239.407 146.553 239.379 146.321 239.349C146.089 239.313 145.858 239.296 145.626 239.296C145.092 239.296 144.616 239.409 144.197 239.636C143.784 239.857 143.457 240.167 143.215 240.565C142.973 240.958 142.852 241.407 142.852 241.911V249H140.592ZM156.395 240.225L154.347 240.588C154.262 240.326 154.126 240.077 153.939 239.84C153.758 239.603 153.511 239.409 153.199 239.258C152.886 239.107 152.496 239.031 152.027 239.031C151.387 239.031 150.853 239.175 150.425 239.462C149.996 239.744 149.782 240.109 149.782 240.558C149.782 240.946 149.926 241.258 150.213 241.495C150.5 241.732 150.964 241.926 151.604 242.077L153.448 242.5C154.516 242.747 155.312 243.128 155.836 243.641C156.36 244.155 156.622 244.823 156.622 245.644C156.622 246.34 156.421 246.959 156.018 247.504C155.62 248.043 155.063 248.466 154.347 248.773C153.637 249.081 152.813 249.234 151.876 249.234C150.576 249.234 149.515 248.957 148.694 248.403C147.873 247.844 147.369 247.05 147.182 246.022L149.367 245.69C149.503 246.259 149.782 246.69 150.206 246.982C150.629 247.269 151.181 247.413 151.861 247.413C152.601 247.413 153.193 247.259 153.637 246.952C154.08 246.639 154.302 246.259 154.302 245.811C154.302 245.448 154.166 245.143 153.894 244.896C153.627 244.649 153.216 244.463 152.662 244.337L150.697 243.906C149.614 243.659 148.812 243.266 148.293 242.727C147.78 242.188 147.523 241.505 147.523 240.679C147.523 239.994 147.714 239.394 148.097 238.88C148.48 238.366 149.009 237.965 149.684 237.678C150.359 237.386 151.133 237.24 152.004 237.24C153.259 237.24 154.247 237.512 154.967 238.056C155.688 238.595 156.164 239.318 156.395 240.225Z" fill="#785EF0"/>
<path d="M249.028 56.728C248.342 56.8923 247.611 56.9773 246.834 56.9597C242.207 56.8625 239.222 53.2244 238.418 52.1111C237.936 51.4458 238.072 50.512 238.722 50.0278C239.371 49.5436 240.29 49.6905 240.771 50.3559C241.201 50.9486 243.506 53.905 246.869 53.9756C248.813 54.0167 250.617 53.086 252.237 51.2106C253.102 50.209 253.892 48.9483 254.465 47.6593C254.734 47.0558 254.936 46.4563 255.083 45.8699C254.962 45.8375 254.84 45.8028 254.717 45.7658C251.782 44.8951 249.353 43.1982 247.689 40.8571C246.119 38.6473 244.024 34.2332 246.137 31.7102C247.325 30.2905 249.219 30.2489 249.977 30.297C252.719 30.4714 255.137 32.6816 256.973 36.6894C257.945 38.8129 258.404 41.1394 258.345 43.4315C259.754 43.5059 261.468 43.2945 263.147 42.2755C263.27 42.2009 265.805 40.6318 266.862 37.5664C266.261 37.4193 265.659 37.1874 265.065 36.8564C263.308 35.8739 261.928 34.1083 261.175 31.8828C260.595 30.1648 260.239 27.0662 261.644 25.5639C262.455 24.6981 263.478 24.3019 264.604 24.4251C266.666 24.6463 268.348 26.5501 268.95 27.525C270.147 29.4645 270.634 31.8293 270.401 34.5697C271.777 34.2262 272.968 33.5795 273.547 33.2659C278.943 30.3358 280.245 23.5265 280.514 21.5084C280.623 20.6946 281.361 20.1276 282.162 20.2482C282.963 20.3665 283.524 21.124 283.415 21.9377C283.258 23.1108 282.834 25.4594 281.756 27.9832C280.202 31.6241 277.91 34.2871 274.942 35.8984C274.074 36.371 272.149 37.4158 269.888 37.7083C268.719 42.2623 265.1 44.5734 264.66 44.8395C262.665 46.0477 260.425 46.5623 257.972 46.3804C257.771 47.2492 257.492 48.0966 257.133 48.9062C256.388 50.5866 253.8 55.5817 249.027 56.7236L249.028 56.728ZM248.986 33.3371C248.712 33.4027 248.495 33.5137 248.372 33.659C247.761 34.3896 248.578 37.0491 250.056 39.1271C251.312 40.8964 253.166 42.1914 255.423 42.8792C255.38 40.5121 254.648 38.6508 254.318 37.9325C253.007 35.0716 251.369 33.3725 249.823 33.2765C249.517 33.2575 249.23 33.2811 248.987 33.3393L248.986 33.3371ZM264.12 27.4009C264.012 27.4266 263.905 27.4924 263.774 27.6326C263.518 27.9682 263.486 29.5891 263.943 30.9368C264.456 32.4532 265.35 33.628 266.459 34.2497C266.78 34.4284 267.11 34.5576 267.449 34.6468C267.693 32.4121 267.368 30.548 266.472 29.0995C266.01 28.3536 265.015 27.4682 264.32 27.3955C264.251 27.3883 264.186 27.3873 264.118 27.4036L264.12 27.4009Z" fill="#FEE2A1"/>
<path d="M232.503 49.3711C234.114 48.9856 235.16 47.5846 234.839 46.2417C234.518 44.8989 232.951 44.1229 231.34 44.5084C229.728 44.8939 228.682 46.295 229.004 47.6378C229.325 48.9806 230.892 49.7566 232.503 49.3711Z" fill="#648FFF"/>
<path d="M272.333 20.3059C273.676 19.9847 274.504 18.6357 274.183 17.2929C273.861 15.95 272.512 15.1219 271.17 15.4432C269.827 15.7644 268.999 17.1134 269.32 18.4562C269.641 19.799 270.99 20.6272 272.333 20.3059Z" fill="#EB5D5E"/>
<path d="M283.286 40.3061C284.629 39.9848 285.457 38.6358 285.136 37.293C284.815 35.9502 283.466 35.122 282.123 35.4433C280.78 35.7646 279.952 37.1136 280.273 38.4564C280.594 39.7992 281.943 40.6273 283.286 40.3061Z" fill="#785EF0"/>
<path d="M303.797 127.468C305.749 127.468 307.334 125.881 307.334 123.926C307.334 121.971 305.752 120.383 303.797 120.383C301.842 120.383 300.26 121.968 300.26 123.926C300.26 125.883 301.845 127.468 303.797 127.468Z" fill="#EB5D5E"/>
<path d="M343.787 96.8667C327.434 92.8908 305.431 91.7184 289.983 99.116C282.137 102.876 274.82 109.658 265.354 109.981C263.255 110.051 261.492 109.304 260.891 107.581C260.631 106.839 260.673 106.023 260.926 105.275C263.658 97.1689 265.877 92.1501 268.634 84.0777C269.419 81.7739 271.559 76.1985 271.729 72.1475C271.893 68.2261 270.296 65.2611 266.694 63.7071C263.207 62.2053 260.288 62.9301 258.116 64.0479C250.863 67.7785 243.706 78.7045 239.818 85.6999C227.477 107.906 225.36 132.076 254.804 139.835C262.542 141.873 270.355 141.884 278.303 141.366C278.77 147.069 279.141 191.856 279.141 191.856L351.974 191.845C351.974 191.845 352.151 175.993 352.215 172.599C352.215 172.599 343.317 173.324 333.722 172.276V177.02C333.722 179.179 331.955 180.928 329.77 180.928H299.001C296.819 180.928 295.049 179.181 295.049 177.02V118.687C295.049 116.529 296.817 114.777 299.001 114.777H329.77C331.955 114.777 333.722 116.529 333.722 118.687V146.058C339.359 144.694 349.182 143.188 350.931 142.936C350.931 142.936 350.972 128.309 350.995 127.768C356.376 128.227 364.234 131.14 364.761 137.304C365.12 141.518 363.626 142.943 359.785 144.06C353.937 145.764 342.291 146.601 333.727 149.127C329.743 150.304 322.322 153.469 322.601 159.542C322.988 167.991 332.864 169.336 333.727 169.475C342.781 170.947 361.587 169.252 369.07 167.471C379.072 165.09 387.862 159.383 390.331 149.011C396.919 121.263 367.09 102.529 343.796 96.8645L343.787 96.8667Z" fill="#EB5D5E"/>
<path d="M316.001 28.4794C295.296 30.1484 282.705 52.7611 292.822 71.4796C303.665 91.5435 333.113 91.2744 343.817 71.1269C354.657 50.7249 338.397 26.6723 316.001 28.4794ZM328.398 46.8052C329.78 46.8052 330.904 47.9433 330.904 49.3505C330.904 50.7577 329.78 51.8921 328.398 51.8921C327.017 51.8921 325.893 50.754 325.893 49.3505C325.893 47.947 327.013 46.8052 328.398 46.8052ZM308.122 46.8052C309.504 46.8052 310.628 47.9433 310.628 49.3505C310.628 50.7577 309.504 51.8921 308.122 51.8921C306.74 51.8921 305.616 50.754 305.616 49.3505C305.616 47.947 306.737 46.8052 308.122 46.8052ZM332.537 59.2951C331.681 66.5273 325.617 72.1378 318.26 72.1378C310.904 72.1378 304.839 66.5273 303.984 59.2951C303.873 58.357 304.617 57.5353 305.548 57.5353H330.972C331.903 57.5353 332.648 58.357 332.537 59.2951Z" fill="#EB5D5E"/>
<path d="M285.395 223.383V207.905H290.913C292.117 207.905 293.115 208.124 293.906 208.562C294.697 209.001 295.289 209.6 295.682 210.361C296.075 211.117 296.271 211.968 296.271 212.916C296.271 213.868 296.072 214.725 295.674 215.485C295.281 216.241 294.687 216.841 293.891 217.284C293.099 217.723 292.104 217.942 290.905 217.942H287.111V215.962H290.694C291.454 215.962 292.072 215.831 292.545 215.569C293.019 215.302 293.367 214.939 293.588 214.48C293.81 214.022 293.921 213.5 293.921 212.916C293.921 212.331 293.81 211.812 293.588 211.359C293.367 210.905 293.016 210.55 292.538 210.293C292.064 210.036 291.439 209.908 290.663 209.908H287.731V223.383H285.395ZM297.764 223.383V211.775H299.948V213.619H300.069C300.28 212.994 300.653 212.503 301.187 212.145C301.726 211.782 302.336 211.601 303.016 211.601C303.157 211.601 303.324 211.606 303.515 211.616C303.712 211.626 303.865 211.638 303.976 211.654V213.815C303.885 213.79 303.724 213.762 303.492 213.732C303.261 213.697 303.029 213.679 302.797 213.679C302.263 213.679 301.787 213.792 301.369 214.019C300.956 214.241 300.628 214.551 300.386 214.949C300.144 215.342 300.023 215.79 300.023 216.294V223.383H297.764ZM309.342 223.618C308.254 223.618 307.304 223.368 306.493 222.869C305.681 222.371 305.052 221.673 304.603 220.776C304.155 219.879 303.93 218.831 303.93 217.632C303.93 216.428 304.155 215.375 304.603 214.473C305.052 213.571 305.681 212.87 306.493 212.372C307.304 211.873 308.254 211.623 309.342 211.623C310.43 211.623 311.38 211.873 312.191 212.372C313.002 212.87 313.632 213.571 314.081 214.473C314.529 215.375 314.753 216.428 314.753 217.632C314.753 218.831 314.529 219.879 314.081 220.776C313.632 221.673 313.002 222.371 312.191 222.869C311.38 223.368 310.43 223.618 309.342 223.618ZM309.349 221.721C310.055 221.721 310.639 221.534 311.103 221.161C311.566 220.789 311.909 220.292 312.131 219.672C312.357 219.053 312.471 218.37 312.471 217.624C312.471 216.884 312.357 216.203 312.131 215.584C311.909 214.959 311.566 214.458 311.103 214.08C310.639 213.702 310.055 213.513 309.349 213.513C308.639 213.513 308.049 213.702 307.581 214.08C307.117 214.458 306.772 214.959 306.545 215.584C306.324 216.203 306.213 216.884 306.213 217.624C306.213 218.37 306.324 219.053 306.545 219.672C306.772 220.292 307.117 220.789 307.581 221.161C308.049 221.534 308.639 221.721 309.349 221.721ZM320.557 223.61C319.62 223.61 318.784 223.371 318.048 222.892C317.318 222.408 316.743 221.721 316.325 220.829C315.912 219.932 315.705 218.856 315.705 217.602C315.705 216.347 315.914 215.274 316.333 214.382C316.756 213.49 317.335 212.807 318.071 212.334C318.807 211.86 319.64 211.623 320.573 211.623C321.293 211.623 321.872 211.744 322.311 211.986C322.754 212.223 323.097 212.5 323.339 212.817C323.586 213.135 323.777 213.415 323.913 213.656H324.049V207.905H326.309V223.383H324.102V221.577H323.913C323.777 221.824 323.581 222.106 323.324 222.424C323.072 222.741 322.724 223.018 322.281 223.255C321.837 223.492 321.263 223.61 320.557 223.61ZM321.056 221.683C321.706 221.683 322.255 221.512 322.704 221.169C323.157 220.821 323.5 220.34 323.732 219.725C323.969 219.111 324.087 218.395 324.087 217.579C324.087 216.773 323.971 216.067 323.739 215.463C323.508 214.858 323.167 214.387 322.719 214.049C322.271 213.712 321.716 213.543 321.056 213.543C320.376 213.543 319.809 213.719 319.356 214.072C318.902 214.425 318.56 214.906 318.328 215.516C318.101 216.125 317.988 216.813 317.988 217.579C317.988 218.355 318.104 219.053 318.335 219.672C318.567 220.292 318.91 220.784 319.363 221.146C319.822 221.504 320.386 221.683 321.056 221.683ZM335.824 218.569V211.775H338.091V223.383H335.869V221.373H335.748C335.481 221.993 335.053 222.509 334.464 222.922C333.879 223.331 333.151 223.535 332.279 223.535C331.534 223.535 330.874 223.371 330.299 223.043C329.73 222.711 329.281 222.22 328.954 221.57C328.631 220.92 328.47 220.116 328.47 219.159V211.775H330.73V218.886C330.73 219.678 330.949 220.307 331.387 220.776C331.826 221.245 332.395 221.479 333.096 221.479C333.519 221.479 333.94 221.373 334.358 221.161C334.781 220.95 335.131 220.63 335.408 220.202C335.69 219.773 335.829 219.229 335.824 218.569ZM344.954 223.618C343.83 223.618 342.863 223.363 342.051 222.854C341.245 222.34 340.625 221.633 340.192 220.731C339.759 219.829 339.542 218.796 339.542 217.632C339.542 216.453 339.764 215.412 340.207 214.51C340.651 213.604 341.275 212.896 342.082 212.387C342.888 211.878 343.837 211.623 344.931 211.623C345.813 211.623 346.599 211.787 347.289 212.115C347.979 212.437 348.536 212.891 348.959 213.475C349.387 214.06 349.642 214.742 349.723 215.523H347.523C347.402 214.979 347.125 214.51 346.692 214.117C346.264 213.724 345.689 213.528 344.969 213.528C344.339 213.528 343.787 213.694 343.313 214.027C342.845 214.354 342.48 214.823 342.218 215.433C341.956 216.037 341.825 216.753 341.825 217.579C341.825 218.425 341.953 219.156 342.21 219.771C342.467 220.385 342.83 220.862 343.298 221.199C343.772 221.537 344.329 221.706 344.969 221.706C345.397 221.706 345.785 221.627 346.133 221.471C346.485 221.31 346.78 221.081 347.017 220.784C347.259 220.486 347.427 220.128 347.523 219.71H349.723C349.642 220.461 349.398 221.131 348.989 221.721C348.581 222.31 348.035 222.774 347.349 223.111C346.669 223.449 345.871 223.618 344.954 223.618ZM356.494 211.775V213.588H350.153V211.775H356.494ZM351.854 208.993H354.113V219.975C354.113 220.413 354.179 220.743 354.31 220.965C354.441 221.182 354.61 221.33 354.816 221.411C355.028 221.486 355.257 221.524 355.504 221.524C355.685 221.524 355.844 221.512 355.98 221.486C356.116 221.461 356.222 221.441 356.298 221.426L356.706 223.293C356.575 223.343 356.388 223.394 356.146 223.444C355.905 223.499 355.602 223.53 355.239 223.535C354.645 223.545 354.091 223.439 353.577 223.217C353.063 222.995 352.647 222.653 352.33 222.189C352.012 221.726 351.854 221.144 351.854 220.443V208.993ZM274.847 233.905H277.682L282.609 245.937H282.791L287.719 233.905H290.553V249.383H288.331V238.183H288.187L283.622 249.361H281.778L277.213 238.175H277.069V249.383H274.847V233.905ZM296.081 249.64C295.345 249.64 294.68 249.504 294.086 249.232C293.491 248.955 293.02 248.555 292.672 248.031C292.33 247.507 292.158 246.864 292.158 246.103C292.158 245.448 292.284 244.909 292.536 244.486C292.788 244.063 293.128 243.728 293.557 243.481C293.985 243.234 294.464 243.047 294.993 242.921C295.522 242.795 296.061 242.7 296.61 242.634C297.305 242.554 297.87 242.488 298.303 242.438C298.736 242.382 299.051 242.294 299.248 242.173C299.444 242.052 299.543 241.856 299.543 241.584V241.531C299.543 240.871 299.356 240.359 298.983 239.997C298.615 239.634 298.066 239.452 297.336 239.452C296.575 239.452 295.975 239.621 295.537 239.959C295.104 240.291 294.804 240.662 294.637 241.07L292.514 240.586C292.766 239.881 293.133 239.311 293.617 238.878C294.106 238.44 294.668 238.122 295.303 237.926C295.937 237.724 296.605 237.623 297.305 237.623C297.769 237.623 298.26 237.679 298.779 237.79C299.303 237.895 299.792 238.092 300.245 238.379C300.704 238.666 301.079 239.077 301.372 239.611C301.664 240.14 301.81 240.828 301.81 241.674V249.383H299.603V247.796H299.512C299.366 248.089 299.147 248.376 298.855 248.658C298.562 248.94 298.187 249.174 297.729 249.361C297.27 249.547 296.721 249.64 296.081 249.64ZM296.572 247.826C297.197 247.826 297.731 247.703 298.175 247.456C298.623 247.209 298.963 246.887 299.195 246.489C299.432 246.086 299.55 245.655 299.55 245.196V243.7C299.469 243.781 299.313 243.856 299.081 243.927C298.855 243.992 298.595 244.05 298.303 244.1C298.011 244.146 297.726 244.189 297.449 244.229C297.172 244.264 296.94 244.294 296.754 244.32C296.315 244.375 295.915 244.468 295.552 244.599C295.194 244.73 294.907 244.919 294.69 245.166C294.479 245.408 294.373 245.73 294.373 246.134C294.373 246.693 294.579 247.116 294.993 247.403C295.406 247.685 295.932 247.826 296.572 247.826ZM306.015 242.491V249.383H303.756V237.775H305.925V239.664H306.068C306.335 239.049 306.754 238.555 307.323 238.183C307.897 237.81 308.62 237.623 309.492 237.623C310.283 237.623 310.976 237.79 311.571 238.122C312.165 238.45 312.626 238.938 312.954 239.588C313.281 240.238 313.445 241.042 313.445 241.999V249.383H311.185V242.271C311.185 241.43 310.966 240.772 310.528 240.299C310.089 239.82 309.487 239.581 308.721 239.581C308.197 239.581 307.731 239.694 307.323 239.921C306.92 240.148 306.6 240.48 306.363 240.919C306.131 241.352 306.015 241.876 306.015 242.491ZM318.79 249.64C318.054 249.64 317.389 249.504 316.795 249.232C316.2 248.955 315.729 248.555 315.381 248.031C315.039 247.507 314.867 246.864 314.867 246.103C314.867 245.448 314.993 244.909 315.245 244.486C315.497 244.063 315.837 243.728 316.265 243.481C316.694 243.234 317.172 243.047 317.701 242.921C318.231 242.795 318.77 242.7 319.319 242.634C320.014 242.554 320.579 242.488 321.012 242.438C321.445 242.382 321.76 242.294 321.957 242.173C322.153 242.052 322.251 241.856 322.251 241.584V241.531C322.251 240.871 322.065 240.359 321.692 239.997C321.324 239.634 320.775 239.452 320.044 239.452C319.284 239.452 318.684 239.621 318.246 239.959C317.812 240.291 317.513 240.662 317.346 241.07L315.222 240.586C315.474 239.881 315.842 239.311 316.326 238.878C316.815 238.44 317.376 238.122 318.011 237.926C318.646 237.724 319.314 237.623 320.014 237.623C320.478 237.623 320.969 237.679 321.488 237.79C322.012 237.895 322.501 238.092 322.954 238.379C323.413 238.666 323.788 239.077 324.08 239.611C324.373 240.14 324.519 240.828 324.519 241.674V249.383H322.312V247.796H322.221C322.075 248.089 321.856 248.376 321.564 248.658C321.271 248.94 320.896 249.174 320.437 249.361C319.979 249.547 319.43 249.64 318.79 249.64ZM319.281 247.826C319.906 247.826 320.44 247.703 320.883 247.456C321.332 247.209 321.672 246.887 321.904 246.489C322.14 246.086 322.259 245.655 322.259 245.196V243.7C322.178 243.781 322.022 243.856 321.79 243.927C321.564 243.992 321.304 244.05 321.012 244.1C320.72 244.146 320.435 244.189 320.158 244.229C319.881 244.264 319.649 244.294 319.462 244.32C319.024 244.375 318.624 244.468 318.261 244.599C317.903 244.73 317.616 244.919 317.399 245.166C317.188 245.408 317.082 245.73 317.082 246.134C317.082 246.693 317.288 247.116 317.701 247.403C318.115 247.685 318.641 247.826 319.281 247.826ZM331.332 253.979C330.41 253.979 329.616 253.858 328.951 253.616C328.291 253.374 327.752 253.054 327.334 252.656C326.915 252.258 326.603 251.822 326.396 251.348L328.339 250.547C328.475 250.769 328.656 251.003 328.883 251.25C329.115 251.502 329.427 251.716 329.82 251.893C330.218 252.069 330.73 252.157 331.354 252.157C332.211 252.157 332.919 251.948 333.478 251.53C334.037 251.117 334.317 250.457 334.317 249.55V247.267H334.174C334.037 247.514 333.841 247.789 333.584 248.091C333.332 248.393 332.984 248.655 332.541 248.877C332.098 249.099 331.521 249.21 330.81 249.21C329.893 249.21 329.067 248.995 328.331 248.567C327.601 248.134 327.021 247.496 326.593 246.655C326.17 245.809 325.958 244.768 325.958 243.534C325.958 242.299 326.167 241.241 326.585 240.359C327.009 239.478 327.588 238.802 328.324 238.334C329.059 237.86 329.893 237.623 330.825 237.623C331.546 237.623 332.128 237.744 332.571 237.986C333.015 238.223 333.36 238.5 333.607 238.817C333.859 239.135 334.053 239.415 334.189 239.656H334.355V237.775H336.569V249.64C336.569 250.638 336.338 251.457 335.874 252.097C335.41 252.737 334.783 253.21 333.992 253.518C333.206 253.825 332.319 253.979 331.332 253.979ZM331.309 247.335C331.959 247.335 332.508 247.184 332.957 246.882C333.41 246.574 333.753 246.136 333.985 245.567C334.221 244.992 334.34 244.305 334.34 243.503C334.34 242.722 334.224 242.035 333.992 241.44C333.76 240.846 333.42 240.382 332.972 240.049C332.523 239.712 331.969 239.543 331.309 239.543C330.629 239.543 330.062 239.719 329.609 240.072C329.155 240.42 328.812 240.893 328.581 241.493C328.354 242.093 328.241 242.763 328.241 243.503C328.241 244.264 328.356 244.932 328.588 245.506C328.82 246.081 329.163 246.529 329.616 246.852C330.075 247.174 330.639 247.335 331.309 247.335ZM343.539 249.618C342.395 249.618 341.41 249.373 340.584 248.885C339.763 248.391 339.128 247.698 338.68 246.806C338.236 245.909 338.014 244.859 338.014 243.655C338.014 242.465 338.236 241.417 338.68 240.51C339.128 239.604 339.753 238.896 340.554 238.387C341.36 237.878 342.302 237.623 343.381 237.623C344.036 237.623 344.67 237.732 345.285 237.948C345.9 238.165 346.452 238.505 346.94 238.969C347.429 239.432 347.815 240.034 348.097 240.775C348.379 241.511 348.52 242.405 348.52 243.458V244.259H339.292V242.566H346.305C346.305 241.972 346.185 241.445 345.943 240.987C345.701 240.523 345.361 240.158 344.922 239.891C344.489 239.624 343.98 239.49 343.396 239.49C342.761 239.49 342.207 239.646 341.733 239.959C341.264 240.266 340.902 240.669 340.645 241.168C340.393 241.662 340.267 242.198 340.267 242.778V244.1C340.267 244.876 340.403 245.536 340.675 246.081C340.952 246.625 341.337 247.04 341.831 247.328C342.325 247.61 342.902 247.751 343.562 247.751C343.99 247.751 344.381 247.69 344.733 247.57C345.086 247.444 345.391 247.257 345.648 247.01C345.905 246.763 346.101 246.459 346.237 246.096L348.376 246.481C348.205 247.111 347.898 247.663 347.454 248.136C347.016 248.605 346.464 248.97 345.799 249.232C345.139 249.489 344.386 249.618 343.539 249.618ZM349.963 249.383V237.775H352.147V239.619H352.268C352.48 238.994 352.853 238.503 353.387 238.145C353.926 237.782 354.536 237.601 355.216 237.601C355.357 237.601 355.523 237.606 355.715 237.616C355.911 237.626 356.065 237.638 356.176 237.654V239.815C356.085 239.79 355.924 239.762 355.692 239.732C355.46 239.697 355.228 239.679 354.997 239.679C354.463 239.679 353.986 239.792 353.568 240.019C353.155 240.241 352.828 240.551 352.586 240.949C352.344 241.342 352.223 241.79 352.223 242.294V249.383H349.963ZM365.766 240.609L363.718 240.971C363.632 240.709 363.496 240.46 363.31 240.223C363.129 239.986 362.882 239.792 362.569 239.641C362.257 239.49 361.866 239.415 361.398 239.415C360.758 239.415 360.224 239.558 359.796 239.845C359.367 240.128 359.153 240.493 359.153 240.941C359.153 241.329 359.297 241.642 359.584 241.878C359.871 242.115 360.335 242.309 360.975 242.46L362.819 242.884C363.887 243.131 364.683 243.511 365.207 244.025C365.731 244.539 365.993 245.206 365.993 246.028C365.993 246.723 365.791 247.343 365.388 247.887C364.99 248.426 364.434 248.849 363.718 249.157C363.008 249.464 362.184 249.618 361.247 249.618C359.947 249.618 358.886 249.341 358.065 248.786C357.243 248.227 356.74 247.433 356.553 246.406L358.737 246.073C358.873 246.642 359.153 247.073 359.576 247.365C360 247.653 360.551 247.796 361.232 247.796C361.972 247.796 362.564 247.643 363.008 247.335C363.451 247.023 363.673 246.642 363.673 246.194C363.673 245.831 363.537 245.526 363.265 245.279C362.998 245.033 362.587 244.846 362.033 244.72L360.068 244.289C358.984 244.043 358.183 243.65 357.664 243.11C357.15 242.571 356.893 241.889 356.893 241.062C356.893 240.377 357.085 239.777 357.468 239.263C357.851 238.749 358.38 238.349 359.055 238.062C359.73 237.769 360.503 237.623 361.375 237.623C362.63 237.623 363.617 237.895 364.338 238.44C365.058 238.979 365.534 239.702 365.766 240.609Z" fill="#EB5D5E"/>
<path d="M617.548 55.8355C615.494 51.8374 609.323 49.1513 604.85 49.1513C604.186 49.1513 603.557 49.208 602.979 49.316L602.763 49.3564L602.679 49.1567C602.145 47.8852 602.409 46.2276 602.666 44.6268C602.871 43.3229 603.068 42.0919 602.803 41.2469C602.579 40.5315 601.942 40.2777 601.462 40.2777C601.054 40.2777 600.673 40.4451 600.417 40.7367C599.966 41.2496 599.577 44.1543 599.507 45.5014C599.434 46.916 599.564 48.2604 599.699 49.6831L599.747 50.2122L599.529 50.2716C596.465 51.1058 593.717 54.6368 592.926 57.4309C592.88 57.601 592.828 57.8601 592.785 58.1598C592.726 58.5539 592.669 59.0237 592.618 59.4745L592.612 59.5069C592.469 60.7136 592.402 61.2265 592.286 61.4263C592.229 61.5262 592.137 61.5883 591.387 62.031C590.831 62.3604 590.358 62.6411 590.191 62.7842C587.013 65.4838 585.251 69.4036 585.477 73.264C585.507 73.8255 585.688 74.4869 585.863 75.1321C586.071 75.8961 586.266 76.6196 586.239 77.2162C586.217 77.6832 586.001 78.2285 585.772 78.8116C585.55 79.3677 585.324 79.9428 585.261 80.4611C584.962 83.0203 585.553 85.6578 586.97 88.0874C587.651 89.2482 589.497 91.6482 590.866 91.6482C591.168 91.6482 591.427 91.5294 591.662 91.2837C592.467 90.436 591.692 89.5344 590.509 88.3493C590.134 87.974 589.781 87.6204 589.562 87.291C588.628 85.8872 588.069 84.1163 587.896 82.0241L587.84 81.3114L592.051 85.3824C593.941 87.3882 598.827 89.6235 602.814 89.6235C607.026 89.6235 608.13 87.2694 608.316 85.296C608.567 82.6342 607.171 80.372 605.956 78.9385C603.335 75.8502 598.792 73.426 595.155 73.1749C594.883 73.156 594.618 73.1452 594.37 73.1452C592.95 73.1452 591.994 73.4394 590.782 73.812C590.356 73.9416 589.913 74.0793 589.405 74.2169C589.316 74.2385 589.233 74.252 589.152 74.252C588.938 74.252 588.76 74.171 588.62 74.0145C588.217 73.5609 588.296 72.5594 588.404 71.6577L588.417 71.5443C588.617 69.8139 590.515 65.6457 592.24 64.9034C592.334 64.8629 592.418 64.844 592.502 64.844C592.769 64.844 592.899 65.0356 593.004 65.2192L593.044 65.2894C593.347 65.7915 593.565 66.3314 593.781 66.8525C594.078 67.5732 594.383 68.3183 594.923 69.031C596.457 71.053 599.664 73.2586 602.069 73.9416C603.119 74.2385 604.267 74.3951 605.381 74.3951C607.849 74.3951 609.882 73.6419 610.953 72.3299C611.812 71.2771 612.074 69.8868 611.728 68.1969C611.267 65.9346 609.463 63.7128 606.65 61.9473C604.134 60.3654 601.095 59.3827 598.713 59.3827H598.624C597.955 59.3881 596.997 59.6176 596.222 59.8011L595.493 59.9685L595.525 59.5987C595.568 59.1532 595.655 58.6943 595.787 58.2327C596.513 55.6789 598.417 53.6137 600.633 52.9712L600.881 52.8983L600.965 53.144C601.648 55.1822 602.99 57.0503 604.844 58.5512C606.858 60.1818 609.315 61.2292 611.758 61.5019C612.114 61.5397 612.479 61.5613 612.843 61.5613C615.251 61.5613 617.179 60.7136 617.875 59.3503C618.366 58.3947 618.256 57.2122 617.548 55.8355ZM590.242 77.3161C590.523 76.9138 592.872 76.3739 593.444 76.3361C593.617 76.3253 593.792 76.3199 593.968 76.3199C597.269 76.3199 601.386 78.3365 603.543 81.0145C604.264 81.9108 605.487 84.2216 605.041 85.5012C604.879 85.9655 604.531 86.2517 603.983 86.3732C603.551 86.4677 603.092 86.5162 602.622 86.5162C599.232 86.5162 595.25 84.1001 592.982 81.8568C589.832 78.7252 590.015 77.64 590.242 77.3161ZM595.795 63.0676C596.667 62.7896 597.601 62.6465 598.573 62.6465C601.232 62.6465 604.026 63.6966 606.243 65.5297C608.065 67.0414 608.977 68.7503 608.567 69.8814C608.165 70.9936 606.696 71.2285 605.535 71.2285C605.225 71.2285 604.885 71.2096 604.526 71.1745C600.007 70.7534 596.119 66.4718 595.793 63.0703H595.795V63.0676ZM614.976 57.763C614.884 58.1895 614.363 58.4055 613.424 58.4055C612.074 58.4055 610.252 57.9573 609.62 57.7279C606.294 56.5346 604.423 53.8054 604.156 52.2477C609.212 52.5096 613.259 54.572 614.976 57.7603V57.763Z" fill="#FEE2A1"/>
<path d="M617.737 40.0765C618.098 38.5471 617.151 37.0146 615.621 36.6536C614.092 36.2926 612.56 37.2398 612.199 38.7693C611.838 40.2987 612.785 41.8312 614.314 42.1922C615.844 42.5531 617.376 41.6059 617.737 40.0765Z" fill="#EB5D5E"/>
<path d="M621.997 79.5189C621.997 81.0901 620.723 82.3643 619.152 82.3643C617.581 82.3643 616.307 81.0901 616.307 79.5189C616.307 77.9477 617.581 76.6708 619.152 76.6708C620.723 76.6708 621.997 77.945 621.997 79.5189Z" fill="#648FFF"/>
<path d="M575.843 65.8401C577.415 65.8401 578.689 64.5662 578.689 62.9947C578.689 61.4233 577.415 60.1494 575.843 60.1494C574.272 60.1494 572.998 61.4233 572.998 62.9947C572.998 64.5662 574.272 65.8401 575.843 65.8401Z" fill="#785EF0"/>
<path d="M461.934 78.0255C461.964 77.9445 461.995 77.8684 462.03 77.7898C462.187 77.3946 462.344 77.0141 462.509 76.6384C465.04 70.2654 470.163 63.0159 474.567 57.7574C474.71 57.588 474.862 57.4088 475.019 57.2222C480.027 51.2861 491.776 38.1104 499.716 43.963C505.406 48.161 502.672 55.8204 500.295 61.1108C500.094 61.5577 490.51 79.5942 489.029 82.658C488.799 83.1785 490.399 84.1261 490.863 84.3298C494.111 85.7341 500.58 86.9051 504.235 87.6489C517.728 90.3911 529.853 89.6104 543.299 90.7741C562.936 92.4778 582.288 97.7437 600.391 105.258C609.05 108.855 615.806 112.731 614.586 123.793C613.032 137.828 597.043 154.645 585.914 162.564C581.24 165.893 570.924 172.922 567.345 164.528C562.656 153.523 575.473 142.326 581.024 134.04C581.827 132.847 584.203 129.521 583.99 128.207C583.867 127.444 582.76 127.122 582.121 126.815C580.251 125.905 571.499 122.686 569.842 122.843C566.196 123.197 566.719 128.038 566.599 130.746C566.437 134.2 566.503 137.693 566.589 141.184C566.64 143.259 566.815 147.648 566.815 147.648C566.653 148.682 565.136 151.281 564.684 152.7C563.385 156.768 562.838 162.636 564.873 166.534C565.339 167.423 566.825 169.18 567.524 169.792C567.524 169.792 567.325 186.024 567.524 192.039H497.511C497.69 188.842 497.624 185.616 497.732 182.413C498.398 163.372 498.881 144.047 498.682 124.945C498.645 121.409 497.435 114.523 494.499 112.324C492.859 111.091 483.066 108.931 474.604 106.496C471.877 105.712 469.289 104.9 467.153 104.082C462.506 102.46 460.216 99.1946 459.381 95.2986C459.184 94.3878 459.072 93.4402 459.025 92.4729C458.789 87.6587 460.24 82.3094 461.937 78.0255H461.934Z" fill="#FFA700"/>
<path d="M536.998 26C553.018 26 566 38.9861 566 55.0021C566 71.018 553.018 84 536.998 84C520.978 84 508 71.018 508 55.0021C508 38.9861 520.982 26 536.998 26ZM542.903 50.5428C543.362 49.0091 542.491 47.4004 540.961 46.942C539.432 46.4878 537.819 47.3588 537.365 48.8924C536.91 50.4219 537.781 52.0306 539.311 52.489C540.84 52.9433 542.449 52.0723 542.903 50.5428ZM525.875 66.067C526.512 66.2587 527.175 66.3837 527.842 66.442C532.989 66.9088 537.598 63.4289 538.552 58.357C538.682 57.7027 538.294 57.065 537.656 56.8733C537.573 56.8483 537.49 56.8316 537.406 56.8233C536.74 56.765 536.144 57.2192 536.023 57.8819C535.306 61.641 531.888 64.2166 528.071 63.8748C527.579 63.829 527.087 63.7331 526.616 63.5914C523.528 62.6746 521.349 59.7781 521.32 56.5566C521.32 55.9773 520.944 55.4855 520.399 55.3188C520.319 55.298 520.232 55.2813 520.148 55.273C519.786 55.2396 519.427 55.3647 519.157 55.6064C518.89 55.8564 518.74 56.2065 518.74 56.5691C518.769 60.92 521.707 64.825 525.875 66.067ZM515.368 49.1258C515.877 49.1592 516.373 48.8633 516.535 48.3673C516.956 47.0837 518.198 46.1794 519.619 46.2502C521.036 46.3169 522.191 47.3338 522.486 48.6591C522.599 49.1633 523.053 49.5092 523.57 49.5342H523.608C524.324 49.5509 524.912 48.8924 524.754 48.1798C524.245 45.8543 522.228 44.0539 519.736 43.9247C517.244 43.808 515.051 45.3958 514.322 47.663C514.089 48.3715 514.618 49.1008 515.368 49.1258Z" fill="#FFA700"/>
<path d="M516.001 208.521H518.344V218.702C518.344 219.785 518.09 220.745 517.581 221.581C517.072 222.413 516.356 223.068 515.434 223.547C514.512 224.02 513.431 224.257 512.192 224.257C510.957 224.257 509.879 224.02 508.957 223.547C508.035 223.068 507.32 222.413 506.811 221.581C506.302 220.745 506.047 219.785 506.047 218.702V208.521H508.383V218.513C508.383 219.213 508.536 219.836 508.844 220.38C509.156 220.924 509.597 221.352 510.166 221.665C510.736 221.972 511.411 222.126 512.192 222.126C512.978 222.126 513.656 221.972 514.225 221.665C514.799 221.352 515.238 220.924 515.54 220.38C515.847 219.836 516.001 219.213 516.001 218.513V208.521ZM522.3 208.521L526.004 214.575H526.124L529.828 208.521H532.534L527.712 216.261L532.564 224H529.843L526.124 218.029H526.004L522.285 224H519.564L524.499 216.261L519.594 208.521H522.3ZM539.5 207.796L534.511 226.328H532.493L537.482 207.796H539.5ZM550.49 208.521H552.833V218.702C552.833 219.785 552.579 220.745 552.07 221.581C551.561 222.413 550.846 223.068 549.923 223.547C549.001 224.02 547.921 224.257 546.681 224.257C545.447 224.257 544.368 224.02 543.446 223.547C542.524 223.068 541.809 222.413 541.3 221.581C540.791 220.745 540.537 219.785 540.537 218.702V208.521H542.872V218.513C542.872 219.213 543.026 219.836 543.333 220.38C543.645 220.924 544.086 221.352 544.656 221.665C545.225 221.972 545.9 222.126 546.681 222.126C547.467 222.126 548.145 221.972 548.714 221.665C549.289 221.352 549.727 220.924 550.029 220.38C550.337 219.836 550.49 219.213 550.49 218.513V208.521ZM557.5 208.521V224H555.164V208.521H557.5ZM491.498 250H486.487V234.521H491.657C493.173 234.521 494.476 234.831 495.564 235.451C496.653 236.066 497.487 236.95 498.066 238.104C498.65 239.253 498.943 240.631 498.943 242.238C498.943 243.85 498.648 245.236 498.058 246.395C497.474 247.554 496.627 248.446 495.519 249.07C494.41 249.69 493.07 250 491.498 250ZM488.823 247.959H491.37C492.549 247.959 493.529 247.738 494.31 247.294C495.091 246.846 495.675 246.198 496.063 245.352C496.451 244.5 496.645 243.462 496.645 242.238C496.645 241.024 496.451 239.993 496.063 239.147C495.68 238.3 495.108 237.658 494.347 237.22C493.587 236.781 492.642 236.562 491.513 236.562H488.823V247.959ZM505.605 250.234C504.461 250.234 503.476 249.99 502.649 249.501C501.828 249.007 501.193 248.315 500.745 247.423C500.301 246.526 500.08 245.475 500.08 244.271C500.08 243.082 500.301 242.034 500.745 241.127C501.193 240.22 501.818 239.512 502.619 239.003C503.425 238.494 504.368 238.24 505.446 238.24C506.101 238.24 506.736 238.348 507.35 238.565C507.965 238.782 508.517 239.122 509.006 239.585C509.494 240.049 509.88 240.651 510.162 241.392C510.444 242.127 510.585 243.022 510.585 244.075V244.876H501.357V243.183H508.371C508.371 242.588 508.25 242.062 508.008 241.603C507.766 241.14 507.426 240.774 506.988 240.507C506.554 240.24 506.045 240.107 505.461 240.107C504.826 240.107 504.272 240.263 503.798 240.575C503.33 240.883 502.967 241.286 502.71 241.785C502.458 242.278 502.332 242.815 502.332 243.394V244.717C502.332 245.493 502.468 246.153 502.74 246.697C503.017 247.241 503.403 247.657 503.896 247.944C504.39 248.226 504.967 248.367 505.627 248.367C506.056 248.367 506.446 248.307 506.799 248.186C507.151 248.06 507.456 247.874 507.713 247.627C507.97 247.38 508.167 247.075 508.303 246.712L510.442 247.098C510.27 247.728 509.963 248.279 509.52 248.753C509.081 249.222 508.529 249.587 507.864 249.849C507.204 250.106 506.451 250.234 505.605 250.234ZM520.728 241.225L518.679 241.588C518.594 241.326 518.458 241.077 518.271 240.84C518.09 240.603 517.843 240.409 517.531 240.258C517.218 240.107 516.828 240.031 516.359 240.031C515.719 240.031 515.185 240.175 514.757 240.462C514.329 240.744 514.114 241.109 514.114 241.558C514.114 241.946 514.258 242.258 514.545 242.495C514.832 242.732 515.296 242.926 515.936 243.077L517.78 243.5C518.848 243.747 519.644 244.128 520.168 244.641C520.692 245.155 520.954 245.823 520.954 246.644C520.954 247.34 520.753 247.959 520.35 248.504C519.952 249.043 519.395 249.466 518.679 249.773C517.969 250.081 517.145 250.234 516.208 250.234C514.908 250.234 513.847 249.957 513.026 249.403C512.205 248.844 511.701 248.05 511.514 247.022L513.699 246.69C513.835 247.259 514.114 247.69 514.538 247.982C514.961 248.269 515.513 248.413 516.193 248.413C516.933 248.413 517.526 248.259 517.969 247.952C518.412 247.639 518.634 247.259 518.634 246.811C518.634 246.448 518.498 246.143 518.226 245.896C517.959 245.649 517.548 245.463 516.994 245.337L515.029 244.906C513.946 244.659 513.144 244.266 512.625 243.727C512.112 243.188 511.855 242.505 511.855 241.679C511.855 240.994 512.046 240.394 512.429 239.88C512.812 239.366 513.341 238.965 514.016 238.678C514.691 238.386 515.465 238.24 516.336 238.24C517.591 238.24 518.579 238.512 519.299 239.056C520.02 239.595 520.496 240.318 520.728 241.225ZM522.375 250V238.391H524.635V250H522.375ZM523.516 236.6C523.123 236.6 522.785 236.469 522.503 236.207C522.226 235.94 522.088 235.622 522.088 235.255C522.088 234.882 522.226 234.564 522.503 234.302C522.785 234.035 523.123 233.902 523.516 233.902C523.909 233.902 524.244 234.035 524.521 234.302C524.803 234.564 524.944 234.882 524.944 235.255C524.944 235.622 524.803 235.94 524.521 236.207C524.244 236.469 523.909 236.6 523.516 236.6ZM531.478 254.595C530.556 254.595 529.762 254.474 529.097 254.232C528.437 253.991 527.898 253.671 527.48 253.273C527.062 252.875 526.749 252.439 526.543 251.965L528.485 251.164C528.621 251.386 528.802 251.62 529.029 251.867C529.261 252.119 529.573 252.333 529.966 252.509C530.364 252.686 530.876 252.774 531.501 252.774C532.357 252.774 533.065 252.565 533.624 252.146C534.184 251.733 534.463 251.073 534.463 250.166V247.884H534.32C534.184 248.131 533.987 248.405 533.73 248.708C533.478 249.01 533.131 249.272 532.687 249.494C532.244 249.715 531.667 249.826 530.956 249.826C530.039 249.826 529.213 249.612 528.477 249.184C527.747 248.75 527.167 248.113 526.739 247.272C526.316 246.425 526.104 245.385 526.104 244.15C526.104 242.916 526.313 241.858 526.732 240.976C527.155 240.094 527.734 239.419 528.47 238.95C529.205 238.477 530.039 238.24 530.972 238.24C531.692 238.24 532.274 238.361 532.717 238.603C533.161 238.84 533.506 239.117 533.753 239.434C534.005 239.752 534.199 240.031 534.335 240.273H534.501V238.391H536.716V250.257C536.716 251.255 536.484 252.073 536.02 252.713C535.557 253.353 534.929 253.827 534.138 254.134C533.352 254.442 532.465 254.595 531.478 254.595ZM531.455 247.952C532.105 247.952 532.654 247.801 533.103 247.498C533.556 247.191 533.899 246.753 534.131 246.183C534.368 245.609 534.486 244.921 534.486 244.12C534.486 243.339 534.37 242.651 534.138 242.057C533.906 241.462 533.566 240.999 533.118 240.666C532.67 240.328 532.115 240.16 531.455 240.16C530.775 240.16 530.208 240.336 529.755 240.689C529.301 241.036 528.959 241.51 528.727 242.11C528.5 242.709 528.387 243.379 528.387 244.12C528.387 244.881 528.503 245.548 528.734 246.123C528.966 246.697 529.309 247.146 529.762 247.468C530.221 247.791 530.785 247.952 531.455 247.952ZM540.942 243.107V250H538.682V238.391H540.851V240.281H540.995C541.262 239.666 541.68 239.172 542.249 238.799C542.824 238.426 543.547 238.24 544.419 238.24C545.21 238.24 545.902 238.406 546.497 238.739C547.091 239.066 547.553 239.555 547.88 240.205C548.208 240.855 548.371 241.659 548.371 242.616V250H546.111V242.888C546.111 242.047 545.892 241.389 545.454 240.915C545.016 240.437 544.413 240.197 543.648 240.197C543.124 240.197 542.658 240.311 542.249 240.538C541.846 240.764 541.526 241.097 541.29 241.535C541.058 241.968 540.942 242.492 540.942 243.107ZM555.341 250.234C554.197 250.234 553.212 249.99 552.386 249.501C551.565 249.007 550.93 248.315 550.481 247.423C550.038 246.526 549.816 245.475 549.816 244.271C549.816 243.082 550.038 242.034 550.481 241.127C550.93 240.22 551.555 239.512 552.356 239.003C553.162 238.494 554.104 238.24 555.182 238.24C555.837 238.24 556.472 238.348 557.087 238.565C557.702 238.782 558.253 239.122 558.742 239.585C559.231 240.049 559.616 240.651 559.899 241.392C560.181 242.127 560.322 243.022 560.322 244.075V244.876H551.094V243.183H558.107C558.107 242.588 557.986 242.062 557.745 241.603C557.503 241.14 557.163 240.774 556.724 240.507C556.291 240.24 555.782 240.107 555.198 240.107C554.563 240.107 554.008 240.263 553.535 240.575C553.066 240.883 552.703 241.286 552.446 241.785C552.195 242.278 552.069 242.815 552.069 243.394V244.717C552.069 245.493 552.205 246.153 552.477 246.697C552.754 247.241 553.139 247.657 553.633 247.944C554.127 248.226 554.704 248.367 555.364 248.367C555.792 248.367 556.183 248.307 556.535 248.186C556.888 248.06 557.193 247.874 557.45 247.627C557.707 247.38 557.903 247.075 558.039 246.712L560.178 247.098C560.007 247.728 559.7 248.279 559.256 248.753C558.818 249.222 558.266 249.587 557.601 249.849C556.941 250.106 556.188 250.234 555.341 250.234ZM561.765 250V238.391H563.949V240.235H564.07C564.282 239.61 564.655 239.119 565.189 238.761C565.728 238.399 566.338 238.217 567.018 238.217C567.159 238.217 567.325 238.222 567.517 238.232C567.713 238.242 567.867 238.255 567.978 238.27V240.432C567.887 240.407 567.726 240.379 567.494 240.349C567.262 240.313 567.03 240.296 566.799 240.296C566.264 240.296 565.788 240.409 565.37 240.636C564.957 240.857 564.629 241.167 564.388 241.565C564.146 241.958 564.025 242.407 564.025 242.911V250H561.765ZM577.568 241.225L575.52 241.588C575.434 241.326 575.298 241.077 575.112 240.84C574.93 240.603 574.684 240.409 574.371 240.258C574.059 240.107 573.668 240.031 573.2 240.031C572.56 240.031 572.026 240.175 571.597 240.462C571.169 240.744 570.955 241.109 570.955 241.558C570.955 241.946 571.099 242.258 571.386 242.495C571.673 242.732 572.137 242.926 572.776 243.077L574.621 243.5C575.689 243.747 576.485 244.128 577.009 244.641C577.533 245.155 577.795 245.823 577.795 246.644C577.795 247.34 577.593 247.959 577.19 248.504C576.792 249.043 576.235 249.466 575.52 249.773C574.81 250.081 573.986 250.234 573.049 250.234C571.749 250.234 570.688 249.957 569.867 249.403C569.045 248.844 568.542 248.05 568.355 247.022L570.539 246.69C570.675 247.259 570.955 247.69 571.378 247.982C571.801 248.269 572.353 248.413 573.033 248.413C573.774 248.413 574.366 248.259 574.81 247.952C575.253 247.639 575.475 247.259 575.475 246.811C575.475 246.448 575.339 246.143 575.067 245.896C574.799 245.649 574.389 245.463 573.835 245.337L571.87 244.906C570.786 244.659 569.985 244.266 569.466 243.727C568.952 243.188 568.695 242.505 568.695 241.679C568.695 240.994 568.887 240.394 569.27 239.88C569.653 239.366 570.182 238.965 570.857 238.678C571.532 238.386 572.305 238.24 573.177 238.24C574.432 238.24 575.419 238.512 576.14 239.056C576.86 239.595 577.336 240.318 577.568 241.225Z" fill="#FFA700"/>
</svg>
